<svg width="151" height="28" viewBox="0 0 151 28" fill="none" xmlns="http://www.w3.org/2000/svg">
<g clip-path="url(#clip0_158_42536)">
<path d="M5.19294 4.88624L12.1661 0.861313L19.1392 4.88624L16.5755 6.37316L12.1661 3.83514L7.75659 6.37316L5.19294 4.88624ZM19.1392 9.96225L16.5755 8.47535L12.1661 11.0134L7.75659 8.47535L5.19294 9.96225V12.9361L9.6024 15.474V20.5501L12.1661 22.037L14.7297 20.5501V15.474L19.1392 12.9361V9.96225ZM19.1392 18.0121V15.0383L16.5755 16.5251V19.499L19.1392 18.0121ZM20.9593 19.0632L16.5499 21.6012V24.575L23.523 20.5501V12.5002L20.9593 13.9872V19.0632ZM18.3958 7.42425L20.9593 8.91116V11.885L23.523 10.3981V7.42425L20.9593 5.93733L18.3958 7.42425ZM9.6024 22.678V25.6518L12.1661 27.1387L14.7297 25.6518V22.678L12.1661 24.1649L9.6024 22.678ZM5.19294 18.0121L7.75659 19.499V16.5251L5.19294 15.0383V18.0121ZM9.6024 7.42425L12.1661 8.91116L14.7297 7.42425L12.1661 5.93733L9.6024 7.42425ZM3.37272 8.91116L5.93638 7.42425L3.37272 5.93733L0.809082 7.42425V10.3981L3.37272 11.885V8.91116ZM3.37272 13.9872L0.809082 12.5002V20.5501L7.78219 24.575V21.6012L3.37272 19.0632V13.9872Z" fill="#F0B90B"/>
<path d="M43.7342 17.352V17.3103C43.7342 15.3465 42.6897 14.3646 40.9974 13.717C42.0421 13.132 42.9195 12.2127 42.9195 10.5623V10.5205C42.9195 8.22244 41.0811 6.73914 38.0936 6.73914H31.3037V21.3632H38.2606C41.5615 21.3632 43.7342 20.0262 43.7342 17.352ZM39.7231 11.1055C39.7231 12.1918 38.8247 12.6514 37.4041 12.6514H34.4375V9.5595H37.613C38.971 9.5595 39.7231 10.1027 39.7231 11.0637V11.1055ZM40.5378 16.9551C40.5378 18.0415 39.6813 18.5429 38.2606 18.5429H34.4375V15.3256H38.1562C39.8066 15.3256 40.5378 15.9314 40.5378 16.9133V16.9551Z" fill="#F0B90B"/>
<path d="M59.5844 21.3632V6.73914H56.4089V15.7434L49.5564 6.73914H46.5898V21.3632H49.7654V12.0665L56.8477 21.3632H59.5844Z" fill="#F0B90B"/>
<path d="M75.7341 17.352V17.3103C75.7341 15.3465 74.6896 14.3646 72.9973 13.717C74.042 13.132 74.9194 12.2127 74.9194 10.5623V10.5205C74.9194 8.22244 73.081 6.73914 70.0935 6.73914H63.3037V21.3632H70.2605C73.5614 21.3632 75.7341 20.0262 75.7341 17.352ZM71.723 11.1055C71.723 12.1918 70.8246 12.6514 69.404 12.6514H66.4374V9.5595H69.6129C70.9709 9.5595 71.723 10.1027 71.723 11.0637V11.1055ZM72.5378 16.9551C72.5378 18.0415 71.6812 18.5429 70.2605 18.5429H66.4374V15.3256H70.1561C71.8065 15.3256 72.5378 15.9314 72.5378 16.9133V16.9551Z" fill="#F0B90B"/>
<path d="M95.1245 18.7798L93.4741 17.1085C92.2205 18.2784 91.0715 19.0097 89.2748 19.0097C86.4754 19.0097 84.4489 16.6698 84.4489 13.7867C84.4489 10.9037 86.4754 8.60562 89.2748 8.60562C90.9462 8.60562 92.1997 9.33683 93.3696 10.4232L95.02 8.52206C93.6203 7.185 91.9907 6.24487 89.2957 6.24487C84.8667 6.24487 81.7539 9.6502 81.7539 13.8285C81.7539 18.0486 84.9294 21.3704 89.1913 21.3704C91.9281 21.3704 93.5994 20.3675 95.1245 18.7798Z" fill="#F0B90B"/>
<path d="M107.582 14.9567V21.1197H110.151V6.49557H107.582V12.575H100.604V6.49557H98.0342V21.1197H100.604V14.9567H107.582Z" fill="#F0B90B"/>
<path d="M121.678 6.39113H119.297L112.862 21.1197H115.494L116.999 17.5891H123.914L125.398 21.1197H128.113L121.678 6.39113ZM122.974 15.3118H117.939L120.446 9.46219L122.974 15.3118Z" fill="#F0B90B"/>
<path d="M130.976 6.49557V21.1197H133.546V6.49557H130.976Z" fill="#F0B90B"/>
<path d="M147.886 16.6072L140.051 6.49557H137.669V21.1197H140.198V10.7157L148.261 21.1197H150.414V6.49557H147.886V16.6072Z" fill="#F0B90B"/>
</g>
<defs>
<clipPath id="clip0_158_42536">
<rect width="150" height="26.2774" fill="white" transform="translate(0.809082 0.861313)"/>
</clipPath>
</defs>
</svg>
