<?xml version="1.0" standalone="no"?>
<!DOCTYPE svg PUBLIC "-//W3C//DTD SVG 20010904//EN"
 "http://www.w3.org/TR/2001/REC-SVG-20010904/DTD/svg10.dtd">
<svg version="1.0" xmlns="http://www.w3.org/2000/svg"
 width="688.000000pt" height="688.000000pt" viewBox="0 0 688.000000 688.000000"
 preserveAspectRatio="xMidYMid meet">
<metadata>
Created by potrace 1.14, written by Peter Selinger 2001-2017
</metadata>
<g transform="translate(0.000000,688.000000) scale(0.100000,-0.100000)"
fill="#000000" stroke="none">
<path d="M3269 6636 c-2 -2 -33 -6 -69 -10 -84 -7 -175 -21 -210 -31 -8 -2
-31 -7 -50 -10 -77 -12 -301 -85 -415 -134 -39 -17 -171 -83 -215 -108 -51
-29 -242 -153 -250 -162 -3 -3 -41 -35 -85 -71 -96 -79 -201 -181 -281 -275
-32 -38 -65 -76 -71 -83 -7 -7 -13 -17 -13 -20 0 -4 -10 -18 -23 -32 -59 -66
-247 -390 -247 -427 0 -7 -4 -13 -9 -13 -5 0 -13 -14 -16 -32 -4 -18 -11 -39
-15 -48 -15 -28 -70 -185 -76 -215 -1 -5 -9 -37 -17 -70 -9 -33 -18 -72 -21
-87 -2 -15 -7 -31 -9 -35 -3 -5 -8 -37 -12 -73 -4 -36 -8 -67 -10 -70 -8 -15
-18 -183 -18 -305 0 -192 14 -327 54 -510 22 -102 92 -322 120 -377 11 -21 18
-38 15 -38 -7 0 126 -255 135 -258 5 -2 9 -8 9 -13 0 -13 107 -174 126 -190 8
-6 14 -17 14 -24 0 -8 3 -15 8 -17 4 -1 29 -30 57 -63 75 -91 231 -242 320
-313 44 -34 87 -68 95 -75 13 -11 67 -47 125 -84 11 -7 28 -16 38 -19 9 -3 17
-10 17 -14 0 -18 400 -200 440 -200 9 0 20 -4 26 -9 10 -10 187 -57 249 -67
22 -3 43 -8 46 -10 3 -1 34 -6 70 -10 35 -4 73 -10 84 -14 24 -9 496 -5 545 4
19 4 44 9 55 11 23 4 130 23 160 29 75 15 312 91 395 128 412 181 759 466
1001 823 59 86 96 147 95 155 -1 3 9 19 21 35 27 39 101 198 137 295 15 41 30
82 33 90 3 8 7 20 8 25 2 6 8 30 16 55 16 59 17 62 22 85 3 11 10 38 16 60 54
203 71 594 35 820 -2 17 -6 44 -8 60 -34 236 -140 545 -262 757 -214 372 -462
628 -839 865 -38 24 -135 73 -139 71 -2 -2 -12 4 -22 13 -24 20 -250 114 -324
134 -8 2 -31 9 -50 15 -30 9 -171 43 -234 56 -11 2 -42 6 -70 10 -28 3 -62 8
-76 10 -30 6 -426 15 -431 10z m431 -40 c14 -2 48 -7 75 -11 28 -4 60 -8 73
-10 12 -2 46 -9 75 -16 352 -83 666 -233 929 -444 141 -113 242 -214 367 -365
11 -14 25 -30 30 -36 19 -23 131 -191 151 -229 79 -140 107 -200 180 -380 8
-18 30 -87 37 -110 1 -5 7 -26 12 -45 29 -106 46 -185 57 -265 2 -22 7 -46 10
-54 22 -63 22 -484 0 -611 -3 -14 -7 -42 -10 -62 -3 -21 -10 -57 -15 -80 -6
-24 -12 -56 -15 -71 -3 -15 -12 -54 -21 -85 -10 -31 -18 -64 -20 -72 -12 -56
-118 -318 -155 -380 -5 -8 -21 -37 -36 -65 -14 -27 -39 -69 -55 -93 -16 -24
-29 -47 -29 -53 0 -5 -4 -9 -8 -9 -4 0 -16 -15 -26 -32 -64 -112 -308 -373
-445 -478 -18 -14 -38 -30 -44 -36 -82 -74 -363 -235 -512 -294 -38 -15 -79
-31 -90 -35 -11 -5 -22 -9 -25 -10 -3 -1 -39 -12 -80 -24 -131 -40 -209 -58
-335 -76 -22 -4 -48 -8 -57 -11 -10 -3 -19 -2 -19 3 -1 4 -3 131 -4 280 -1
242 0 273 14 274 25 1 58 8 145 30 45 12 86 22 91 24 6 1 19 5 30 9 11 5 45
17 75 28 327 123 630 371 827 677 47 74 143 264 143 284 0 7 5 18 12 25 16 16
11 19 -58 24 -132 11 -246 101 -287 228 -4 14 -10 52 -13 85 -8 101 -25 167
-57 229 -142 268 -502 321 -716 106 -86 -86 -122 -174 -135 -325 -6 -79 -11
-97 -38 -151 -28 -56 -91 -116 -155 -146 -64 -31 -198 -32 -258 -4 -89 43
-158 118 -185 201 -7 22 -15 73 -16 113 -4 89 -17 139 -54 214 -132 266 -498
325 -713 115 -76 -74 -131 -192 -136 -292 -8 -150 -23 -193 -94 -271 -48 -53
-131 -94 -199 -100 -81 -8 -80 -6 -52 -71 155 -358 395 -632 718 -822 82 -48
111 -62 201 -101 101 -44 288 -97 360 -102 l40 -3 0 205 0 205 -59 3 c-75 3
-115 25 -143 80 -48 95 21 205 127 204 85 -1 140 -66 140 -167 l0 -55 188 2
187 3 6 66 c8 96 56 150 137 151 109 1 179 -112 128 -210 -23 -45 -63 -66
-136 -72 l-65 -5 -1 -203 c-1 -212 -4 -226 -44 -219 -13 2 -16 36 -20 214 l-5
211 -185 -2 -185 -1 -3 -211 c-2 -178 0 -213 12 -217 8 -3 94 -5 190 -4 l176
2 0 -272 c0 -250 -1 -272 -17 -277 -23 -7 -332 -6 -349 1 -11 4 -14 57 -14
278 l0 273 -22 6 c-13 3 -28 6 -33 6 -7 0 -10 -98 -10 -277 0 -314 11 -280
-85 -269 -87 11 -328 69 -395 96 -11 4 -58 23 -105 41 -184 71 -468 236 -576
334 -6 6 -33 28 -60 50 -56 46 -203 193 -254 255 -19 23 -40 47 -45 54 -6 6
-26 33 -45 60 -19 27 -48 67 -63 89 -38 53 -107 167 -107 176 0 4 -6 13 -12
20 -7 6 -13 15 -13 19 -1 4 -10 25 -22 47 -59 114 -162 396 -178 490 -2 17 -7
40 -10 53 -3 12 -7 31 -9 41 -3 11 -8 41 -12 68 -3 26 -8 57 -10 68 -24 130
-23 482 1 607 3 13 7 43 10 68 3 24 13 74 21 110 9 36 17 75 20 86 8 41 72
229 108 317 81 201 219 424 372 603 81 95 224 234 304 294 18 14 42 33 54 42
11 10 26 21 31 25 82 65 351 215 465 260 113 45 264 95 326 107 11 3 40 9 67
15 26 6 64 14 85 17 20 3 42 7 49 9 7 2 45 7 85 11 40 3 75 8 77 10 5 4 411
-4 441 -10z"/>
<path d="M3377 6014 c-1 -1 -38 -4 -82 -8 -99 -7 -122 -10 -263 -40 -33 -7
-194 -58 -212 -67 -8 -4 -64 -31 -124 -59 -225 -106 -451 -288 -591 -473 -31
-42 -29 -47 27 -69 16 -5 28 -14 28 -19 0 -5 6 -9 14 -9 26 0 137 -131 171
-201 l33 -69 23 35 c48 71 148 125 239 129 101 5 192 -33 265 -111 l41 -43 13
37 c39 108 138 218 249 275 l71 36 -27 18 c-140 90 -180 297 -86 445 66 106
216 171 334 145 70 -15 149 -58 178 -97 7 -10 19 -25 28 -33 29 -30 57 -109
60 -175 5 -109 -46 -221 -126 -278 l-36 -26 70 -35 c109 -55 209 -168 252
-287 4 -11 6 -24 5 -30 -1 -5 16 9 39 33 115 118 254 148 391 83 50 -23 70
-40 117 -94 17 -21 32 -31 32 -23 0 28 68 145 112 192 38 42 138 116 171 127
26 8 -155 207 -283 312 -62 50 -161 118 -232 159 -98 57 -339 155 -419 170
-13 2 -35 7 -49 10 -101 24 -212 37 -338 40 -51 1 -93 2 -95 0z"/>
<path d="M3353 5893 c-93 -32 -172 -139 -175 -236 -3 -105 40 -184 134 -244
37 -23 54 -27 118 -27 73 0 107 5 133 20 117 71 168 207 122 332 -10 28 -23
52 -27 52 -4 0 -8 6 -8 13 -1 17 -89 82 -125 92 -53 14 -129 13 -172 -2z"/>
<path d="M3380 5312 c-61 -8 -181 -57 -200 -82 -3 -4 -15 -12 -27 -18 -32 -18
-109 -126 -132 -187 -27 -72 -32 -98 -32 -169 1 -112 -33 -190 -113 -264 l-55
-50 27 -7 c39 -9 118 -60 170 -108 48 -45 132 -179 132 -211 0 -15 7 -11 29
20 126 169 391 174 517 9 14 -19 31 -35 37 -35 6 0 8 3 4 6 -12 12 60 131 113
184 52 53 137 112 169 117 23 3 38 25 22 30 -27 11 -91 86 -118 140 -22 46
-27 72 -30 152 -6 161 -48 261 -150 357 -51 49 -151 100 -213 110 -39 6 -122
10 -150 6z"/>
<path d="M1999 5218 c-106 -171 -179 -346 -219 -526 -26 -121 -29 -138 -36
-217 -3 -38 -7 -85 -8 -102 -4 -37 1 -39 47 -20 18 7 64 13 102 12 92 -1 168
-35 235 -106 l49 -52 11 27 c5 15 10 31 10 35 0 17 85 129 128 169 26 24 76
57 112 75 l65 32 -60 60 c-71 70 -95 128 -102 238 -8 143 -48 236 -142 327
-45 44 -131 100 -155 100 -2 0 -19 -24 -37 -52z"/>
<path d="M4763 5231 c-139 -89 -203 -210 -217 -410 -8 -118 -58 -213 -142
-268 l-24 -16 26 -13 c14 -8 33 -14 40 -14 8 0 14 -3 14 -8 0 -4 13 -13 29
-20 48 -21 153 -134 186 -198 16 -32 30 -62 31 -66 1 -5 2 -11 3 -15 0 -4 12
8 25 27 23 35 97 100 113 100 4 0 22 7 38 16 40 21 146 26 204 8 61 -18 58
-19 55 24 -17 302 -100 575 -249 815 -25 39 -51 72 -59 73 -7 1 -40 -15 -73
-35z"/>
<path d="M2553 5075 c-26 -13 -61 -35 -77 -51 -35 -33 -77 -123 -79 -167 -5
-162 119 -290 274 -283 140 6 254 122 251 256 0 30 -3 62 -5 70 -38 156 -220
243 -364 175z"/>
<path d="M4150 5081 c-145 -47 -222 -184 -185 -326 25 -95 120 -180 214 -190
20 -2 42 -5 47 -6 27 -8 129 35 169 72 116 107 116 277 0 391 -52 52 -177 82
-245 59z"/>
<path d="M1835 4300 c-16 -4 -46 -14 -66 -22 -31 -14 -36 -20 -33 -44 1 -16 5
-60 9 -99 9 -111 15 -146 46 -267 19 -74 26 -88 43 -89 66 -5 92 -4 104 4 6 5
12 7 12 3 0 -18 103 49 133 86 68 84 79 187 29 288 -50 100 -173 163 -277 140z"/>
<path d="M3404 4298 c-3 -4 -10 -6 -15 -2 -16 10 -102 -37 -137 -75 -45 -48
-60 -79 -70 -143 -16 -100 27 -199 111 -257 174 -119 409 8 409 221 0 110 -81
221 -180 247 -55 15 -112 19 -118 9z"/>
<path d="M4988 4304 c-3 -3 -20 -6 -37 -6 -18 -1 -34 -5 -37 -10 -3 -4 -12 -8
-20 -8 -17 0 -31 -11 -81 -58 -107 -104 -98 -291 18 -384 55 -44 93 -59 159
-63 72 -4 82 9 110 141 28 133 29 139 36 239 3 44 7 86 9 92 5 15 -36 38 -85
48 -19 3 -42 8 -51 11 -8 2 -18 2 -21 -2z"/>
<path d="M3055 3225 c-24 -24 -31 -57 -19 -90 9 -24 58 -45 103 -45 44 0 51
10 46 70 -3 49 -3 47 -27 70 -30 27 -73 26 -103 -5z"/>
<path d="M3729 3237 c-25 -19 -36 -49 -35 -97 l1 -45 53 -1 c64 -2 90 16 98
68 5 30 2 41 -19 62 -28 28 -71 34 -98 13z"/>
<path d="M468 1485 c-2 -2 -20 -6 -40 -9 -93 -15 -178 -61 -260 -142 -53 -52
-123 -169 -133 -219 -2 -11 -4 -22 -6 -25 -1 -3 -3 -9 -4 -15 -2 -5 -4 -12 -5
-15 -9 -25 -12 -64 -15 -184 -2 -120 0 -151 21 -226 52 -197 161 -323 331
-382 68 -24 88 -26 182 -23 58 1 120 6 136 9 48 11 131 54 186 98 85 67 169
220 173 313 l1 40 -64 3 c-62 3 -83 -4 -87 -30 -1 -7 -12 -38 -23 -69 -57
-151 -172 -229 -332 -224 -100 3 -163 25 -226 81 -88 76 -133 195 -137 365 -7
253 83 427 254 494 105 40 268 19 355 -47 40 -30 105 -133 105 -166 0 -7 29
-11 79 -10 l79 1 -17 62 c-35 125 -112 218 -226 271 -38 18 -86 36 -105 40
-36 6 -217 14 -222 9z"/>
<path d="M3040 1482 c-13 -2 -65 -73 -79 -107 -2 -5 -22 -36 -43 -67 l-39 -58
57 0 57 0 56 62 c31 34 77 84 103 112 26 28 46 52 44 53 -4 4 -139 9 -156 5z"/>
<path d="M4409 1486 c-2 -2 -22 -6 -45 -9 -155 -22 -310 -139 -383 -292 -34
-70 -64 -171 -56 -185 3 -6 2 -10 -3 -10 -10 0 -8 -237 3 -290 12 -61 44 -142
76 -195 103 -170 265 -261 469 -263 75 0 111 4 196 22 61 13 167 78 220 136
61 65 72 81 103 143 44 90 62 168 66 287 4 134 -10 227 -47 314 -73 173 -211
290 -389 332 -28 7 -205 15 -210 10z m171 -150 c155 -34 277 -179 307 -366 7
-42 6 -185 -2 -221 -48 -242 -203 -374 -425 -364 -227 10 -377 191 -384 465
-5 169 48 308 153 403 39 36 121 84 121 71 0 -4 7 -1 15 6 8 6 18 9 23 7 4 -3
13 -2 20 2 14 9 125 7 172 -3z"/>
<path d="M2285 1458 c-91 -33 -118 -83 -120 -223 0 -80 -4 -100 -15 -101 -8
-1 -35 -2 -60 -3 l-45 -1 0 -57 1 -58 52 -1 c28 0 55 -4 59 -8 5 -4 9 -168 9
-364 1 -196 2 -360 3 -364 0 -3 31 -6 69 -5 l67 2 3 368 2 367 23 1 c12 1 43
1 69 1 l46 -1 4 38 c2 21 1 49 -2 62 -5 22 -10 23 -73 22 l-67 -2 0 70 c0 73
17 122 45 133 9 3 34 6 55 6 36 0 39 2 42 33 2 17 1 47 -1 65 l-3 32 -67 -1
c-36 0 -79 -5 -96 -11z"/>
<path d="M1416 1140 c-91 -29 -146 -76 -178 -157 -42 -104 -33 -114 92 -104 8
0 21 19 28 41 24 79 92 123 185 121 106 -2 176 -42 194 -111 20 -77 -14 -125
-97 -135 -98 -12 -117 -15 -170 -21 -74 -8 -168 -40 -207 -70 -18 -14 -45 -46
-60 -72 -24 -41 -28 -58 -28 -127 0 -86 14 -125 64 -178 46 -50 97 -70 188
-73 121 -4 200 23 287 99 l30 26 19 -44 c28 -65 94 -90 186 -71 33 7 33 9 34
63 l0 48 -36 0 c-20 1 -42 6 -48 12 -8 8 -11 99 -12 289 0 182 -4 289 -12 311
-18 53 -66 110 -111 132 -87 44 -243 53 -348 21z m328 -523 c-4 -90 -13 -114
-62 -165 -56 -57 -129 -84 -216 -81 -90 4 -132 44 -141 133 -9 93 59 141 230
162 65 8 149 26 165 34 19 11 26 -14 24 -83z"/>
<path d="M2847 1150 c-55 -14 -128 -54 -166 -91 -36 -37 -96 -119 -85 -119 3
0 2 -6 -4 -12 -9 -12 -27 -70 -39 -128 -9 -43 -5 -203 6 -253 27 -119 96 -209
198 -259 61 -30 75 -33 162 -33 108 0 161 6 161 17 0 4 8 8 18 8 22 0 89 44
126 84 27 29 66 103 81 154 6 21 4 22 -63 22 l-70 0 -22 -45 c-38 -79 -126
-126 -220 -119 -132 11 -205 86 -226 233 -5 35 -3 41 13 42 10 0 151 2 313 2
l295 2 0 55 c2 187 -89 356 -224 418 -62 29 -185 39 -254 22z m208 -146 c22
-12 52 -39 67 -60 28 -40 59 -139 51 -161 -4 -10 -61 -13 -240 -13 l-235 0 6
38 c10 51 50 133 81 163 62 58 193 74 270 33z"/>
<path d="M5553 1151 c-50 -13 -120 -58 -149 -96 -15 -20 -29 -33 -33 -30 -3 4
-6 30 -6 58 l0 52 -63 0 c-35 0 -66 -3 -68 -7 -4 -6 -6 -457 -4 -799 l0 -57
64 2 c35 0 68 4 72 9 4 4 8 130 9 280 2 268 2 273 27 327 52 115 160 165 273
126 55 -19 92 -66 101 -130 4 -28 7 -177 8 -331 l1 -280 70 0 70 0 -1 340 c0
324 -1 342 -22 387 -44 99 -122 148 -241 154 -42 2 -90 -1 -108 -5z"/>
<path d="M6430 1157 c-3 -3 -21 -9 -40 -12 -53 -9 -128 -55 -172 -105 -38 -42
-86 -128 -93 -168 -2 -9 -4 -17 -5 -17 -14 0 -20 -253 -8 -305 44 -187 181
-297 370 -298 174 -1 291 66 354 202 38 81 36 86 -45 86 -69 0 -69 0 -81 -32
-48 -141 -279 -179 -385 -64 -31 34 -59 105 -69 173 -3 26 0 32 18 35 11 1
153 3 315 2 l294 0 -6 90 c-4 50 -12 109 -18 131 -31 110 -118 218 -206 256
-46 20 -211 39 -223 26z m179 -152 c19 -9 44 -29 57 -43 25 -29 55 -107 61
-159 l3 -33 -233 0 c-129 0 -236 3 -239 6 -8 7 15 93 35 129 49 89 120 128
222 121 34 -2 76 -11 94 -21z"/>
</g>
</svg>
