<svg width="209" height="215" viewBox="0 0 209 215" fill="none" xmlns="http://www.w3.org/2000/svg">
<path d="M171.89 51.0208C171.308 51.5992 170.71 52.1719 170.095 52.7386C168.453 54.2541 166.7 55.727 164.849 57.1526C161.176 59.9816 157.119 62.6245 152.788 65.0455C149.225 67.0375 145.476 68.8792 141.601 70.5505C122.613 78.7413 100.62 82.8402 82.7652 80.4855C79.1714 80.0115 75.914 79.2984 73.0033 78.3743C67.1965 76.5308 62.7696 73.8479 59.805 70.5505C52.2676 62.1668 54.1824 49.8102 66.9024 37.1748C87.1332 17.0784 127.036 3.88667 156.027 7.71015C170.622 9.63487 179.669 15.5045 182.475 23.4231C183.96 27.615 183.697 32.381 181.581 37.4401C179.754 41.8089 176.546 46.3962 171.89 51.0208Z" fill="black"/>
<path d="M73.0033 78.3743C67.1965 76.5308 62.7696 73.8479 59.805 70.5505L72.6835 92.2988C70.9809 88.1606 71.0519 83.4225 73.0033 78.3743Z" fill="black"/>
<path d="M182.475 23.4231C183.96 27.615 183.697 32.381 181.581 37.4401C187.641 39.4759 192.122 42.4583 194.922 46.112L182.475 23.4231Z" fill="black"/>
<path fill-rule="evenodd" clip-rule="evenodd" d="M182.475 82.0835C179.268 84.7609 175.711 87.2866 171.89 89.6321L152.788 65.0455C149.225 67.0375 145.476 68.8792 141.601 70.5505L160.024 95.9622C140.552 104.967 117.33 109.608 98.658 107.146C84.6283 105.296 75.7601 99.7767 72.6835 92.2988C70.9809 88.1606 71.0519 83.4225 73.0033 78.3743C74.752 73.8501 78.011 69.0768 82.8571 64.263C102.882 44.3712 142.423 31.3196 171.175 35.1114C175.039 35.6211 178.513 36.4093 181.581 37.4401C187.641 39.4759 192.122 42.4583 194.922 46.112C201.25 54.3702 198.992 66.0576 186.976 77.9944L170.095 52.7386C168.453 54.2541 166.7 55.727 164.849 57.1526L182.475 82.0835Z" fill="black"/>
<path d="M167.294 92.2988C168.863 91.4386 170.397 90.5491 171.89 89.6321L152.788 65.0455C149.225 67.0375 145.476 68.8792 141.601 70.5505L160.024 95.9622C162.515 94.8106 164.944 93.5875 167.294 92.2988Z" fill="white"/>
<path d="M182.475 82.0835C184.065 80.7565 185.568 79.3923 186.976 77.9944L170.095 52.7386C168.453 54.2541 166.7 55.727 164.849 57.1526L182.475 82.0835Z" fill="white"/>
<ellipse cx="52.9485" cy="51.6324" rx="52.9485" ry="51.6324" transform="matrix(0.991415 0.13075 -0.70946 0.704745 103.409 0)" fill="white"/>
<path d="M152.367 10.6572C178.613 14.1188 185.029 31.67 166.73 49.8475C148.43 68.0248 112.324 79.9675 86.0776 76.5062C59.8313 73.0448 53.4155 55.4941 71.7144 37.3167C90.0136 19.1391 126.121 7.19581 152.367 10.6572Z" fill="white" stroke="black" stroke-width="0.742163"/>
<path d="M70.9028 36.9997C89.4235 18.9547 125.953 7.10945 152.494 10.5427C167.827 12.5262 176.471 19.1754 177.466 27.9167C174.265 21.6566 166.274 17.0682 153.983 15.4782C127.442 12.045 90.9128 23.8902 72.3921 41.9352C64.5705 49.5561 61.2113 57.0641 61.9399 63.4538C58.2278 56.1957 60.9584 46.6889 70.9028 36.9997Z" fill="black"/>
<mask id="path-5-outside-1_152_42399" maskUnits="userSpaceOnUse" x="67.5112" y="19.5992" width="103.844" height="49.5653" fill="black">
<rect fill="white" x="67.5112" y="19.5992" width="103.844" height="49.5653"/>
<path d="M89.2338 63.1817L146.345 24.8231L150.648 25.7792L93.5362 64.1378L89.2338 63.1817ZM137.299 40.1618C138.76 39.0241 139.253 37.9971 138.779 37.0807C138.337 36.1583 136.848 35.4153 134.312 34.8517C132.633 34.4786 131.048 34.2925 129.557 34.2935C128.065 34.2945 126.713 34.4526 125.499 34.7678C124.3 35.0729 123.275 35.5033 122.424 36.0588C121.705 36.5105 121.26 36.95 121.09 37.3774C120.936 37.8086 121 38.2349 121.281 38.6562C121.593 39.0714 122.091 39.4877 122.773 39.9051C123.455 40.3225 124.296 40.7422 125.297 41.1641L129.022 42.7895C131.19 43.7099 132.879 44.6702 134.09 45.6704C135.318 46.6746 136.058 47.7097 136.309 48.776C136.578 49.8461 136.335 50.9552 135.579 52.1035C134.824 53.2518 133.54 54.4422 131.729 55.6748C128.826 57.6088 125.492 59.0816 121.729 60.0931C117.965 61.1046 113.941 61.6262 109.658 61.6581C105.391 61.6938 101.02 61.2142 96.5423 60.2193C92.0475 59.2204 88.7025 57.9653 86.5072 56.4538C84.312 54.9423 83.4549 53.1964 83.9361 51.2161C84.4172 49.2358 86.4163 47.0412 89.9333 44.6321L102.368 47.3954C101.001 48.4077 100.237 49.3348 100.078 50.1767C99.9181 51.0187 100.302 51.7688 101.231 52.4272C102.177 53.0894 103.603 53.6323 105.509 54.0559C107.258 54.4446 108.946 54.6401 110.572 54.6424C112.215 54.6487 113.726 54.4859 115.104 54.1541C116.483 53.8223 117.642 53.3487 118.581 52.7332C119.427 52.15 119.848 51.5856 119.846 51.04C119.858 50.4844 119.449 49.9149 118.619 49.3315C117.82 48.742 116.635 48.0998 115.063 47.4048L110.564 45.408C106.82 43.7648 104.62 41.9667 103.967 40.0135C103.329 38.0503 104.751 35.907 108.234 33.5834C111.042 31.6815 114.411 30.2165 118.339 29.1884C122.267 28.1602 126.418 27.6003 130.791 27.5085C135.164 27.4167 139.387 27.8236 143.463 28.7292C147.625 29.6542 150.634 30.8613 152.49 32.3506C154.378 33.8337 155.093 35.488 154.633 37.3134C154.172 39.1389 152.54 41.0094 149.734 42.9252L137.299 40.1618Z"/>
</mask>
<path d="M89.2338 63.1817L146.345 24.8231L150.648 25.7792L93.5362 64.1378L89.2338 63.1817ZM137.299 40.1618C138.76 39.0241 139.253 37.9971 138.779 37.0807C138.337 36.1583 136.848 35.4153 134.312 34.8517C132.633 34.4786 131.048 34.2925 129.557 34.2935C128.065 34.2945 126.713 34.4526 125.499 34.7678C124.3 35.0729 123.275 35.5033 122.424 36.0588C121.705 36.5105 121.26 36.95 121.09 37.3774C120.936 37.8086 121 38.2349 121.281 38.6562C121.593 39.0714 122.091 39.4877 122.773 39.9051C123.455 40.3225 124.296 40.7422 125.297 41.1641L129.022 42.7895C131.19 43.7099 132.879 44.6702 134.09 45.6704C135.318 46.6746 136.058 47.7097 136.309 48.776C136.578 49.8461 136.335 50.9552 135.579 52.1035C134.824 53.2518 133.54 54.4422 131.729 55.6748C128.826 57.6088 125.492 59.0816 121.729 60.0931C117.965 61.1046 113.941 61.6262 109.658 61.6581C105.391 61.6938 101.02 61.2142 96.5423 60.2193C92.0475 59.2204 88.7025 57.9653 86.5072 56.4538C84.312 54.9423 83.4549 53.1964 83.9361 51.2161C84.4172 49.2358 86.4163 47.0412 89.9333 44.6321L102.368 47.3954C101.001 48.4077 100.237 49.3348 100.078 50.1767C99.9181 51.0187 100.302 51.7688 101.231 52.4272C102.177 53.0894 103.603 53.6323 105.509 54.0559C107.258 54.4446 108.946 54.6401 110.572 54.6424C112.215 54.6487 113.726 54.4859 115.104 54.1541C116.483 53.8223 117.642 53.3487 118.581 52.7332C119.427 52.15 119.848 51.5856 119.846 51.04C119.858 50.4844 119.449 49.9149 118.619 49.3315C117.82 48.742 116.635 48.0998 115.063 47.4048L110.564 45.408C106.82 43.7648 104.62 41.9667 103.967 40.0135C103.329 38.0503 104.751 35.907 108.234 33.5834C111.042 31.6815 114.411 30.2165 118.339 29.1884C122.267 28.1602 126.418 27.6003 130.791 27.5085C135.164 27.4167 139.387 27.8236 143.463 28.7292C147.625 29.6542 150.634 30.8613 152.49 32.3506C154.378 33.8337 155.093 35.488 154.633 37.3134C154.172 39.1389 152.54 41.0094 149.734 42.9252L137.299 40.1618Z" fill="black"/>
<path d="M89.2338 63.1817L88.7923 63.0836L88.4168 63.3357L88.8583 63.4338L89.2338 63.1817ZM146.345 24.8231L146.721 24.571L146.279 24.4729L145.904 24.725L146.345 24.8231ZM150.648 25.7792L151.089 25.8773L151.465 25.6252L151.023 25.5271L150.648 25.7792ZM93.5362 64.1378L93.1607 64.3899L93.6022 64.488L93.9776 64.2359L93.5362 64.1378ZM137.299 40.1618L136.825 40.087L136.52 40.3244L136.923 40.414L137.299 40.1618ZM138.779 37.0807L138.21 37.2171L138.212 37.2204L138.779 37.0807ZM129.557 34.2935L129.746 34.023L129.746 34.023L129.557 34.2935ZM125.499 34.7678L125.629 34.997L125.635 34.9954L125.499 34.7678ZM122.424 36.0588L122.849 36.1678L122.859 36.1614L122.424 36.0588ZM121.09 37.3774L120.52 37.4173L120.518 37.423L121.09 37.3774ZM121.281 38.6562L120.72 38.8077L120.725 38.8141L121.281 38.6562ZM122.773 39.9051L123.275 39.7006L122.773 39.9051ZM125.297 41.1641L125.761 40.9399L125.757 40.9381L125.297 41.1641ZM129.022 42.7895L128.558 43.0136L128.562 43.0151L129.022 42.7895ZM134.09 45.6704L133.561 45.8562L133.562 45.8569L134.09 45.6704ZM136.309 48.776L135.733 48.8897L135.733 48.8912L136.309 48.776ZM135.579 52.1035L135.028 52.1094L135.579 52.1035ZM131.729 55.6748L132.168 55.7742L132.173 55.7708L131.729 55.6748ZM121.729 60.0931L121.581 59.8683L121.729 60.0931ZM109.658 61.6581L109.839 61.3876L109.838 61.3876L109.658 61.6581ZM86.5072 56.4538L87.0205 56.2566L86.5072 56.4538ZM89.9333 44.6321L90.3087 44.3799L89.8617 44.2806L89.4872 44.5371L89.9333 44.6321ZM102.368 47.3954L102.832 47.4781L103.159 47.2356L102.744 47.1433L102.368 47.3954ZM100.078 50.1767L99.5003 50.2431L100.078 50.1767ZM101.231 52.4272L100.715 52.6225L100.716 52.6233L101.231 52.4272ZM110.572 54.6424L110.766 54.3719L110.763 54.3719L110.572 54.6424ZM115.104 54.1541L114.991 53.9207L115.104 54.1541ZM118.581 52.7332L119.017 52.8354L119.023 52.8312L119.029 52.827L118.581 52.7332ZM119.846 51.04L119.266 51.126L119.266 51.1291L119.846 51.04ZM118.619 49.3315L118.099 49.5243L118.103 49.5275L118.619 49.3315ZM115.063 47.4048L114.597 47.628L114.598 47.6282L115.063 47.4048ZM110.564 45.408L111.03 45.1848L111.029 45.1841L110.564 45.408ZM103.967 40.0135L103.393 40.1359L103.393 40.1368L103.967 40.0135ZM108.234 33.5834L108.674 33.6825L108.678 33.6801L108.234 33.5834ZM118.339 29.1884L118.2 28.9614L118.339 29.1884ZM130.791 27.5085L130.625 27.7788L130.791 27.5085ZM152.49 32.3506L151.964 32.5382L151.966 32.5395L152.49 32.3506ZM154.632 37.3134L155.208 37.2548L154.632 37.3134ZM149.734 42.9252L149.358 43.1773L149.804 43.2765L150.179 43.0206L149.734 42.9252ZM89.2338 63.1817L89.6752 63.2798L146.787 24.9213L146.345 24.8231L145.904 24.725L88.7923 63.0836L89.2338 63.1817ZM146.345 24.8231L145.97 25.0753L150.272 26.0314L150.648 25.7792L151.023 25.5271L146.721 24.571L146.345 24.8231ZM150.648 25.7792L150.206 25.6811L93.0947 64.0397L93.5362 64.1378L93.9776 64.2359L151.089 25.8773L150.648 25.7792ZM93.5362 64.1378L93.9116 63.8856L89.6092 62.9295L89.2338 63.1817L88.8583 63.4338L93.1607 64.3899L93.5362 64.1378ZM137.299 40.1618L137.772 40.2367C139.315 39.0353 139.857 37.9292 139.346 36.9411L138.779 37.0807L138.212 37.2204C138.649 38.065 138.204 39.013 136.825 40.087L137.299 40.1618ZM138.779 37.0807L139.347 36.9444C138.871 35.9498 137.279 35.1755 134.687 34.5995L134.312 34.8517L133.936 35.1039C136.417 35.655 137.803 36.3668 138.21 37.2171L138.779 37.0807ZM134.312 34.8517L134.687 34.5995C132.974 34.2187 131.326 34.0219 129.746 34.023L129.557 34.2935L129.368 34.5641C130.769 34.5632 132.292 34.7385 133.936 35.1039L134.312 34.8517ZM129.557 34.2935L129.746 34.023C128.177 34.024 126.709 34.1905 125.363 34.5401L125.499 34.7678L125.635 34.9954C126.716 34.7147 127.954 34.565 129.368 34.5641L129.557 34.2935ZM125.499 34.7678L125.369 34.5385C124.046 34.8751 122.916 35.3508 121.99 35.9562L122.424 36.0588L122.859 36.1614C123.633 35.6557 124.553 35.2707 125.629 34.997L125.499 34.7678ZM122.424 36.0588L122 35.9498C121.217 36.4415 120.714 36.9326 120.52 37.4173L121.09 37.3774L121.659 37.3375C121.807 36.9675 122.194 36.5795 122.849 36.1677L122.424 36.0588ZM121.09 37.3774L120.518 37.423C120.349 37.8978 120.422 38.3596 120.721 38.8077L121.281 38.6562L121.84 38.5047C121.578 38.1101 121.524 37.7194 121.661 37.3318L121.09 37.3774ZM121.281 38.6562L120.725 38.8141C121.054 39.25 121.571 39.6816 122.271 40.1096L122.773 39.9051L123.275 39.7006C122.61 39.2938 122.133 38.8927 121.836 38.4982L121.281 38.6562ZM122.773 39.9051L122.271 40.1096C122.968 40.5362 123.824 40.9629 124.838 41.3901L125.297 41.1641L125.757 40.9381C124.768 40.5215 123.942 40.1089 123.275 39.7006L122.773 39.9051ZM125.297 41.1641L124.834 41.3882L128.558 43.0136L129.022 42.7895L129.486 42.5653L125.761 40.9399L125.297 41.1641ZM129.022 42.7895L128.562 43.0151C130.708 43.9264 132.372 44.8738 133.561 45.8562L134.09 45.6704L134.618 45.4846C133.386 44.4666 131.672 43.4934 129.483 42.5639L129.022 42.7895ZM134.09 45.6704L133.562 45.8569C134.769 46.8434 135.489 47.8545 135.733 48.8897L136.309 48.776L136.886 48.6623C136.627 47.5649 135.867 46.5058 134.617 45.484L134.09 45.6704ZM136.309 48.776L135.733 48.8912C135.993 49.9281 135.758 51.0001 135.028 52.1094L135.579 52.1035L136.131 52.0977C136.912 50.9104 137.163 49.764 136.885 48.6607L136.309 48.776ZM135.579 52.1035L135.028 52.1094C134.299 53.2181 133.055 54.3739 131.284 55.5787L131.729 55.6748L132.173 55.7708C134.026 54.5105 135.35 53.2855 136.131 52.0977L135.579 52.1035ZM131.729 55.6748L131.289 55.5754C128.451 57.466 125.216 58.8916 121.581 59.8683L121.729 60.0931L121.876 60.3178C125.769 59.2715 129.2 57.7516 132.168 55.7742L131.729 55.6748ZM121.729 60.0931L121.581 59.8683C117.942 60.8463 114.034 61.3564 109.839 61.3876L109.658 61.6581L109.476 61.9286C113.849 61.8961 117.987 61.3628 121.876 60.3178L121.729 60.0931ZM109.658 61.6581L109.838 61.3876C105.662 61.4226 101.355 60.9531 96.9178 59.9671L96.5423 60.2193L96.1669 60.4714C100.685 61.4754 105.121 61.9651 109.477 61.9286L109.658 61.6581ZM96.5423 60.2193L96.9178 59.9671C92.466 58.9778 89.1739 57.7393 87.0205 56.2566L86.5072 56.4538L85.994 56.651C88.2311 58.1913 91.6291 59.463 96.1669 60.4714L96.5423 60.2193ZM86.5072 56.4538L87.0205 56.2566C84.874 54.7787 84.0448 53.0794 84.512 51.1563L83.9361 51.2161L83.3601 51.2759C82.865 53.3134 83.7499 55.1059 85.994 56.651L86.5072 56.4538ZM83.9361 51.2161L84.512 51.1563C84.9777 49.2397 86.9154 47.0998 90.3794 44.727L89.9333 44.6321L89.4872 44.5371C85.9172 46.9825 83.8567 49.232 83.3601 51.2759L83.9361 51.2161ZM89.9333 44.6321L89.5579 44.8843L101.993 47.6476L102.368 47.3954L102.744 47.1433L90.3087 44.3799L89.9333 44.6321ZM102.368 47.3954L101.905 47.3127C100.487 48.3624 99.6711 49.342 99.5003 50.2431L100.078 50.1767L100.655 50.1104C100.803 49.3275 101.515 48.4529 102.832 47.4781L102.368 47.3954ZM100.078 50.1767L99.5003 50.2431C99.3305 51.1389 99.742 51.9325 100.715 52.6225L101.231 52.4272L101.747 52.2318C100.863 51.6051 100.506 50.8985 100.655 50.1104L100.078 50.1767ZM101.231 52.4272L100.716 52.6233C101.703 53.3144 103.182 53.8744 105.134 54.3081L105.509 54.0559L105.885 53.8038C104.024 53.3902 102.65 52.8644 101.746 52.231L101.231 52.4272ZM105.509 54.0559L105.134 54.3081C106.92 54.705 108.669 54.9105 110.38 54.913L110.572 54.6424L110.763 54.3719C109.223 54.3696 107.596 54.1841 105.885 53.8038L105.509 54.0559ZM110.572 54.6424L110.378 54.913C112.096 54.9195 113.714 54.7493 115.217 54.3875L115.104 54.1541L114.991 53.9207C113.737 54.2225 112.334 54.3778 110.766 54.3719L110.572 54.6424ZM115.104 54.1541L115.217 54.3875C116.723 54.0252 117.994 53.5051 119.017 52.8354L118.581 52.7332L118.146 52.6311C117.289 53.1922 116.243 53.6193 114.991 53.9207L115.104 54.1541ZM118.581 52.7332L119.029 52.827C119.953 52.1896 120.428 51.5604 120.425 50.9509L119.846 51.04L119.266 51.1291C119.268 51.6107 118.9 52.1103 118.133 52.6395L118.581 52.7332ZM119.846 51.04L120.425 50.9539C120.439 50.3421 119.99 49.7368 119.134 49.1356L118.619 49.3315L118.103 49.5275C118.909 50.093 119.277 50.6266 119.266 51.126L119.846 51.04ZM118.619 49.3315L119.138 49.1387C118.319 48.534 117.113 47.8816 115.529 47.1813L115.063 47.4048L114.598 47.6282C116.158 48.3179 117.322 48.95 118.099 49.5243L118.619 49.3315ZM115.063 47.4048L115.529 47.1815L111.03 45.1848L110.564 45.408L110.098 45.6312L114.597 47.628L115.063 47.4048ZM110.564 45.408L111.029 45.1841C107.324 43.5583 105.177 41.7917 104.541 39.8902L103.967 40.0135L103.393 40.1368C104.064 42.1416 106.315 43.9713 110.1 45.6318L110.564 45.408ZM103.967 40.0135L104.541 39.8911C103.929 38.0066 105.283 35.9449 108.674 33.6825L108.234 33.5834L107.794 33.4842C104.22 35.869 102.729 38.0941 103.393 40.1359L103.967 40.0135ZM108.234 33.5834L108.678 33.6801C111.413 31.8273 114.678 30.4099 118.478 29.4154L118.339 29.1884L118.2 28.9614C114.143 30.0232 110.671 31.5357 107.791 33.4866L108.234 33.5834ZM118.339 29.1884L118.478 29.4154C122.293 28.4168 126.338 27.8688 130.625 27.7788L130.791 27.5085L130.957 27.2382C126.498 27.3318 122.241 27.9037 118.2 28.9614L118.339 29.1884ZM130.791 27.5085L130.625 27.7788C134.908 27.6889 139.063 28.087 143.087 28.9813L143.463 28.7292L143.838 28.477C139.712 27.5602 135.419 27.1445 130.957 27.2382L130.791 27.5085ZM143.463 28.7292L143.087 28.9813C147.2 29.8953 150.151 31.083 151.964 32.5382L152.49 32.3506L153.016 32.1629C151.118 30.6396 148.05 29.413 143.838 28.477L143.463 28.7292ZM152.49 32.3506L151.966 32.5395C153.813 33.9907 154.503 35.601 154.057 37.3721L154.632 37.3134L155.208 37.2548C155.682 35.375 154.944 33.6768 153.015 32.1616L152.49 32.3506ZM154.632 37.3134L154.057 37.3721C153.611 39.1413 152.029 40.9583 149.288 42.8297L149.734 42.9252L150.179 43.0206C153.05 41.0605 154.734 39.1364 155.208 37.2548L154.632 37.3134ZM149.734 42.9252L150.109 42.673L137.674 39.9097L137.299 40.1618L136.923 40.414L149.358 43.1773L149.734 42.9252Z" fill="black" mask="url(#path-5-outside-1_152_42399)"/>
<mask id="path-7-outside-2_152_42399" maskUnits="userSpaceOnUse" x="67.0581" y="17.338" width="103.844" height="49.5653" fill="black">
<rect fill="white" x="67.0581" y="17.338" width="103.844" height="49.5653"/>
<path d="M88.7806 60.9204L145.892 22.5619L150.195 23.518L93.083 61.8765L88.7806 60.9204ZM136.846 37.9006C138.307 36.7629 138.8 35.7359 138.326 34.8195C137.884 33.897 136.395 33.154 133.859 32.5905C132.18 32.2174 130.595 32.0313 129.104 32.0323C127.612 32.0333 126.26 32.1914 125.046 32.5065C123.846 32.8117 122.822 33.242 121.971 33.7975C121.252 34.2493 120.807 34.6888 120.637 35.1162C120.483 35.5474 120.547 35.9737 120.827 36.3949C121.14 36.8101 121.638 37.2264 122.32 37.6439C123.002 38.0613 123.843 38.481 124.844 38.9028L128.569 40.5282C130.737 41.4486 132.426 42.409 133.637 43.4092C134.865 44.4133 135.605 45.4485 135.856 46.5147C136.125 47.5848 135.882 48.694 135.126 49.8423C134.371 50.9906 133.087 52.181 131.275 53.4136C128.373 55.3476 125.039 56.8203 121.276 57.8318C117.512 58.8433 113.488 59.365 109.204 59.3969C104.938 59.4326 100.566 58.953 96.0892 57.958C91.5944 56.9592 88.2494 55.704 86.0541 54.1925C83.8588 52.681 83.0018 50.9352 83.4829 48.9549C83.9641 46.9746 85.9632 44.7799 89.4802 42.3709L101.915 45.1342C100.548 46.1464 99.7841 47.0735 99.6245 47.9155C99.4649 48.7575 99.8494 49.5076 100.778 50.1659C101.724 50.8281 103.15 51.3711 105.056 51.7947C106.805 52.1833 108.493 52.3788 110.118 52.3812C111.762 52.3874 113.273 52.2247 114.651 51.8929C116.03 51.5611 117.189 51.0875 118.128 50.472C118.973 49.8887 119.395 49.3243 119.392 48.7787C119.405 48.2232 118.996 47.6537 118.165 47.0703C117.367 46.4808 116.182 45.8385 114.61 45.1435L110.111 43.1468C106.366 41.5036 104.167 39.7054 103.514 37.7523C102.876 35.7891 104.298 33.6457 107.781 31.3221C110.589 29.4203 113.958 27.9553 117.886 26.9272C121.814 25.899 125.965 25.3391 130.337 25.2473C134.71 25.1555 138.934 25.5624 143.009 26.4679C147.172 27.3929 150.181 28.6001 152.037 30.0893C153.925 31.5725 154.639 33.2268 154.179 35.0522C153.719 36.8776 152.086 38.7482 149.281 40.6639L136.846 37.9006Z"/>
</mask>
<path d="M88.7806 60.9204L145.892 22.5619L150.195 23.518L93.083 61.8765L88.7806 60.9204ZM136.846 37.9006C138.307 36.7629 138.8 35.7359 138.326 34.8195C137.884 33.897 136.395 33.154 133.859 32.5905C132.18 32.2174 130.595 32.0313 129.104 32.0323C127.612 32.0333 126.26 32.1914 125.046 32.5065C123.846 32.8117 122.822 33.242 121.971 33.7975C121.252 34.2493 120.807 34.6888 120.637 35.1162C120.483 35.5474 120.547 35.9737 120.827 36.3949C121.14 36.8101 121.638 37.2264 122.32 37.6439C123.002 38.0613 123.843 38.481 124.844 38.9028L128.569 40.5282C130.737 41.4486 132.426 42.409 133.637 43.4092C134.865 44.4133 135.605 45.4485 135.856 46.5147C136.125 47.5848 135.882 48.694 135.126 49.8423C134.371 50.9906 133.087 52.181 131.275 53.4136C128.373 55.3476 125.039 56.8203 121.276 57.8318C117.512 58.8433 113.488 59.365 109.204 59.3969C104.938 59.4326 100.566 58.953 96.0892 57.958C91.5944 56.9592 88.2494 55.704 86.0541 54.1925C83.8588 52.681 83.0018 50.9352 83.4829 48.9549C83.9641 46.9746 85.9632 44.7799 89.4802 42.3709L101.915 45.1342C100.548 46.1464 99.7841 47.0735 99.6245 47.9155C99.4649 48.7575 99.8494 49.5076 100.778 50.1659C101.724 50.8281 103.15 51.3711 105.056 51.7947C106.805 52.1833 108.493 52.3788 110.118 52.3812C111.762 52.3874 113.273 52.2247 114.651 51.8929C116.03 51.5611 117.189 51.0875 118.128 50.472C118.973 49.8887 119.395 49.3243 119.392 48.7787C119.405 48.2232 118.996 47.6537 118.165 47.0703C117.367 46.4808 116.182 45.8385 114.61 45.1435L110.111 43.1468C106.366 41.5036 104.167 39.7054 103.514 37.7523C102.876 35.7891 104.298 33.6457 107.781 31.3221C110.589 29.4203 113.958 27.9553 117.886 26.9272C121.814 25.899 125.965 25.3391 130.337 25.2473C134.71 25.1555 138.934 25.5624 143.009 26.4679C147.172 27.3929 150.181 28.6001 152.037 30.0893C153.925 31.5725 154.639 33.2268 154.179 35.0522C153.719 36.8776 152.086 38.7482 149.281 40.6639L136.846 37.9006Z" fill="#C7EF6B"/>
<path d="M88.7806 60.9204L88.3392 60.8223L87.9637 61.0745L88.4052 61.1726L88.7806 60.9204ZM145.892 22.5619L146.268 22.3098L145.826 22.2117L145.451 22.4638L145.892 22.5619ZM150.195 23.518L150.636 23.6161L151.012 23.364L150.57 23.2658L150.195 23.518ZM93.083 61.8765L92.7076 62.1287L93.1491 62.2268L93.5245 61.9746L93.083 61.8765ZM136.846 37.9006L136.372 37.8257L136.067 38.0632L136.47 38.1528L136.846 37.9006ZM138.326 34.8195L137.757 34.9559L137.759 34.9591L138.326 34.8195ZM129.104 32.0323L129.293 31.7617L129.293 31.7617L129.104 32.0323ZM125.046 32.5065L125.176 32.7358L125.182 32.7342L125.046 32.5065ZM121.971 33.7975L122.396 33.9065L122.406 33.9001L121.971 33.7975ZM120.637 35.1162L120.067 35.1561L120.065 35.1618L120.637 35.1162ZM120.827 36.3949L120.267 36.5465L120.272 36.5529L120.827 36.3949ZM122.32 37.6439L122.822 37.4394L122.32 37.6439ZM124.844 38.9028L125.308 38.6787L125.304 38.6768L124.844 38.9028ZM128.569 40.5282L128.105 40.7524L128.109 40.7538L128.569 40.5282ZM133.637 43.4092L133.108 43.595L133.109 43.5957L133.637 43.4092ZM135.856 46.5147L135.279 46.6284L135.28 46.63L135.856 46.5147ZM135.126 49.8423L134.575 49.8481L135.126 49.8423ZM131.275 53.4136L131.715 53.513L131.72 53.5096L131.275 53.4136ZM121.276 57.8318L121.128 57.6071L121.276 57.8318ZM109.204 59.3969L109.386 59.1263L109.385 59.1263L109.204 59.3969ZM86.0541 54.1925L86.5674 53.9954L86.0541 54.1925ZM89.4802 42.3709L89.8556 42.1187L89.4086 42.0194L89.034 42.2759L89.4802 42.3709ZM101.915 45.1342L102.379 45.2169L102.706 44.9744L102.291 44.882L101.915 45.1342ZM99.6245 47.9155L99.0471 47.9819L99.6245 47.9155ZM100.778 50.1659L100.262 50.3613L100.263 50.3621L100.778 50.1659ZM110.118 52.3812L110.312 52.1106L110.31 52.1106L110.118 52.3812ZM114.651 51.8929L114.538 51.6594L114.651 51.8929ZM118.128 50.472L118.564 50.5742L118.57 50.57L118.576 50.5658L118.128 50.472ZM119.392 48.7787L118.813 48.8648L118.813 48.8678L119.392 48.7787ZM118.165 47.0703L117.646 47.2631L117.65 47.2662L118.165 47.0703ZM114.61 45.1435L114.144 45.3667L114.144 45.367L114.61 45.1435ZM110.111 43.1468L110.577 42.9235L110.576 42.9229L110.111 43.1468ZM103.514 37.7523L102.94 37.8747L102.94 37.8755L103.514 37.7523ZM107.781 31.3221L108.221 31.4213L108.224 31.4189L107.781 31.3221ZM117.886 26.9272L117.747 26.7002L117.886 26.9272ZM130.337 25.2473L130.171 25.5176L130.337 25.2473ZM152.037 30.0893L151.511 30.277L151.513 30.2783L152.037 30.0893ZM154.179 35.0522L154.755 34.9936L154.179 35.0522ZM149.281 40.6639L148.905 40.9161L149.351 41.0152L149.726 40.7594L149.281 40.6639ZM88.7806 60.9204L89.2221 61.0186L146.334 22.66L145.892 22.5619L145.451 22.4638L88.3392 60.8223L88.7806 60.9204ZM145.892 22.5619L145.517 22.8141L149.819 23.7702L150.195 23.518L150.57 23.2658L146.268 22.3098L145.892 22.5619ZM150.195 23.518L149.753 23.4199L92.6415 61.7784L93.083 61.8765L93.5245 61.9746L150.636 23.6161L150.195 23.518ZM93.083 61.8765L93.4585 61.6244L89.1561 60.6683L88.7806 60.9204L88.4052 61.1726L92.7076 62.1287L93.083 61.8765ZM136.846 37.9006L137.319 37.9755C138.862 36.774 139.404 35.668 138.893 34.6799L138.326 34.8195L137.759 34.9591C138.196 35.8038 137.751 36.7518 136.372 37.8257L136.846 37.9006ZM138.326 34.8195L138.894 34.6832C138.418 33.6885 136.826 32.9143 134.234 32.3383L133.859 32.5905L133.483 32.8426C135.963 33.3938 137.35 34.1055 137.757 34.9559L138.326 34.8195ZM133.859 32.5905L134.234 32.3383C132.52 31.9575 130.873 31.7607 129.293 31.7617L129.104 32.0323L128.914 32.3029C130.316 32.3019 131.839 32.4772 133.483 32.8426L133.859 32.5905ZM129.104 32.0323L129.293 31.7617C127.724 31.7628 126.256 31.9293 124.909 32.2789L125.046 32.5065L125.182 32.7342C126.263 32.4535 127.501 32.3038 128.914 32.3029L129.104 32.0323ZM125.046 32.5065L124.916 32.2773C123.593 32.6139 122.463 33.0896 121.537 33.6949L121.971 33.7975L122.406 33.9001C123.18 33.3944 124.1 33.0095 125.176 32.7358L125.046 32.5065ZM121.971 33.7975L121.547 33.6886C120.764 34.1802 120.261 34.6713 120.067 35.1561L120.637 35.1162L121.206 35.0762C121.354 34.7063 121.741 34.3183 122.396 33.9065L121.971 33.7975ZM120.637 35.1162L120.065 35.1618C119.896 35.6366 119.969 36.0984 120.267 36.5464L120.827 36.3949L121.387 36.2435C121.125 35.8489 121.07 35.4582 121.208 35.0706L120.637 35.1162ZM120.827 36.3949L120.272 36.5529C120.6 36.9888 121.118 37.4203 121.818 37.8483L122.32 37.6439L122.822 37.4394C122.157 37.0325 121.68 36.6315 121.383 36.237L120.827 36.3949ZM122.32 37.6439L121.818 37.8483C122.515 38.2749 123.371 38.7017 124.385 39.1288L124.844 38.9028L125.304 38.6768C124.315 38.2602 123.489 37.8476 122.822 37.4394L122.32 37.6439ZM124.844 38.9028L124.38 39.127L128.105 40.7524L128.569 40.5282L129.033 40.3041L125.308 38.6787L124.844 38.9028ZM128.569 40.5282L128.109 40.7538C130.255 41.6651 131.919 42.6126 133.108 43.595L133.637 43.4092L134.165 43.2234C132.933 42.2054 131.219 41.2321 129.03 40.3026L128.569 40.5282ZM133.637 43.4092L133.109 43.5957C134.316 44.5821 135.035 45.5933 135.279 46.6284L135.856 46.5147L136.433 46.401C136.174 45.3037 135.414 44.2445 134.164 43.2227L133.637 43.4092ZM135.856 46.5147L135.28 46.63C135.54 47.6668 135.304 48.7389 134.575 49.8481L135.126 49.8423L135.678 49.8365C136.459 48.6492 136.709 47.5028 136.432 46.3995L135.856 46.5147ZM135.126 49.8423L134.575 49.8481C133.845 50.9569 132.602 52.1127 130.831 53.3175L131.275 53.4136L131.72 53.5096C133.573 52.2493 134.896 51.0243 135.678 49.8365L135.126 49.8423ZM131.275 53.4136L130.836 53.3141C127.998 55.2047 124.763 56.6304 121.128 57.6071L121.276 57.8318L121.423 58.0566C125.316 57.0103 128.747 55.4904 131.715 53.513L131.275 53.4136ZM121.276 57.8318L121.128 57.6071C117.489 58.5851 113.581 59.0951 109.386 59.1263L109.204 59.3969L109.023 59.6674C113.396 59.6349 117.534 59.1016 121.423 58.0566L121.276 57.8318ZM109.204 59.3969L109.385 59.1263C105.208 59.1613 100.901 58.6919 96.4646 57.7059L96.0892 57.958L95.7138 58.2102C100.232 59.2141 104.668 59.7039 109.024 59.6674L109.204 59.3969ZM96.0892 57.958L96.4646 57.7059C92.0129 56.7166 88.7208 55.478 86.5674 53.9954L86.0541 54.1925L85.5408 54.3897C87.778 55.9301 91.1759 57.2018 95.7138 58.2102L96.0892 57.958ZM86.0541 54.1925L86.5674 53.9954C84.4209 52.5174 83.5917 50.8182 84.0589 48.8951L83.4829 48.9549L82.907 49.0147C82.4119 51.0522 83.2968 52.8447 85.5408 54.3897L86.0541 54.1925ZM83.4829 48.9549L84.0589 48.8951C84.5246 46.9785 86.4623 44.8386 89.9263 42.4658L89.4802 42.3709L89.034 42.2759C85.464 44.7213 83.4036 46.9707 82.907 49.0147L83.4829 48.9549ZM89.4802 42.3709L89.1047 42.623L101.54 45.3864L101.915 45.1342L102.291 44.882L89.8556 42.1187L89.4802 42.3709ZM101.915 45.1342L101.452 45.0515C100.034 46.1012 99.2179 47.0808 99.0471 47.9819L99.6245 47.9155L100.202 47.8491C100.35 47.0663 101.062 46.1917 102.379 45.2169L101.915 45.1342ZM99.6245 47.9155L99.0471 47.9819C98.8773 48.8776 99.2889 49.6713 100.262 50.3613L100.778 50.1659L101.294 49.9706C100.41 49.3439 100.053 48.6373 100.202 47.8491L99.6245 47.9155ZM100.778 50.1659L100.263 50.3621C101.25 51.0531 102.729 51.6131 104.681 52.0469L105.056 51.7947L105.432 51.5425C103.571 51.129 102.197 50.6032 101.293 49.9698L100.778 50.1659ZM105.056 51.7947L104.681 52.0469C106.467 52.4438 108.216 52.6493 109.927 52.6518L110.118 52.3812L110.31 52.1106C108.77 52.1084 107.143 51.9229 105.432 51.5425L105.056 51.7947ZM110.118 52.3812L109.924 52.6518C111.643 52.6583 113.261 52.4881 114.764 52.1263L114.651 51.8929L114.538 51.6594C113.284 51.9612 111.881 52.1166 110.312 52.1106L110.118 52.3812ZM114.651 51.8929L114.764 52.1263C116.269 51.764 117.541 51.2439 118.564 50.5742L118.128 50.472L117.693 50.3698C116.836 50.931 115.79 51.3581 114.538 51.6594L114.651 51.8929ZM118.128 50.472L118.576 50.5658C119.5 49.9284 119.975 49.2992 119.972 48.6896L119.392 48.7787L118.813 48.8678C118.815 49.3495 118.447 49.8491 117.68 50.3783L118.128 50.472ZM119.392 48.7787L119.972 48.6927C119.986 48.0809 119.536 47.4756 118.68 46.8743L118.165 47.0703L117.65 47.2662C118.456 47.8318 118.824 48.3654 118.813 48.8648L119.392 48.7787ZM118.165 47.0703L118.685 46.8775C117.866 46.2728 116.66 45.6204 115.076 44.9201L114.61 45.1435L114.144 45.367C115.705 46.0567 116.868 46.6888 117.646 47.2631L118.165 47.0703ZM114.61 45.1435L115.076 44.9203L110.577 42.9235L110.111 43.1468L109.645 43.37L114.144 45.3667L114.61 45.1435ZM110.111 43.1468L110.576 42.9229C106.871 41.2971 104.724 39.5304 104.088 37.629L103.514 37.7523L102.94 37.8755C103.611 39.8804 105.862 41.7101 109.647 43.3706L110.111 43.1468ZM103.514 37.7523L104.088 37.6299C103.476 35.7453 104.83 33.6837 108.221 31.4213L107.781 31.3221L107.341 31.2229C103.766 33.6077 102.276 35.8329 102.94 37.8747L103.514 37.7523ZM107.781 31.3221L108.224 31.4189C110.96 29.5661 114.225 28.1486 118.025 27.1541L117.886 26.9272L117.747 26.7002C113.69 27.762 110.218 29.2745 107.338 31.2253L107.781 31.3221ZM117.886 26.9272L118.025 27.1541C121.84 26.1555 125.885 25.6076 130.171 25.5176L130.337 25.2473L130.504 24.9769C126.044 25.0705 121.788 25.6425 117.747 26.7002L117.886 26.9272ZM130.337 25.2473L130.171 25.5176C134.455 25.4277 138.61 25.8258 142.634 26.7201L143.009 26.4679L143.385 26.2158C139.259 25.2989 134.965 24.8833 130.504 24.9769L130.337 25.2473ZM143.009 26.4679L142.634 26.7201C146.747 27.6341 149.697 28.8218 151.511 30.2769L152.037 30.0893L152.563 29.9017C150.665 28.3783 147.597 27.1517 143.385 26.2158L143.009 26.4679ZM152.037 30.0893L151.513 30.2783C153.36 31.7294 154.05 33.3398 153.604 35.1109L154.179 35.0522L154.755 34.9936C155.229 33.1138 154.491 31.4155 152.562 29.9004L152.037 30.0893ZM154.179 35.0522L153.604 35.1109C153.158 36.8801 151.576 38.6971 148.835 40.5685L149.281 40.6639L149.726 40.7594C152.597 38.7993 154.281 36.8752 154.755 34.9936L154.179 35.0522ZM149.281 40.6639L149.656 40.4118L137.221 37.6484L136.846 37.9006L136.47 38.1528L148.905 40.9161L149.281 40.6639Z" fill="black" mask="url(#path-7-outside-2_152_42399)"/>
<path fill-rule="evenodd" clip-rule="evenodd" d="M44.9328 91.2984C34.8527 98.4204 33.6094 105.356 34.2478 107.933C34.2931 108.018 34.343 108.112 34.3977 108.217L42.257 106.225L45.6637 112.652L44.2426 114.441L38.1839 115.989C40.4153 120.721 43.546 127.533 47.6331 136.743C49.346 140.602 51.1641 143.901 53.0441 146.725C56.2121 146.437 58.8799 145.34 60.4125 144.378L63.4169 150.419L61.8592 152.97L58.7069 153.737C66.1001 161.188 73.7683 163.068 79.3802 163.971C82.3696 164.452 86.3594 164.383 90.7901 163.295C89.9941 161.848 89.2346 160.509 88.5448 159.326C90.692 156.409 96.7228 150.888 103.668 152.133C104.128 153.339 104.67 154.705 105.275 156.178C109.224 153.112 113.079 149.006 116.518 143.59C118.879 139.871 119.943 135.464 120.084 130.709C120.149 128.498 120.014 126.211 119.717 123.884C118.356 113.205 113.579 101.664 109.014 92.5681C108.75 92.0408 108.486 91.5217 108.223 91.0115C107.011 88.6547 105.829 86.487 104.747 84.5717C102.385 80.3903 100.498 77.4124 99.8134 76.2988C92.1762 63.8832 57.5331 82.3958 44.9328 91.2984ZM79.4178 100.625L79.4856 88.8465L89.6527 97.9005L101.427 96.2383L100.771 99.8937L97.078 108.165L103.527 117.209L103.008 120.102L90.9339 117.938L83.7421 125.609L79.768 113.578L68.7114 108.609L69.3121 105.258L79.4178 100.625Z" fill="#C7EF6B"/>
<path d="M17.5541 112.486C21.7921 123.045 31.4407 144.813 36.1306 147.414C41.0313 150.132 47.9381 154.529 57.486 152.451C55.9818 150.799 54.4945 148.903 53.0441 146.725C49.4994 147.047 45.3285 146.357 41.4213 143.332C34.5755 138.032 28.7338 125.78 26.1652 119.06C25.9576 118.517 25.7713 118.01 25.6077 117.545L37.5423 114.633C35.9934 111.373 34.9533 109.28 34.3977 108.217L17.5541 112.486Z" fill="#C7EF6B"/>
<path d="M122.507 80.3671L104.747 84.5717C105.829 86.487 107.011 88.6547 108.223 91.0115L119.853 87.2799C123.423 94.2603 130.29 109.21 129.204 113.165C128.28 116.53 127.432 118.961 124.8 121.068C123.564 122.057 121.934 122.975 119.717 123.884C120.014 126.211 120.149 128.498 120.084 130.709C132.095 130.347 135.477 120.264 136.323 115.542C137.001 111.765 127.395 90.5183 122.507 80.3671Z" fill="#C7EF6B"/>
<path d="M45.6637 112.652L42.257 106.225L34.3977 108.217C34.9533 109.28 35.9934 111.373 37.5423 114.633L45.6637 112.652Z" fill="#C7EF6B"/>
<path d="M134.738 186.538C132.131 186.592 127.115 186.156 122.002 184.031C116.883 181.903 109.503 166.454 105.275 156.178C100.387 159.973 95.3545 162.175 90.7901 163.295C96.6069 173.871 104.371 190.203 101.127 193.493C97.6116 197.058 95.7587 203.346 95.187 206.443C95.7417 205.495 98.1624 202.845 105.079 196.874C113.587 189.531 127.802 186.98 134.738 186.538Z" fill="#C7EF6B"/>
<path d="M103.668 152.133C96.7228 150.888 90.692 156.409 88.5448 159.326C89.2346 160.509 89.9941 161.848 90.7901 163.295C95.3545 162.175 100.387 159.973 105.275 156.178C104.67 154.705 104.128 153.339 103.668 152.133Z" fill="#C7EF6B"/>
<path d="M36.1306 147.414C31.4407 144.813 21.7921 123.045 17.5541 112.486L14.4461 114.916C18.6305 124.312 27.6681 143.759 30.3429 146.376C33.6864 149.648 43.9039 156.668 54.7912 154.689L58.7069 153.737C58.299 153.325 57.8918 152.897 57.486 152.451C47.9381 154.529 41.0313 150.132 36.1306 147.414Z" fill="black"/>
<path d="M25.6077 117.545C25.7713 118.01 25.9576 118.517 26.1652 119.06L38.1839 115.989C37.9611 115.516 37.7473 115.065 37.5423 114.633L25.6077 117.545Z" fill="black"/>
<path d="M44.2426 114.441L45.6637 112.652L37.5423 114.633C37.7473 115.065 37.9611 115.516 38.1839 115.989L44.2426 114.441Z" fill="black"/>
<path d="M119.853 87.2799L108.223 91.0115C108.486 91.5217 108.75 92.0408 109.014 92.5681L116.843 90.0415C120.181 96.5611 126.747 110.21 126.31 112.647L124.8 121.068C127.432 118.961 128.28 116.53 129.204 113.165C130.29 109.21 123.423 94.2603 119.853 87.2799Z" fill="black"/>
<path d="M95.1115 206.878C97.5618 208.994 104.655 212.047 113.423 207.331C124.384 201.436 138.613 196.598 135.71 186.488C135.441 186.513 135.114 186.531 134.738 186.538C127.802 186.98 113.587 189.531 105.079 196.874C98.1624 202.845 95.7417 205.495 95.187 206.443C95.1587 206.596 95.1336 206.741 95.1115 206.878Z" fill="black"/>
<path d="M80.896 110.793L69.3121 105.258L68.7114 108.609L79.768 113.578L83.7421 125.609L90.9339 117.938L103.008 120.102L103.527 117.209L91.4527 115.044L83.9951 121.567L80.896 110.793Z" fill="black"/>
<path d="M79.4856 88.8465L79.4178 100.625L69.3121 105.258L80.896 110.793L83.9951 121.567L91.4527 115.044L103.527 117.209L97.078 108.165L96.4575 107.295L101.427 96.2383L89.6527 97.9005L79.4856 88.8465Z" fill="white"/>
<path d="M63.4169 150.419L60.4125 144.378C58.8799 145.34 56.2121 146.437 53.0441 146.725C54.4945 148.903 55.9818 150.799 57.486 152.451C59.3596 152.044 61.335 151.387 63.4169 150.419Z" fill="#C7EF6B"/>
<path d="M61.8592 152.97L63.4169 150.419C61.335 151.387 59.3596 152.044 57.486 152.451C57.8918 152.897 58.299 153.325 58.7069 153.737L61.8592 152.97Z" fill="black"/>
<path d="M17.5541 112.486C21.7921 123.045 31.4407 144.813 36.1306 147.414C41.0313 150.132 47.9381 154.529 57.486 152.451M17.5541 112.486L14.4461 114.916C18.6305 124.312 27.6681 143.759 30.3429 146.376C33.6864 149.648 43.9039 156.668 54.7912 154.689L58.7069 153.737M17.5541 112.486L34.3977 108.217M63.4169 150.419L60.4125 144.378C58.8799 145.34 56.2121 146.437 53.0441 146.725M63.4169 150.419L61.8592 152.97L58.7069 153.737M63.4169 150.419C61.335 151.387 59.3596 152.044 57.486 152.451M45.6637 112.652L42.257 106.225L34.3977 108.217M45.6637 112.652L44.2426 114.441L38.1839 115.989M45.6637 112.652L37.5423 114.633M26.1652 119.06C28.7338 125.78 34.5755 138.032 41.4213 143.332C45.3285 146.357 49.4994 147.047 53.0441 146.725M26.1652 119.06C25.9576 118.517 25.7713 118.01 25.6077 117.545L37.5423 114.633M26.1652 119.06L38.1839 115.989M104.747 84.5717C102.385 80.3903 100.498 77.4124 99.8134 76.2988C92.1762 63.8832 57.5331 82.3958 44.9328 91.2984C34.8527 98.4204 33.6094 105.356 34.2478 107.933C34.2931 108.018 34.343 108.112 34.3977 108.217M104.747 84.5717L122.507 80.3671C127.395 90.5183 137.001 111.765 136.323 115.542C135.477 120.264 132.095 130.347 120.084 130.709M104.747 84.5717C105.829 86.487 107.011 88.6547 108.223 91.0115M120.084 130.709C119.943 135.464 118.879 139.871 116.518 143.59C113.079 149.006 109.224 153.112 105.275 156.178M120.084 130.709C120.149 128.498 120.014 126.211 119.717 123.884M108.223 91.0115L119.853 87.2799C123.423 94.2603 130.29 109.21 129.204 113.165C128.28 116.53 127.432 118.961 124.8 121.068M108.223 91.0115C108.486 91.5217 108.75 92.0408 109.014 92.5681M119.717 123.884C118.356 113.205 113.579 101.664 109.014 92.5681M119.717 123.884C121.934 122.975 123.564 122.057 124.8 121.068M109.014 92.5681L116.843 90.0415C120.181 96.5611 126.747 110.21 126.31 112.647M126.31 112.647C125.873 115.084 125.121 119.276 124.8 121.068M126.31 112.647L124.8 121.068M135.71 186.488C138.613 196.598 124.384 201.436 113.423 207.331C104.655 212.047 97.5618 208.994 95.1115 206.878M135.71 186.488C135.404 186.5 135.08 186.517 134.738 186.538M135.71 186.488C135.441 186.513 135.114 186.531 134.738 186.538M95.1115 206.878C95.0221 206.85 95.0257 206.718 95.187 206.443M95.1115 206.878C95.1336 206.741 95.1587 206.596 95.187 206.443M69.3121 105.258L79.4178 100.625L79.4856 88.8465L89.6527 97.9005L101.427 96.2383M69.3121 105.258L80.896 110.793L83.9951 121.567L91.4527 115.044L103.527 117.209M69.3121 105.258L68.7114 108.609L79.768 113.578L83.7421 125.609L90.9339 117.938L103.008 120.102L103.527 117.209M103.527 117.209L97.078 108.165M101.427 96.2383L96.4575 107.295L97.078 108.165M101.427 96.2383L100.771 99.8937L97.078 108.165M34.3977 108.217C34.9533 109.28 35.9934 111.373 37.5423 114.633M38.1839 115.989C40.4153 120.721 43.546 127.533 47.6331 136.743C49.346 140.602 51.1641 143.901 53.0441 146.725M38.1839 115.989C37.9611 115.516 37.7473 115.065 37.5423 114.633M53.0441 146.725C54.4945 148.903 55.9818 150.799 57.486 152.451M58.7069 153.737C66.1001 161.188 73.7683 163.068 79.3802 163.971C82.3696 164.452 86.3594 164.383 90.7901 163.295M58.7069 153.737C58.299 153.325 57.8918 152.897 57.486 152.451M90.7901 163.295C89.9941 161.848 89.2346 160.509 88.5448 159.326C90.692 156.409 96.7228 150.888 103.668 152.133C104.128 153.339 104.67 154.705 105.275 156.178M90.7901 163.295C96.6069 173.871 104.371 190.203 101.127 193.493C97.6116 197.058 95.7587 203.346 95.187 206.443M90.7901 163.295C95.3545 162.175 100.387 159.973 105.275 156.178M105.275 156.178C109.503 166.454 116.883 181.903 122.002 184.031C127.115 186.156 132.131 186.592 134.738 186.538M134.738 186.538C127.802 186.98 113.587 189.531 105.079 196.874C98.1624 202.845 95.7417 205.495 95.187 206.443" stroke="black" stroke-width="0.214785"/>
</svg>
