<svg width="200" height="266" viewBox="0 0 200 266" fill="none" xmlns="http://www.w3.org/2000/svg">
<path d="M161.139 31.4426C159.639 30.4622 157.476 29.3857 154.775 28.4602C157.786 33.594 163.027 47.5977 159.907 62.5417C156.787 77.4856 155.186 89.6379 154.775 93.846L147.18 112.731L145.743 130.18C147.046 129.437 148.577 128.54 150.259 127.525C159.892 121.717 174.507 112.052 179.819 105.341L170.582 98.362C174.14 88.201 180.188 64.9639 175.919 53.3043C172.849 44.9211 168.18 38.547 164.629 34.7239C163.241 33.2297 162.023 32.1252 161.139 31.4426Z" fill="#235538"/>
<path d="M145.743 18.6129C112.735 -1.83242 71.913 34.7954 55.6279 55.6649L71.5367 69.2131C83.6479 54.8439 93.501 43.4512 118.134 31.4426C127.892 26.6855 137.029 25.6581 144.512 26.3192C148.439 26.6661 151.91 27.4782 154.775 28.4602C157.476 29.3857 159.639 30.4622 161.139 31.4426L145.743 18.6129Z" fill="#235538"/>
<path d="M118.134 31.4426C93.501 43.4512 83.6479 54.8439 71.5367 69.2131L55.6279 55.6649V58.1283L72.6657 71.9843C78.995 62.747 97.6271 41.7064 121.521 31.4426C124.703 29.9429 133.755 26.8186 144.512 26.3192C137.029 25.6581 127.892 26.6855 118.134 31.4426Z" fill="black"/>
<path d="M170.582 98.362L179.819 105.341C174.507 112.052 159.892 121.717 150.259 127.525C159.291 123.924 175.713 110.551 182.795 104.315L173.353 96.5146C174.208 95.6251 176.555 89.4121 179.1 71.6764C181.646 53.9407 170.513 39.6515 164.629 34.7239C168.18 38.547 172.849 44.9211 175.919 53.3043C180.188 64.9639 174.14 88.201 170.582 98.362Z" fill="black"/>
<path d="M166.671 129.07C166.671 141.961 136.715 152.411 99.7624 152.411C62.8097 152.411 32.8535 141.961 32.8535 129.07V177.307L166.671 179.641V129.07Z" fill="#2E4210"/>
<path fill-rule="evenodd" clip-rule="evenodd" d="M166.671 129.07C166.671 116.18 136.715 105.73 99.7624 105.73C62.8097 105.73 32.8535 116.18 32.8535 129.07C32.8535 141.961 62.8097 152.411 99.7624 152.411C136.715 152.411 166.671 141.961 166.671 129.07ZM54.1427 127.514C54.1427 121.499 74.5674 116.622 99.7624 116.622C124.958 116.622 145.382 121.499 145.382 127.514C145.382 133.53 124.958 138.406 99.7624 138.406C74.5674 138.406 54.1427 133.53 54.1427 127.514Z" fill="#2E4210"/>
<path d="M99.7624 116.622C74.5674 116.622 54.1427 121.499 54.1427 127.514C54.1427 133.53 74.5674 138.406 99.7624 138.406C124.958 138.406 145.382 133.53 145.382 127.514C145.382 121.499 124.958 116.622 99.7624 116.622Z" fill="#2E4210"/>
<path d="M166.671 125.958C166.671 138.92 136.715 149.429 99.7624 149.429C62.8097 149.429 32.8535 138.92 32.8535 125.958V141.605C32.8535 154.568 62.8097 165.076 99.7624 165.076C136.715 165.076 166.671 154.568 166.671 141.605V125.958Z" fill="#A4DE50"/>
<path d="M166.671 141.605C166.671 154.568 136.715 165.076 99.7624 165.076C62.8097 165.076 32.8535 154.568 32.8535 141.605V160.382C32.8535 173.344 62.8097 183.852 99.7624 183.852C136.715 183.852 166.671 173.344 166.671 160.382V141.605Z" fill="#A4DE50"/>
<path d="M166.671 160.382C166.671 173.344 136.715 183.852 99.7624 183.852C62.8097 183.852 32.8535 173.344 32.8535 160.382V179.158C32.8535 192.121 62.8097 202.629 99.7624 202.629C136.715 202.629 166.671 192.121 166.671 179.158V160.382Z" fill="#A4DE50"/>
<path d="M166.671 179.158C166.671 192.121 136.715 202.629 99.7624 202.629C62.8097 202.629 32.8535 192.121 32.8535 179.158V197.935C32.8535 210.897 62.8097 221.406 99.7624 221.406C136.715 221.406 166.671 210.897 166.671 197.935V179.158Z" fill="#A4DE50"/>
<path d="M166.671 197.935C166.671 210.897 136.715 221.406 99.7624 221.406C62.8097 221.406 32.8535 210.897 32.8535 197.935V216.711C32.8535 229.674 62.8097 240.182 99.7624 240.182C136.715 240.182 166.671 229.674 166.671 216.711V197.935Z" fill="#A4DE50"/>
<path d="M167.449 138.406C167.449 151.297 137.574 161.747 99.762 161.747C61.9498 161.747 32.853 152.075 32.853 139.184" stroke="#2E4210" stroke-width="0.778011"/>
<path d="M167.449 152.41C167.449 165.301 137.574 175.751 99.762 175.751C61.9498 175.751 32.853 166.079 32.853 153.188" stroke="#2E4210" stroke-width="0.778011"/>
<path d="M167.449 166.414C167.449 179.305 137.574 189.755 99.762 189.755C61.9498 189.755 32.853 180.083 32.853 167.192" stroke="#2E4210" stroke-width="0.778011"/>
<path d="M167.449 180.419C167.449 193.309 137.574 203.759 99.762 203.759C61.9498 203.759 32.853 194.087 32.853 181.197" stroke="#2E4210" stroke-width="0.778011"/>
<path d="M167.449 194.423C167.449 207.313 137.574 217.763 99.762 217.763C61.9498 217.763 32.853 208.091 32.853 195.201" stroke="#2E4210" stroke-width="0.778011"/>
<path d="M167.449 208.427C167.449 221.318 137.574 231.768 99.762 231.768C61.9498 231.768 32.853 222.096 32.853 209.205" stroke="#2E4210" stroke-width="0.778011"/>
<path d="M167.449 125.958C167.449 138.848 137.574 149.298 99.762 149.298C61.9498 149.298 32.853 139.626 32.853 126.736" stroke="#2E4210" stroke-width="0.778011"/>
<path d="M143.829 59.8975C143.577 60.6402 143.309 61.385 143.024 62.1312C142.264 64.127 141.39 66.1338 140.413 68.1415C138.474 72.1254 136.127 76.1134 133.452 80.0282C131.25 83.2494 128.825 86.421 126.221 89.5001C113.458 104.59 96.3825 117.458 80.1013 123.041C76.8243 124.165 73.7333 124.941 70.8492 125.389C65.0956 126.283 60.1656 125.871 56.2253 124.311C46.2074 120.344 42.5873 108.955 48.0949 92.7295C56.8545 66.9225 85.3865 38.6521 111.823 29.5858C125.131 25.0219 135.371 26.1944 141.142 31.7765C144.197 34.7315 146 38.9222 146.342 44.1517C146.638 48.6678 145.845 53.9587 143.829 59.8975Z" fill="black"/>
<path d="M70.8492 125.389C65.0956 126.283 60.1656 125.871 56.2253 124.311L76.5015 137.441C73.2834 134.624 71.3278 130.539 70.8492 125.389Z" fill="black"/>
<path d="M141.142 31.7765C144.197 34.7315 146 38.9222 146.342 44.1517C152.394 43.3149 157.498 43.9602 161.449 45.8951L141.142 31.7765Z" fill="black"/>
<path fill-rule="evenodd" clip-rule="evenodd" d="M166.106 81.9743C164.501 85.6304 162.532 89.3056 160.261 92.9385L133.452 80.0282C131.25 83.2494 128.825 86.421 126.221 89.5001L152.801 103.405C139.971 119.398 122.074 133.253 105.048 139.092C92.2543 143.479 82.3168 142.53 76.5015 137.441C73.2834 134.624 71.3278 130.539 70.8492 125.389C70.4203 120.773 71.1777 115.302 73.276 109.12C81.9465 83.5756 110.229 55.579 136.446 46.5878C139.97 45.3792 143.278 44.5755 146.342 44.1517C152.394 43.3149 157.498 43.9602 161.449 45.8951C170.379 50.2687 173.421 61.231 168.218 76.5597L143.024 62.1312C142.264 64.127 141.39 66.1338 140.413 68.1415L166.106 81.9743Z" fill="black"/>
<path d="M157.463 97.1766C158.44 95.7728 159.374 94.3589 160.261 92.9385L133.452 80.0282C131.25 83.2494 128.825 86.421 126.221 89.5001L152.801 103.405C154.442 101.36 156 99.2796 157.463 97.1766Z" fill="white"/>
<path d="M166.106 81.9743C166.902 80.1623 167.608 78.3549 168.218 76.5597L143.024 62.1312C142.264 64.127 141.39 66.1338 140.413 68.1415L166.106 81.9743Z" fill="white"/>
<ellipse cx="50.6039" cy="49.3461" rx="50.6039" ry="49.3461" transform="matrix(0.945919 -0.324402 -0.321419 0.946937 63.5127 45.3817)" fill="white"/>
<path d="M109.944 33.6655C133.877 25.4577 146.836 37.7464 138.913 61.0891C130.99 84.432 105.174 110.019 81.2412 118.227C57.3083 126.435 44.3493 114.145 52.2726 90.8023C60.196 67.4595 86.011 41.8733 109.944 33.6655Z" fill="white" stroke="black" stroke-width="0.7093"/>
<path d="M51.4422 90.8776C59.6113 67.5538 85.8293 41.8709 110.002 33.5137C123.966 28.686 134.193 30.6964 138.766 37.7514C133.362 33.7579 124.571 33.2333 113.377 37.103C89.2046 45.4604 62.9865 71.1431 54.8174 94.4669C51.3676 104.317 51.6881 112.171 55.0309 117.329C48.7653 112.698 47.0559 103.401 51.4422 90.8776Z" fill="black"/>
<mask id="path-15-outside-1_152_42414" maskUnits="userSpaceOnUse" x="57.5368" y="42.5534" width="76.3701" height="69.6642" fill="black">
<rect fill="white" x="57.5368" y="42.5534" width="76.3701" height="69.6642"/>
<path d="M77.9156 106.106L110.463 48.9758L114.552 47.963L82.0042 105.093L77.9156 106.106ZM109.25 65.9517C110.016 64.3563 110.001 63.2675 109.205 62.6852C108.434 62.0839 106.844 62.0818 104.434 62.6788C102.838 63.0741 101.403 63.5894 100.127 64.2249C98.8515 64.8603 97.7613 65.5712 96.8565 66.3576C95.9602 67.1291 95.2664 67.9335 94.7751 68.7707C94.352 69.4633 94.1583 70.0288 94.194 70.4672C94.2464 70.9015 94.4822 71.2391 94.9016 71.4803C95.346 71.7024 95.9489 71.847 96.7101 71.9139C97.4713 71.9809 98.37 71.9819 99.4063 71.9169L103.286 71.7226C105.532 71.5877 107.386 71.6906 108.848 72.0313C110.326 72.3678 111.4 72.9388 112.069 73.7442C112.754 74.5456 113.018 75.5983 112.861 76.9023C112.703 78.2064 112.111 79.7714 111.085 81.5972C109.424 84.4876 107.199 87.1665 104.408 89.6338C101.618 92.1012 98.3966 94.26 94.7445 96.1103C91.109 97.9565 87.1638 99.4066 82.909 100.461C78.6376 101.519 75.241 101.868 72.7191 101.509C70.1973 101.15 68.7209 100.021 68.2899 98.1212C67.8588 96.2219 68.6355 93.493 70.6199 89.9348L82.4369 87.0074C81.6975 88.4556 81.4387 89.5739 81.6605 90.3623C81.8822 91.1507 82.5304 91.629 83.6051 91.7972C84.6964 91.9613 86.1478 91.819 87.9595 91.3702C89.6215 90.9585 91.1486 90.4077 92.5409 89.7178C93.9498 89.0238 95.1735 88.2415 96.2119 87.3709C97.2503 86.5003 98.0406 85.6017 98.5827 84.6752C99.0577 83.8164 99.1781 83.1541 98.9439 82.6882C98.7182 82.2074 98.1258 81.8942 97.1668 81.7484C96.2329 81.5836 94.9454 81.5384 93.3043 81.6127L88.6049 81.8186C84.7009 82.0062 82.0539 81.4033 80.6637 80.0099C79.282 78.6016 79.5869 76.1622 81.5784 72.6916C83.1722 69.8689 85.4311 67.1818 88.3551 64.6302C91.2791 62.0786 94.5925 59.8331 98.2955 57.8935C101.998 55.954 105.786 54.5045 109.659 53.5452C113.614 52.5653 116.703 52.3176 118.925 52.8022C121.172 53.2678 122.487 54.3795 122.871 56.1374C123.254 57.8953 122.653 60.1909 121.067 63.0243L109.25 65.9517Z"/>
</mask>
<path d="M77.9156 106.106L110.463 48.9758L114.552 47.963L82.0042 105.093L77.9156 106.106ZM109.25 65.9517C110.016 64.3563 110.001 63.2675 109.205 62.6852C108.434 62.0839 106.844 62.0818 104.434 62.6788C102.838 63.0741 101.403 63.5894 100.127 64.2249C98.8515 64.8603 97.7613 65.5712 96.8565 66.3576C95.9602 67.1291 95.2664 67.9335 94.7751 68.7707C94.352 69.4633 94.1583 70.0288 94.194 70.4672C94.2464 70.9015 94.4822 71.2391 94.9016 71.4803C95.346 71.7024 95.9489 71.847 96.7101 71.9139C97.4713 71.9809 98.37 71.9819 99.4063 71.9169L103.286 71.7226C105.532 71.5877 107.386 71.6906 108.848 72.0313C110.326 72.3678 111.4 72.9388 112.069 73.7442C112.754 74.5456 113.018 75.5983 112.861 76.9023C112.703 78.2064 112.111 79.7714 111.085 81.5972C109.424 84.4876 107.199 87.1665 104.408 89.6338C101.618 92.1012 98.3966 94.26 94.7445 96.1103C91.109 97.9565 87.1638 99.4066 82.909 100.461C78.6376 101.519 75.241 101.868 72.7191 101.509C70.1973 101.15 68.7209 100.021 68.2899 98.1212C67.8588 96.2219 68.6355 93.493 70.6199 89.9348L82.4369 87.0074C81.6975 88.4556 81.4387 89.5739 81.6605 90.3623C81.8822 91.1507 82.5304 91.629 83.6051 91.7972C84.6964 91.9613 86.1478 91.819 87.9595 91.3702C89.6215 90.9585 91.1486 90.4077 92.5409 89.7178C93.9498 89.0238 95.1735 88.2415 96.2119 87.3709C97.2503 86.5003 98.0406 85.6017 98.5827 84.6752C99.0577 83.8164 99.1781 83.1541 98.9439 82.6882C98.7182 82.2074 98.1258 81.8942 97.1668 81.7484C96.2329 81.5836 94.9454 81.5384 93.3043 81.6127L88.6049 81.8186C84.7009 82.0062 82.0539 81.4033 80.6637 80.0099C79.282 78.6016 79.5869 76.1622 81.5784 72.6916C83.1722 69.8689 85.4311 67.1818 88.3551 64.6302C91.2791 62.0786 94.5925 59.8331 98.2955 57.8935C101.998 55.954 105.786 54.5045 109.659 53.5452C113.614 52.5653 116.703 52.3176 118.925 52.8022C121.172 53.2678 122.487 54.3795 122.871 56.1374C123.254 57.8953 122.653 60.1909 121.067 63.0243L109.25 65.9517Z" fill="black"/>
<path d="M77.9156 106.106L77.496 106.21L77.2821 106.585L77.7016 106.482L77.9156 106.106ZM110.463 48.9758L110.677 48.6003L110.258 48.7042L110.044 49.0798L110.463 48.9758ZM114.552 47.963L114.972 47.859L115.186 47.4835L114.766 47.5874L114.552 47.963ZM82.0042 105.093L81.7902 105.469L82.2098 105.365L82.4237 104.989L82.0042 105.093ZM109.25 65.9517L108.813 66.0892L108.653 66.4221L109.036 66.3272L109.25 65.9517ZM109.205 62.6852L108.776 63.0439L108.779 63.046L109.205 62.6852ZM100.127 64.2249L100.174 63.9129L100.174 63.9129L100.127 64.2249ZM96.8565 66.3576L97.0654 66.4984L97.07 66.4944L96.8565 66.3576ZM94.7751 68.7707L95.1851 68.6832L95.1908 68.6735L94.7751 68.7707ZM94.194 70.4672L93.7235 70.7438L93.7242 70.7495L94.194 70.4672ZM94.9016 71.4803L94.4867 71.8484L94.4935 71.8518L94.9016 71.4803ZM96.7101 71.9139L97.0527 71.5253L96.7101 71.9139ZM99.4063 71.9169L99.708 71.5276L99.7034 71.5279L99.4063 71.9169ZM103.286 71.7226L102.984 72.1118L102.987 72.1116L103.286 71.7226ZM108.848 72.0313L108.475 72.4151L108.476 72.4154L108.848 72.0313ZM112.069 73.7443L111.624 74.087L111.625 74.0881L112.069 73.7443ZM112.861 76.9023L112.391 77.1421L112.861 76.9023ZM111.085 81.5972L111.504 81.4952L111.506 81.4902L111.085 81.5972ZM104.408 89.6338L104.187 89.5041L104.408 89.6338ZM94.7445 96.1103L94.7847 95.8016L94.7838 95.802L94.7445 96.1103ZM72.7191 101.509L73.0744 101.122L72.7191 101.509ZM70.6199 89.9348L70.8339 89.5592L70.409 89.6644L70.1977 90.0434L70.6199 89.9348ZM82.4369 87.0074L82.8687 86.8809L83.0458 86.534L82.6509 86.6318L82.4369 87.0074ZM81.6604 90.3623L81.1946 90.6648L81.6604 90.3623ZM83.6051 91.7972L83.2467 92.184L83.2481 92.1842L83.6051 91.7972ZM92.5409 89.7178L92.5918 89.4037L92.5896 89.4048L92.5409 89.7178ZM96.2119 87.3709L96.0158 87.2192L96.2119 87.3709ZM98.5827 84.6752L98.9988 84.5773L99.0025 84.571L99.0059 84.5648L98.5827 84.6752ZM98.9439 82.6882L98.4846 83.0085L98.4859 83.0111L98.9439 82.6882ZM97.1668 81.7484L96.8044 82.1345L96.8095 82.1353L97.1668 81.7484ZM93.3043 81.6127L93.0005 82.0021L93.001 82.0021L93.3043 81.6127ZM88.6049 81.8186L88.9087 81.4292L88.9072 81.4293L88.6049 81.8186ZM80.6637 80.0099L80.2244 80.359L80.225 80.3597L80.6637 80.0099ZM81.5784 72.6916L81.9971 72.5892L81.9991 72.5856L81.5784 72.6916ZM88.3551 64.6302L88.1397 64.4951L88.3551 64.6302ZM98.2955 57.8935L98.2685 58.1955L98.2685 58.1955L98.2955 57.8935ZM118.925 52.8022L118.555 53.1867L118.557 53.1871L118.925 52.8022ZM122.871 56.1374L123.338 55.8422L122.871 56.1374ZM121.067 63.0243L120.853 63.3999L121.277 63.2948L121.489 62.9164L121.067 63.0243ZM77.9156 106.106L78.3351 106.002L110.883 48.8719L110.463 48.9758L110.044 49.0798L77.496 106.21L77.9156 106.106ZM110.463 48.9758L110.249 49.3514L114.338 48.3385L114.552 47.963L114.766 47.5874L110.677 48.6003L110.463 48.9758ZM114.552 47.963L114.132 48.0669L81.5846 105.197L82.0042 105.093L82.4237 104.989L114.972 47.859L114.552 47.963ZM82.0042 105.093L82.2181 104.718L78.1295 105.73L77.9156 106.106L77.7016 106.482L81.7902 105.469L82.0042 105.093ZM109.25 65.9517L109.687 65.8142C110.496 64.1294 110.489 62.9523 109.631 62.3244L109.205 62.6852L108.779 63.046C109.513 63.5827 109.536 64.5832 108.813 66.0892L109.25 65.9517ZM109.205 62.6852L109.634 62.3266C108.802 61.6782 107.111 61.6931 104.648 62.3033L104.434 62.6788L104.22 63.0544C106.577 62.4705 108.066 62.4896 108.777 63.0439L109.205 62.6852ZM104.434 62.6788L104.648 62.3033C103.019 62.7067 101.526 63.2393 100.174 63.9129L100.127 64.2249L100.08 64.5369C101.28 63.9396 102.657 63.4415 104.22 63.0544L104.434 62.6788ZM100.127 64.2249L100.174 63.9129C98.832 64.5813 97.6468 65.3484 96.643 66.2208L96.8565 66.3576L97.07 66.4944C97.8758 65.794 98.871 65.1394 100.08 64.5369L100.127 64.2249ZM96.8565 66.3576L96.6477 66.2168C95.659 67.0677 94.8948 67.9556 94.3595 68.8679L94.7751 68.7707L95.1908 68.6735C95.638 67.9113 96.2614 67.1904 97.0653 66.4984L96.8565 66.3576ZM94.7751 68.7707L94.3653 68.8583C93.9047 69.6121 93.6831 70.2465 93.7236 70.7438L94.194 70.4672L94.6644 70.1906C94.6335 69.8111 94.7992 69.3146 95.185 68.6832L94.7751 68.7707ZM94.194 70.4672L93.7242 70.7495C93.7818 71.2277 94.0409 71.5918 94.4869 71.8482L94.9016 71.4803L95.3163 71.1123C94.9236 70.8865 94.7109 70.5752 94.6639 70.1849L94.194 70.4672ZM94.9016 71.4803L94.4935 71.8518C94.9601 72.085 95.587 72.2339 96.3675 72.3026L96.7101 71.9139L97.0527 71.5253C96.3107 71.46 95.7319 71.3198 95.3096 71.1087L94.9016 71.4803ZM96.7101 71.9139L96.3675 72.3026C97.1454 72.371 98.06 72.3717 99.1092 72.3059L99.4063 71.9169L99.7034 71.5279C98.6801 71.5921 97.7972 71.5908 97.0527 71.5253L96.7101 71.9139ZM99.4063 71.9169L99.1047 72.3061L102.984 72.1118L103.286 71.7226L103.587 71.3333L99.7079 71.5276L99.4063 71.9169ZM103.286 71.7226L102.987 72.1116C105.212 71.9781 107.039 72.0805 108.475 72.4151L108.848 72.0313L109.221 71.6474C107.733 71.3007 105.852 71.1973 103.584 71.3335L103.286 71.7226ZM108.848 72.0313L108.476 72.4154C109.928 72.746 110.975 73.305 111.624 74.087L112.069 73.7443L112.514 73.4015C111.826 72.5726 110.725 71.9896 109.22 71.6472L108.848 72.0313ZM112.069 73.7443L111.625 74.0881C112.289 74.8646 112.543 75.8823 112.391 77.1421L112.861 76.9023L113.33 76.6626C113.493 75.3142 113.22 74.2266 112.513 73.4004L112.069 73.7443ZM112.861 76.9023L112.391 77.1421C112.239 78.4013 111.667 79.9195 110.664 81.7042L111.085 81.5972L111.506 81.4902C112.555 79.6233 113.167 78.0116 113.33 76.6626L112.861 76.9023ZM111.085 81.5972L110.667 81.6992C109.043 84.5247 106.881 87.1218 104.187 89.5041L104.408 89.6338L104.63 89.7635C107.516 87.2112 109.805 84.4505 111.504 81.4952L111.085 81.5972ZM104.408 89.6338L104.187 89.5041C101.489 91.8898 98.3609 93.9897 94.7847 95.8016L94.7445 96.1103L94.7043 96.4191C98.4323 94.5304 101.747 92.3126 104.63 89.7635L104.408 89.6338ZM94.7445 96.1103L94.7838 95.802C91.2248 97.6093 87.3393 99.0406 83.123 100.085L82.909 100.461L82.6951 100.836C86.9883 99.7726 90.9931 98.3037 94.7052 96.4186L94.7445 96.1103ZM82.909 100.461L83.123 100.085C78.8924 101.133 75.5482 101.474 73.0744 101.122L72.7191 101.509L72.3638 101.896C74.9337 102.262 78.3827 101.904 82.6951 100.836L82.909 100.461ZM72.7191 101.509L73.0744 101.122C70.6086 100.771 69.1759 99.6694 68.7573 97.8249L68.2899 98.1212L67.8224 98.4175C68.2659 100.372 69.786 101.529 72.3638 101.896L72.7191 101.509ZM68.2899 98.1212L68.7573 97.8249C68.3401 95.9866 69.0876 93.3308 71.0421 89.8261L70.6199 89.9348L70.1977 90.0434C68.1834 93.6553 67.3775 96.4571 67.8224 98.4175L68.2899 98.1212ZM70.6199 89.9348L70.4059 90.3103L82.223 87.3829L82.4369 87.0074L82.6509 86.6318L70.8339 89.5592L70.6199 89.9348ZM82.4369 87.0074L82.0052 87.1338C81.2385 88.6356 80.9573 89.821 81.1946 90.6648L81.6604 90.3623L82.1263 90.0598C81.9201 89.3267 82.1566 88.2756 82.8687 86.8809L82.4369 87.0074ZM81.6604 90.3623L81.1946 90.6648C81.4305 91.5036 82.1204 92.0077 83.2467 92.184L83.6051 91.7972L83.9634 91.4105C82.9404 91.2504 82.3339 90.7978 82.1263 90.0598L81.6604 90.3623ZM83.6051 91.7972L83.2481 92.1842C84.3869 92.3554 85.8908 92.2052 87.7455 91.7458L87.9595 91.3702L88.1734 90.9947C86.4049 91.4328 85.0059 91.5673 83.9621 91.4103L83.6051 91.7972ZM87.9595 91.3702L87.7455 91.7458C89.443 91.3253 91.0267 90.757 92.4923 90.0308L92.5409 89.7178L92.5896 89.4048C91.2706 90.0584 89.8 90.5917 88.1734 90.9947L87.9595 91.3702ZM92.5409 89.7178L92.4901 90.0319C93.9632 89.3062 95.2758 88.4717 96.408 87.5225L96.2119 87.3709L96.0158 87.2192C95.0711 88.0112 93.9364 88.7413 92.5918 89.4037L92.5409 89.7178ZM96.2119 87.3709L96.408 87.5225C97.5419 86.5719 98.4088 85.5856 98.9988 84.5773L98.5827 84.6752L98.1667 84.7731C97.6724 85.6178 96.9588 86.4287 96.0158 87.2192L96.2119 87.3709ZM98.5827 84.6752L99.0059 84.5648C99.5249 83.6264 99.6636 82.8858 99.4019 82.3653L98.9439 82.6882L98.4859 83.0111C98.6926 83.4223 98.5905 84.0064 98.1596 84.7856L98.5827 84.6752ZM98.9439 82.6882L99.4032 82.3679C99.1547 81.8386 98.5125 81.5118 97.5242 81.3615L97.1668 81.7484L96.8095 82.1353C97.7392 82.2766 98.2817 82.5763 98.4846 83.0085L98.9439 82.6882ZM97.1668 81.7484L97.5293 81.3624C96.5713 81.1934 95.2612 81.1485 93.6076 81.2234L93.3043 81.6127L93.001 82.0021C94.6296 81.9283 95.8946 81.9739 96.8044 82.1345L97.1668 81.7484ZM93.3043 81.6127L93.6081 81.2234L88.9087 81.4292L88.6049 81.8186L88.3011 82.2079L93.0005 82.0021L93.3043 81.6127ZM88.6049 81.8186L88.9072 81.4293C85.0444 81.6149 82.4557 81.0167 81.1023 79.6602L80.6637 80.0099L80.225 80.3597C81.652 81.79 84.3574 82.3975 88.3026 82.2078L88.6049 81.8186ZM80.6637 80.0099L81.1029 79.6608C79.7766 78.3089 80.058 75.9684 81.997 72.5892L81.5784 72.6916L81.1598 72.7939C79.1158 76.3559 78.7874 78.8943 80.2244 80.359L80.6637 80.0099ZM81.5784 72.6916L81.9991 72.5856C83.5518 69.8358 85.7422 67.2335 88.5705 64.7654L88.3551 64.6302L88.1397 64.4951C85.1201 67.1301 82.7927 69.902 81.1578 72.7975L81.5784 72.6916ZM88.3551 64.6302L88.5705 64.7654C91.4105 62.2871 94.6384 60.0968 98.2685 58.1955L98.2955 57.8935L98.3226 57.5915C94.5466 59.5693 91.1477 61.8702 88.1397 64.4951L88.3551 64.6302ZM98.2955 57.8935L98.2685 58.1955C101.896 56.2954 105.621 54.8681 109.445 53.9208L109.659 53.5452L109.873 53.1696C105.952 54.1409 102.101 55.6125 98.3226 57.5915L98.2955 57.8935ZM109.659 53.5452L109.445 53.9208C113.354 52.9525 116.384 52.7132 118.555 53.1867L118.925 52.8022L119.296 52.4177C117.023 51.9221 113.875 52.1781 109.873 53.1696L109.659 53.5452ZM118.925 52.8022L118.557 53.1871C120.755 53.6426 122.031 54.727 122.403 56.4326L122.871 56.1374L123.338 55.8422C122.944 54.0319 121.589 52.8929 119.294 52.4173L118.925 52.8022ZM122.871 56.1374L122.403 56.4326C122.774 58.1364 122.194 60.3644 120.645 63.1322L121.067 63.0243L121.489 62.9164C123.111 60.0174 123.733 57.6542 123.338 55.8422L122.871 56.1374ZM121.067 63.0243L121.281 62.6487L109.464 65.5761L109.25 65.9517L109.036 66.3272L120.853 63.3999L121.067 63.0243Z" fill="black" mask="url(#path-15-outside-1_152_42414)"/>
<mask id="path-17-outside-2_152_42414" maskUnits="userSpaceOnUse" x="56.1872" y="40.8105" width="76.3701" height="69.6642" fill="black">
<rect fill="white" x="56.1872" y="40.8105" width="76.3701" height="69.6642"/>
<path d="M76.566 104.363L109.114 47.2329L113.202 46.2201L80.6546 103.35L76.566 104.363ZM107.9 64.2088C108.666 62.6134 108.651 61.5246 107.855 60.9423C107.085 60.341 105.494 60.3389 103.084 60.9359C101.489 61.3312 100.053 61.8465 98.7775 62.482C97.5019 63.1174 96.4117 63.8283 95.5069 64.6147C94.6106 65.3862 93.9168 66.1905 93.4255 67.0278C93.0024 67.7204 92.8087 68.2859 92.8444 68.7243C92.8968 69.1585 93.1326 69.4962 93.552 69.7373C93.9964 69.9595 94.5992 70.104 95.3605 70.171C96.1217 70.238 97.0204 70.239 98.0567 70.1739L101.936 69.9796C104.183 69.8448 106.037 69.9477 107.498 70.2883C108.977 70.6249 110.05 71.1959 110.719 72.0013C111.405 72.8026 111.669 73.8553 111.511 75.1594C111.353 76.4635 110.761 78.0285 109.736 79.8543C108.075 82.7447 105.849 85.4236 103.059 87.8909C100.268 90.3583 97.047 92.5171 93.3949 94.3674C89.7594 96.2136 85.8142 97.6637 81.5594 98.7177C77.288 99.7758 73.8914 100.125 71.3695 99.7661C68.8477 99.4069 67.3713 98.2777 66.9402 96.3783C66.5092 94.4789 67.2859 91.7501 69.2703 88.1918L81.0873 85.2645C80.3479 86.7127 80.0891 87.831 80.3108 88.6194C80.5326 89.4078 81.1808 89.8861 82.2555 90.0543C83.3468 90.2184 84.7982 90.0761 86.6099 89.6273C88.2719 89.2156 89.799 88.6648 91.1913 87.9749C92.6002 87.2808 93.8239 86.4985 94.8623 85.628C95.9007 84.7574 96.691 83.8588 97.2331 82.9323C97.7081 82.0735 97.8285 81.4112 97.5943 80.9453C97.3686 80.4645 96.7762 80.1513 95.8172 80.0055C94.8833 79.8407 93.5958 79.7955 91.9547 79.8698L87.2553 80.0756C83.3513 80.2633 80.7042 79.6604 79.3141 78.267C77.9324 76.8587 78.2373 74.4192 80.2288 70.9486C81.8226 68.126 84.0815 65.4389 87.0055 62.8873C89.9295 60.3357 93.2429 58.0902 96.9459 56.1506C100.649 54.211 104.437 52.7616 108.309 51.8023C112.265 50.8224 115.354 50.5747 117.576 51.0593C119.823 51.5248 121.138 52.6366 121.521 54.3945C121.904 56.1523 121.303 58.448 119.717 61.2814L107.9 64.2088Z"/>
</mask>
<path d="M76.566 104.363L109.114 47.2329L113.202 46.2201L80.6546 103.35L76.566 104.363ZM107.9 64.2088C108.666 62.6134 108.651 61.5246 107.855 60.9423C107.085 60.341 105.494 60.3389 103.084 60.9359C101.489 61.3312 100.053 61.8465 98.7775 62.482C97.5019 63.1174 96.4117 63.8283 95.5069 64.6147C94.6106 65.3862 93.9168 66.1905 93.4255 67.0278C93.0024 67.7204 92.8087 68.2859 92.8444 68.7243C92.8968 69.1585 93.1326 69.4962 93.552 69.7373C93.9964 69.9595 94.5992 70.104 95.3605 70.171C96.1217 70.238 97.0204 70.239 98.0567 70.1739L101.936 69.9796C104.183 69.8448 106.037 69.9477 107.498 70.2883C108.977 70.6249 110.05 71.1959 110.719 72.0013C111.405 72.8026 111.669 73.8553 111.511 75.1594C111.353 76.4635 110.761 78.0285 109.736 79.8543C108.075 82.7447 105.849 85.4236 103.059 87.8909C100.268 90.3583 97.047 92.5171 93.3949 94.3674C89.7594 96.2136 85.8142 97.6637 81.5594 98.7177C77.288 99.7758 73.8914 100.125 71.3695 99.7661C68.8477 99.4069 67.3713 98.2777 66.9402 96.3783C66.5092 94.4789 67.2859 91.7501 69.2703 88.1918L81.0873 85.2645C80.3479 86.7127 80.0891 87.831 80.3108 88.6194C80.5326 89.4078 81.1808 89.8861 82.2555 90.0543C83.3468 90.2184 84.7982 90.0761 86.6099 89.6273C88.2719 89.2156 89.799 88.6648 91.1913 87.9749C92.6002 87.2808 93.8239 86.4985 94.8623 85.628C95.9007 84.7574 96.691 83.8588 97.2331 82.9323C97.7081 82.0735 97.8285 81.4112 97.5943 80.9453C97.3686 80.4645 96.7762 80.1513 95.8172 80.0055C94.8833 79.8407 93.5958 79.7955 91.9547 79.8698L87.2553 80.0756C83.3513 80.2633 80.7042 79.6604 79.3141 78.267C77.9324 76.8587 78.2373 74.4192 80.2288 70.9486C81.8226 68.126 84.0815 65.4389 87.0055 62.8873C89.9295 60.3357 93.2429 58.0902 96.9459 56.1506C100.649 54.211 104.437 52.7616 108.309 51.8023C112.265 50.8224 115.354 50.5747 117.576 51.0593C119.823 51.5248 121.138 52.6366 121.521 54.3945C121.904 56.1523 121.303 58.448 119.717 61.2814L107.9 64.2088Z" fill="#C7EF6B"/>
<path d="M76.566 104.363L76.1464 104.467L75.9325 104.843L76.352 104.739L76.566 104.363ZM109.114 47.2329L109.328 46.8573L108.908 46.9613L108.694 47.3368L109.114 47.2329ZM113.202 46.2201L113.622 46.1161L113.836 45.7406L113.416 45.8445L113.202 46.2201ZM80.6546 103.35L80.4406 103.726L80.8601 103.622L81.0741 103.246L80.6546 103.35ZM107.9 64.2088L107.463 64.3463L107.303 64.6792L107.686 64.5843L107.9 64.2088ZM107.855 60.9423L107.427 61.301L107.43 61.3031L107.855 60.9423ZM98.7775 62.4819L98.8241 62.1699L98.8241 62.17L98.7775 62.4819ZM95.5069 64.6147L95.7157 64.7555L95.7204 64.7515L95.5069 64.6147ZM93.4255 67.0278L93.8355 66.9403L93.8412 66.9306L93.4255 67.0278ZM92.8444 68.7243L92.3739 69.0009L92.3746 69.0066L92.8444 68.7243ZM93.552 69.7373L93.1371 70.1054L93.1439 70.1089L93.552 69.7373ZM95.3605 70.171L95.7031 69.7824L95.3605 70.171ZM98.0567 70.1739L98.3584 69.7847L98.3538 69.7849L98.0567 70.1739ZM101.936 69.9796L101.634 70.3689L101.638 70.3687L101.936 69.9796ZM107.498 70.2883L107.125 70.6722L107.126 70.6724L107.498 70.2883ZM110.719 72.0013L110.274 72.344L110.275 72.3452L110.719 72.0013ZM111.511 75.1594L111.041 75.3991L111.511 75.1594ZM109.736 79.8543L110.154 79.7523L110.157 79.7473L109.736 79.8543ZM103.059 87.8909L102.837 87.7612L103.059 87.8909ZM93.3949 94.3674L93.4351 94.0587L93.4341 94.0591L93.3949 94.3674ZM71.3695 99.7661L71.7248 99.3789L71.3695 99.7661ZM69.2703 88.1918L69.4842 87.8163L69.0594 87.9215L68.8481 88.3005L69.2703 88.1918ZM81.0873 85.2645L81.5191 85.138L81.6962 84.7911L81.3013 84.8889L81.0873 85.2645ZM80.3108 88.6194L79.845 88.9219L80.3108 88.6194ZM82.2555 90.0543L81.8971 90.441L81.8984 90.4412L82.2555 90.0543ZM91.1913 87.9749L91.2422 87.6608L91.24 87.6619L91.1913 87.9749ZM94.8623 85.628L94.6662 85.4763L94.8623 85.628ZM97.2331 82.9323L97.6492 82.8344L97.6528 82.8281L97.6563 82.8219L97.2331 82.9323ZM97.5943 80.9453L97.135 81.2656L97.1363 81.2682L97.5943 80.9453ZM95.8172 80.0055L95.4547 80.3916L95.4598 80.3924L95.8172 80.0055ZM91.9547 79.8698L91.6509 80.2592L91.6514 80.2591L91.9547 79.8698ZM87.2553 80.0756L87.5591 79.6863L87.5576 79.6864L87.2553 80.0756ZM79.3141 78.267L78.8748 78.6161L78.8754 78.6167L79.3141 78.267ZM80.2288 70.9486L80.6475 70.8463L80.6495 70.8427L80.2288 70.9486ZM87.0055 62.8873L86.7901 62.7521L87.0055 62.8873ZM96.9459 56.1506L96.9189 56.4526L96.9189 56.4526L96.9459 56.1506ZM117.576 51.0593L117.205 51.4438L117.207 51.4442L117.576 51.0593ZM121.521 54.3945L121.989 54.0993L121.521 54.3945ZM119.717 61.2814L119.503 61.6569L119.927 61.5519L120.139 61.1735L119.717 61.2814ZM76.566 104.363L76.9855 104.259L109.533 47.129L109.114 47.2329L108.694 47.3368L76.1464 104.467L76.566 104.363ZM109.114 47.2329L108.9 47.6085L112.988 46.5956L113.202 46.2201L113.416 45.8445L109.328 46.8573L109.114 47.2329ZM113.202 46.2201L112.783 46.324L80.235 103.454L80.6546 103.35L81.0741 103.246L113.622 46.1161L113.202 46.2201ZM80.6546 103.35L80.8685 102.975L76.7799 103.988L76.566 104.363L76.352 104.739L80.4406 103.726L80.6546 103.35ZM107.9 64.2088L108.337 64.0712C109.146 62.3865 109.139 61.2094 108.281 60.5815L107.855 60.9423L107.43 61.3031C108.163 61.8398 108.186 62.8403 107.463 64.3463L107.9 64.2088ZM107.855 60.9423L108.284 60.5836C107.453 59.9353 105.761 59.9502 103.298 60.5603L103.084 60.9359L102.87 61.3115C105.227 60.7276 106.716 60.7467 107.427 61.301L107.855 60.9423ZM103.084 60.9359L103.298 60.5603C101.67 60.9638 100.176 61.4964 98.8241 62.1699L98.7775 62.4819L98.7308 62.794C99.9299 62.1966 101.308 61.6985 102.87 61.3115L103.084 60.9359ZM98.7775 62.4819L98.8241 62.17C97.4824 62.8384 96.2972 63.6055 95.2934 64.4778L95.5069 64.6147L95.7204 64.7515C96.5262 64.0511 97.5214 63.3964 98.7308 62.7939L98.7775 62.4819ZM95.5069 64.6147L95.2981 64.4738C94.3094 65.3248 93.5452 66.2127 93.0098 67.125L93.4255 67.0278L93.8412 66.9306C94.2884 66.1684 94.9118 65.4475 95.7157 64.7555L95.5069 64.6147ZM93.4255 67.0278L93.0156 67.1153C92.5551 67.8692 92.3334 68.5036 92.374 69.0008L92.8444 68.7243L93.3148 68.4477C93.2839 68.0682 93.4496 67.5717 93.8354 66.9403L93.4255 67.0278ZM92.8444 68.7243L92.3746 69.0066C92.4322 69.4848 92.6913 69.8489 93.1373 70.1053L93.552 69.7373L93.9667 69.3694C93.574 69.1436 93.3613 68.8323 93.3143 68.4419L92.8444 68.7243ZM93.552 69.7373L93.1439 70.1089C93.6105 70.3421 94.2374 70.491 95.0179 70.5597L95.3605 70.171L95.7031 69.7824C94.9611 69.7171 94.3823 69.5769 93.96 69.3658L93.552 69.7373ZM95.3605 70.171L95.0179 70.5597C95.7958 70.6281 96.7104 70.6288 97.7596 70.5629L98.0567 70.1739L98.3538 69.7849C97.3305 69.8492 96.4476 69.8479 95.7031 69.7824L95.3605 70.171ZM98.0567 70.1739L97.7551 70.5632L101.634 70.3689L101.936 69.9796L102.238 69.5904L98.3583 69.7847L98.0567 70.1739ZM101.936 69.9796L101.638 70.3687C103.862 70.2352 105.69 70.3376 107.125 70.6722L107.498 70.2883L107.872 69.9045C106.384 69.5577 104.503 69.4544 102.234 69.5906L101.936 69.9796ZM107.498 70.2883L107.126 70.6724C108.579 71.0031 109.625 71.5621 110.274 72.344L110.719 72.0013L111.164 71.6586C110.476 70.8297 109.375 70.2467 107.871 69.9043L107.498 70.2883ZM110.719 72.0013L110.275 72.3452C110.939 73.1216 111.194 74.1394 111.041 75.3991L111.511 75.1594L111.98 74.9197C112.143 73.5713 111.87 72.4837 111.163 71.6575L110.719 72.0013ZM111.511 75.1594L111.041 75.3991C110.889 76.6583 110.317 78.1766 109.314 79.9613L109.736 79.8543L110.157 79.7473C111.206 77.8804 111.817 76.2687 111.98 74.9197L111.511 75.1594ZM109.736 79.8543L109.317 79.9563C107.693 82.7818 105.531 85.3788 102.837 87.7612L103.059 87.8909L103.28 88.0206C106.167 85.4683 108.456 82.7076 110.154 79.7523L109.736 79.8543ZM103.059 87.8909L102.837 87.7612C100.139 90.1469 97.0113 92.2468 93.4351 94.0587L93.3949 94.3674L93.3547 94.6762C97.0827 92.7874 100.397 90.5697 103.28 88.0206L103.059 87.8909ZM93.3949 94.3674L93.4341 94.0591C89.8752 95.8664 85.9897 97.2976 81.7734 98.3421L81.5594 98.7177L81.3454 99.0932C85.6387 98.0297 89.6435 96.5608 93.3556 94.6757L93.3949 94.3674ZM81.5594 98.7177L81.7734 98.3421C77.5428 99.3901 74.1986 99.7313 71.7248 99.3789L71.3695 99.7661L71.0142 100.153C73.5841 100.519 77.0331 100.162 81.3454 99.0932L81.5594 98.7177ZM71.3695 99.7661L71.7248 99.3789C69.259 99.0277 67.8263 97.9265 67.4077 96.082L66.9402 96.3783L66.4728 96.6746C66.9163 98.6288 68.4364 99.7861 71.0142 100.153L71.3695 99.7661ZM66.9402 96.3783L67.4077 96.082C66.9905 94.2437 67.738 91.5879 69.6925 88.0832L69.2703 88.1918L68.8481 88.3005C66.8338 91.9124 66.0279 94.7142 66.4728 96.6746L66.9402 96.3783ZM69.2703 88.1918L69.0563 88.5674L80.8734 85.64L81.0873 85.2645L81.3013 84.8889L69.4842 87.8163L69.2703 88.1918ZM81.0873 85.2645L80.6556 85.3909C79.8889 86.8926 79.6077 88.0781 79.845 88.9219L80.3108 88.6194L80.7767 88.3169C80.5705 87.5838 80.807 86.5326 81.5191 85.138L81.0873 85.2645ZM80.3108 88.6194L79.845 88.9219C80.0809 89.7607 80.7708 90.2647 81.8971 90.441L82.2555 90.0543L82.6138 89.6676C81.5908 89.5075 80.9843 89.0548 80.7767 88.3169L80.3108 88.6194ZM82.2555 90.0543L81.8984 90.4412C83.0373 90.6125 84.5412 90.4623 86.3959 90.0029L86.6099 89.6273L86.8238 89.2518C85.0553 89.6899 83.6563 89.8244 82.6125 89.6674L82.2555 90.0543ZM86.6099 89.6273L86.3959 90.0029C88.0934 89.5824 89.6771 89.0141 91.1427 88.2879L91.1913 87.9749L91.24 87.6619C89.921 88.3154 88.4504 88.8488 86.8238 89.2518L86.6099 89.6273ZM91.1913 87.9749L91.1405 88.2889C92.6136 87.5633 93.9262 86.7288 95.0584 85.7796L94.8623 85.628L94.6662 85.4763C93.7215 86.2683 92.5868 86.9984 91.2422 87.6608L91.1913 87.9749ZM94.8623 85.628L95.0584 85.7796C96.1923 84.829 97.0592 83.8427 97.6492 82.8344L97.2331 82.9323L96.8171 83.0301C96.3228 83.8749 95.6092 84.6857 94.6662 85.4763L94.8623 85.628ZM97.2331 82.9323L97.6563 82.8219C98.1753 81.8835 98.314 81.1429 98.0523 80.6224L97.5943 80.9453L97.1363 81.2682C97.343 81.6794 97.2409 82.2635 96.8099 83.0427L97.2331 82.9323ZM97.5943 80.9453L98.0536 80.625C97.805 80.0956 97.1629 79.7688 96.1746 79.6186L95.8172 80.0055L95.4598 80.3924C96.3896 80.5337 96.9321 80.8334 97.135 81.2655L97.5943 80.9453ZM95.8172 80.0055L96.1797 79.6194C95.2217 79.4504 93.9116 79.4056 92.258 79.4805L91.9547 79.8698L91.6514 80.2591C93.28 80.1854 94.545 80.231 95.4548 80.3915L95.8172 80.0055ZM91.9547 79.8698L92.2585 79.4805L87.5591 79.6863L87.2553 80.0756L86.9515 80.465L91.6509 80.2592L91.9547 79.8698ZM87.2553 80.0756L87.5576 79.6864C83.6948 79.872 81.1061 79.2738 79.7527 77.9172L79.3141 78.267L78.8754 78.6167C80.3024 80.047 83.0078 80.6546 86.953 80.4649L87.2553 80.0756ZM79.3141 78.267L79.7533 77.9179C78.427 76.566 78.7084 74.2255 80.6474 70.8463L80.2288 70.9486L79.8102 71.0509C77.7662 74.613 77.4377 77.1514 78.8748 78.6161L79.3141 78.267ZM80.2288 70.9486L80.6495 70.8427C82.2022 68.0929 84.3926 65.4906 87.2209 63.0225L87.0055 62.8873L86.7901 62.7521C83.7705 65.3872 81.4431 68.1591 79.8081 71.0545L80.2288 70.9486ZM87.0055 62.8873L87.2209 63.0225C90.0608 60.5442 93.2888 58.3539 96.9189 56.4526L96.9459 56.1506L96.9729 55.8486C93.197 57.8264 89.7981 60.1273 86.7901 62.7521L87.0055 62.8873ZM96.9459 56.1506L96.9189 56.4526C100.546 54.5525 104.271 53.1252 108.095 52.1778L108.309 51.8023L108.523 51.4267C104.602 52.398 100.751 53.8696 96.9729 55.8486L96.9459 56.1506ZM108.309 51.8023L108.095 52.1778C112.004 51.2096 115.034 50.9703 117.205 51.4437L117.576 51.0593L117.946 50.6748C115.673 50.1791 112.526 50.4352 108.523 51.4267L108.309 51.8023ZM117.576 51.0593L117.207 51.4442C119.406 51.8997 120.682 52.9841 121.053 54.6897L121.521 54.3945L121.989 54.0993C121.594 52.289 120.24 51.15 117.944 50.6744L117.576 51.0593ZM121.521 54.3945L121.053 54.6897C121.425 56.3934 120.844 58.6214 119.295 61.3892L119.717 61.2814L120.139 61.1735C121.761 58.2745 122.384 55.9113 121.989 54.0993L121.521 54.3945ZM119.717 61.2814L119.931 60.9058L108.114 63.8332L107.9 64.2088L107.686 64.5843L119.503 61.6569L119.717 61.2814Z" fill="black" mask="url(#path-17-outside-2_152_42414)"/>
</svg>
