<svg width="767" height="681" viewBox="0 0 767 681" fill="none" xmlns="http://www.w3.org/2000/svg">
<path d="M759.624 129.114C759.624 200.422 593.912 258.229 389.496 258.229C185.08 258.229 19.3682 200.422 19.3682 129.114V395.951L759.624 408.862V129.114Z" fill="#2E4210"/>
<path fill-rule="evenodd" clip-rule="evenodd" d="M759.624 129.114C759.624 57.8065 593.912 0 389.496 0C185.08 0 19.3682 57.8065 19.3682 129.114C19.3682 200.422 185.08 258.229 389.496 258.229C593.912 258.229 759.624 200.422 759.624 129.114ZM137.136 120.507C137.136 87.2298 250.122 60.2534 389.496 60.2534C528.871 60.2534 641.856 87.2298 641.856 120.507C641.856 153.784 528.871 180.76 389.496 180.76C250.122 180.76 137.136 153.784 137.136 120.507Z" fill="#2E4210"/>
<path d="M389.496 60.2534C250.122 60.2534 137.136 87.2298 137.136 120.507C137.136 153.784 250.122 180.76 389.496 180.76C528.871 180.76 641.856 153.784 641.856 120.507C641.856 87.2298 528.871 60.2534 389.496 60.2534Z" fill="#2E4210"/>
<path d="M759.624 111.898C759.624 183.605 593.912 241.734 389.496 241.734C185.08 241.734 19.3682 183.605 19.3682 111.898V198.456C19.3682 270.162 185.08 328.291 389.496 328.291C593.912 328.291 759.624 270.162 759.624 198.456V111.898Z" fill="#A4DE50"/>
<path d="M759.624 198.456C759.624 270.162 593.912 328.291 389.496 328.291C185.08 328.291 19.3682 270.162 19.3682 198.456V302.324C19.3682 374.03 185.08 432.16 389.496 432.16C593.912 432.16 759.624 374.03 759.624 302.324V198.456Z" fill="#A4DE50"/>
<path d="M759.624 302.324C759.624 374.03 593.912 432.16 389.496 432.16C185.08 432.16 19.3682 374.03 19.3682 302.324V406.193C19.3682 477.899 185.08 536.028 389.496 536.028C593.912 536.028 759.624 477.899 759.624 406.193V302.324Z" fill="#A4DE50"/>
<path d="M759.624 406.193C759.624 477.899 593.912 536.028 389.496 536.028C185.08 536.028 19.3682 477.899 19.3682 406.193V510.061C19.3682 581.768 185.08 639.897 389.496 639.897C593.912 639.897 759.624 581.768 759.624 510.061V406.193Z" fill="#A4DE50"/>
<path d="M759.624 510.061C759.624 581.768 593.912 639.897 389.496 639.897C185.08 639.897 19.3682 581.768 19.3682 510.061V613.93C19.3682 685.636 185.08 743.766 389.496 743.766C593.912 743.766 759.624 685.636 759.624 613.93V510.061Z" fill="#A4DE50"/>
<path d="M763.928 180.76C763.928 252.068 598.666 309.875 389.496 309.875C180.326 309.875 19.3682 256.372 19.3682 185.064" stroke="#2E4210" stroke-width="4.30381"/>
<path d="M763.928 258.228C763.928 329.536 598.666 387.342 389.496 387.342C180.326 387.342 19.3682 333.84 19.3682 262.532" stroke="#2E4210" stroke-width="4.30381"/>
<path d="M763.928 335.696C763.928 407.004 598.666 464.81 389.496 464.81C180.326 464.81 19.3682 411.308 19.3682 340" stroke="#2E4210" stroke-width="4.30381"/>
<path d="M763.928 413.166C763.928 484.473 598.666 542.28 389.496 542.28C180.326 542.28 19.3682 488.777 19.3682 417.469" stroke="#2E4210" stroke-width="4.30381"/>
<path d="M763.928 490.633C763.928 561.941 598.666 619.748 389.496 619.748C180.326 619.748 19.3682 566.245 19.3682 494.937" stroke="#2E4210" stroke-width="4.30381"/>
<path d="M763.928 568.103C763.928 639.411 598.666 697.217 389.496 697.217C180.326 697.217 19.3682 643.715 19.3682 572.407" stroke="#2E4210" stroke-width="4.30381"/>
<path d="M755.318 654.179C755.318 725.487 590.056 783.294 380.886 783.294C171.716 783.294 10.7578 729.791 10.7578 658.483" stroke="#2E4210" stroke-width="4.30381"/>
<path d="M763.928 645.571C763.928 716.879 598.666 774.685 389.496 774.685C180.326 774.685 19.3682 721.183 19.3682 649.875" stroke="#2E4210" stroke-width="4.30381"/>
<path d="M763.928 111.898C763.928 183.206 598.666 241.013 389.496 241.013C180.326 241.013 19.3682 187.51 19.3682 116.202" stroke="#2E4210" stroke-width="4.30381"/>
</svg>
