<svg width="856" height="897" viewBox="0 0 856 897" fill="none" xmlns="http://www.w3.org/2000/svg">
<path d="M522.834 141.2C390.054 111.574 250.761 226.126 212.359 398.233C173.958 570.34 251.346 733.239 384.126 762.865C516.907 792.492 656.201 677.939 694.602 505.832C733.003 333.725 655.614 170.826 522.834 141.2Z" fill="#22453B" stroke="black" stroke-width="3.60658"/>
<ellipse cx="248.854" cy="320.28" rx="248.854" ry="320.28" transform="matrix(-0.975987 -0.217831 -0.217831 0.975987 715.206 185.679)" fill="#45907B"/>
<ellipse cx="227.113" cy="292.298" rx="227.113" ry="292.298" transform="matrix(-0.975987 -0.217831 -0.217831 0.975987 688.384 210.312)" fill="#50AF95"/>
<path fill-rule="evenodd" clip-rule="evenodd" d="M418.279 481.424L418.296 481.387C416.189 480.587 405.39 476.327 381.952 465.418C363.239 456.709 350.325 450.021 345.796 447.643L345.77 447.699C275.208 411.002 227.279 373.433 234.264 358.425C241.24 343.436 300.846 355.918 374.383 386.223L351.583 435.211C356.133 437.735 369.251 444.809 387.89 453.485C410.253 463.893 421.894 468.184 424.074 468.974L446.866 420.004C517.262 456.669 565.062 494.178 558.094 509.148C551.109 524.156 491.65 511.697 418.279 481.424ZM449.237 414.909L469.641 371.072L569.951 417.76L601.065 350.912L327.945 223.791L296.831 290.64L397.141 337.328L376.746 381.146C293.481 346.945 224.653 334.566 215.65 353.909C206.647 373.252 260.444 417.926 340.217 459.631L274.833 600.109L347.332 633.853L412.734 493.338C495.869 527.479 564.54 539.807 573.535 520.483C582.529 501.158 528.88 456.554 449.237 414.909Z" fill="white"/>
</svg>
