<svg width="180" height="203" viewBox="0 0 180 203" fill="none" xmlns="http://www.w3.org/2000/svg">
<path fill-rule="evenodd" clip-rule="evenodd" d="M45.0028 28.3115C30.1873 38.7792 28.36 48.9722 29.2983 52.7602C29.3649 52.8848 29.4383 53.0237 29.5186 53.1774L41.07 50.2495L46.0771 59.6961L43.9884 62.3253L35.0835 64.6008C38.3632 71.556 42.9646 81.5684 48.9716 95.1039C51.4891 100.777 54.1613 105.625 56.9245 109.776C61.5807 109.352 65.5018 107.74 67.7543 106.327L72.17 115.205L69.8807 118.954L65.2475 120.081C76.1137 131.032 87.3843 133.796 95.6325 135.123C100.026 135.83 105.89 135.729 112.402 134.13C111.232 132.003 110.116 130.035 109.102 128.296C112.258 124.009 121.122 115.894 131.33 117.724C132.007 119.496 132.802 121.505 133.692 123.669C139.496 119.163 145.162 113.128 150.217 105.167C153.687 99.7018 155.251 93.2246 155.457 86.2363C155.553 82.9862 155.355 79.6255 154.919 76.2046C152.917 60.5097 145.896 43.5472 139.188 30.1777C138.799 29.4027 138.411 28.6397 138.025 27.8898C136.243 24.4259 134.506 21.2398 132.916 18.4249C129.443 12.2791 126.671 7.90232 125.665 6.26552C114.44 -11.9825 63.5222 15.2267 45.0028 28.3115ZM95.6876 42.0188L95.7873 24.7078L110.731 38.0151L128.035 35.5721L127.072 40.9446L121.644 53.1017L131.123 66.3934L130.36 70.6467L112.614 67.4652L102.043 78.7403L96.2024 61.0574L79.9517 53.7541L80.8346 48.8292L95.6876 42.0188Z" fill="#C7EF6B"/>
<path d="M4.76246 59.4522C10.9914 74.9711 25.1725 106.965 32.0656 110.788C39.2685 114.784 49.4199 121.245 63.453 118.192C61.2422 115.764 59.0563 112.978 56.9245 109.776C51.7146 110.249 45.5844 109.234 39.8417 104.789C29.78 96.9993 21.194 78.9921 17.4188 69.1148C17.1136 68.3163 16.8399 67.5709 16.5993 66.8884L34.1405 62.6085C31.8639 57.8167 30.3353 54.7398 29.5186 53.1774L4.76246 59.4522Z" fill="#C7EF6B"/>
<path d="M159.019 12.2451L132.916 18.4249C134.506 21.2398 136.243 24.4259 138.025 27.8898L155.118 22.4052C160.365 32.6648 170.458 54.6375 168.862 60.451C167.504 65.3956 166.258 68.9698 162.389 72.0659C160.572 73.5201 158.177 74.8688 154.919 76.2046C155.355 79.6255 155.553 82.9862 155.457 86.2363C173.11 85.7042 178.082 70.8839 179.326 63.9443C180.321 58.3926 166.203 27.165 159.019 12.2451Z" fill="#C7EF6B"/>
<path d="M46.0771 59.6961L41.07 50.2495L29.5186 53.1774C30.3353 54.7398 31.8639 57.8167 34.1405 62.6085L46.0771 59.6961Z" fill="#C7EF6B"/>
<path d="M176.995 168.292C173.164 168.371 165.791 167.73 158.276 164.606C150.753 161.479 139.906 138.772 133.692 123.669C126.507 129.248 119.111 132.484 112.402 134.13C120.952 149.673 132.364 173.679 127.595 178.514C122.428 183.753 119.705 192.996 118.865 197.547C119.68 196.154 123.238 192.259 133.404 183.484C145.908 172.69 166.801 168.941 176.995 168.292Z" fill="#C7EF6B"/>
<path d="M131.33 117.724C121.122 115.894 112.258 124.009 109.102 128.296C110.116 130.035 111.232 132.003 112.402 134.13C119.111 132.484 126.507 129.248 133.692 123.669C132.802 121.505 132.007 119.496 131.33 117.724Z" fill="#C7EF6B"/>
<path d="M32.0656 110.788C25.1725 106.965 10.9914 74.9711 4.76246 59.4522L0.194377 63.0232C6.34452 76.8336 19.6276 105.416 23.559 109.263C28.4732 114.072 43.4905 124.389 59.4923 121.481L65.2475 120.081C64.6479 119.477 64.0496 118.848 63.453 118.192C49.4199 121.245 39.2685 114.784 32.0656 110.788Z" fill="black"/>
<path d="M16.5993 66.8884C16.8399 67.5709 17.1136 68.3163 17.4188 69.1148L35.0835 64.6008C34.756 63.9064 34.4417 63.2424 34.1405 62.6085L16.5993 66.8884Z" fill="black"/>
<path d="M43.9884 62.3253L46.0771 59.6961L34.1405 62.6085C34.4417 63.2424 34.756 63.9064 35.0835 64.6008L43.9884 62.3253Z" fill="black"/>
<path d="M155.118 22.4052L138.025 27.8898C138.411 28.6397 138.799 29.4027 139.188 30.1777L150.694 26.4641C155.6 36.0465 165.25 56.1068 164.608 59.6885L162.389 72.0659C166.258 68.9698 167.504 65.3956 168.862 60.451C170.458 54.6375 160.365 32.6648 155.118 22.4052Z" fill="black"/>
<path d="M118.754 198.186C122.355 201.296 132.78 205.784 145.668 198.852C161.777 190.188 182.691 183.077 178.424 168.218C178.028 168.254 177.548 168.281 176.995 168.292C166.801 168.941 145.908 172.69 133.404 183.484C123.238 192.259 119.68 196.154 118.865 197.547C118.823 197.772 118.786 197.985 118.754 198.186Z" fill="black"/>
<path d="M97.8604 56.9646L80.8346 48.8292L79.9517 53.7541L96.2024 61.0574L102.043 78.7403L112.614 67.4652L130.36 70.6467L131.123 66.3934L113.376 63.2119L102.415 72.7996L97.8604 56.9646Z" fill="black"/>
<path d="M95.7873 24.7078L95.6876 42.0188L80.8346 48.8292L97.8604 56.9646L102.415 72.7996L113.376 63.2119L131.123 66.3934L121.644 53.1017L120.732 51.8228L128.035 35.5721L110.731 38.0151L95.7873 24.7078Z" fill="white"/>
<path d="M72.17 115.205L67.7543 106.327C65.5018 107.74 61.5807 109.352 56.9245 109.776C59.0563 112.978 61.2422 115.764 63.453 118.192C66.2068 117.593 69.1102 116.628 72.17 115.205Z" fill="#C7EF6B"/>
<path d="M69.8807 118.954L72.17 115.205C69.1102 116.628 66.2068 117.593 63.453 118.192C64.0496 118.848 64.6479 119.477 65.2475 120.081L69.8807 118.954Z" fill="black"/>
<path d="M4.76246 59.4522C10.9914 74.9711 25.1725 106.965 32.0656 110.788C39.2685 114.784 49.4199 121.245 63.453 118.192M4.76246 59.4522L0.194377 63.0232C6.34452 76.8336 19.6276 105.416 23.559 109.263C28.4732 114.072 43.4905 124.389 59.4923 121.481L65.2475 120.081M4.76246 59.4522L29.5186 53.1774M72.17 115.205L67.7543 106.327C65.5018 107.74 61.5807 109.352 56.9245 109.776M72.17 115.205L69.8807 118.954L65.2475 120.081M72.17 115.205C69.1102 116.628 66.2068 117.593 63.453 118.192M46.0771 59.6961L41.07 50.2495L29.5186 53.1774M46.0771 59.6961L43.9884 62.3253L35.0835 64.6008M46.0771 59.6961L34.1405 62.6085M17.4188 69.1148C21.194 78.9921 29.78 96.9993 39.8417 104.789C45.5844 109.234 51.7146 110.249 56.9245 109.776M17.4188 69.1148C17.1136 68.3163 16.8399 67.5709 16.5993 66.8884L34.1405 62.6085M17.4188 69.1148L35.0835 64.6008M132.916 18.4249C129.443 12.2791 126.671 7.90232 125.665 6.26552C114.44 -11.9825 63.5222 15.2267 45.0028 28.3115C30.1873 38.7792 28.36 48.9722 29.2983 52.7602C29.3649 52.8848 29.4383 53.0237 29.5186 53.1774M132.916 18.4249L159.019 12.2451C166.203 27.165 180.321 58.3926 179.326 63.9443C178.082 70.8839 173.11 85.7042 155.457 86.2363M132.916 18.4249C134.506 21.2398 136.243 24.4259 138.025 27.8898M155.457 86.2363C155.251 93.2246 153.687 99.7018 150.217 105.167C145.162 113.128 139.496 119.163 133.692 123.669M155.457 86.2363C155.553 82.9862 155.355 79.6255 154.919 76.2046M138.025 27.8898L155.118 22.4052C160.365 32.6648 170.458 54.6375 168.862 60.451C167.504 65.3956 166.258 68.9698 162.389 72.0659M138.025 27.8898C138.411 28.6397 138.799 29.4027 139.188 30.1777M154.919 76.2046C152.917 60.5097 145.896 43.5472 139.188 30.1777M154.919 76.2046C158.177 74.8688 160.572 73.5201 162.389 72.0659M139.188 30.1777L150.694 26.4641C155.6 36.0465 165.25 56.1068 164.608 59.6885M164.608 59.6885C163.966 63.2702 162.861 69.4325 162.389 72.0659M164.608 59.6885L162.389 72.0659M178.424 168.218C182.691 183.077 161.777 190.188 145.668 198.852C132.78 205.784 122.355 201.296 118.754 198.186M178.424 168.218C177.975 168.236 177.498 168.26 176.995 168.292M178.424 168.218C178.028 168.254 177.548 168.281 176.995 168.292M118.754 198.186C118.622 198.145 118.628 197.952 118.865 197.547M118.754 198.186C118.786 197.985 118.823 197.772 118.865 197.547M80.8346 48.8292L95.6876 42.0188L95.7873 24.7078L110.731 38.0151L128.035 35.5721M80.8346 48.8292L97.8604 56.9646L102.415 72.7996L113.376 63.2119L131.123 66.3934M80.8346 48.8292L79.9517 53.7541L96.2024 61.0574L102.043 78.7403L112.614 67.4652L130.36 70.6467L131.123 66.3934M131.123 66.3934L121.644 53.1017M128.035 35.5721L120.732 51.8228L121.644 53.1017M128.035 35.5721L127.072 40.9447L121.644 53.1017M29.5186 53.1774C30.3353 54.7398 31.8639 57.8167 34.1405 62.6085M35.0835 64.6008C38.3632 71.556 42.9646 81.5684 48.9716 95.1039C51.4891 100.777 54.1613 105.625 56.9245 109.776M35.0835 64.6008C34.756 63.9064 34.4417 63.2424 34.1405 62.6085M56.9245 109.776C59.0563 112.978 61.2422 115.764 63.453 118.192M65.2475 120.081C76.1137 131.032 87.3843 133.796 95.6325 135.123C100.026 135.83 105.89 135.729 112.402 134.13M65.2475 120.081C64.6479 119.477 64.0496 118.848 63.453 118.192M112.402 134.13C111.232 132.003 110.116 130.035 109.102 128.296C112.258 124.009 121.122 115.894 131.33 117.724C132.007 119.496 132.802 121.505 133.692 123.669M112.402 134.13C120.952 149.673 132.364 173.679 127.595 178.514C122.428 183.753 119.705 192.996 118.865 197.547M112.402 134.13C119.111 132.484 126.507 129.248 133.692 123.669M133.692 123.669C139.906 138.772 150.753 161.479 158.276 164.606C165.791 167.73 173.164 168.371 176.995 168.292M176.995 168.292C166.801 168.941 145.908 172.69 133.404 183.484C123.238 192.259 119.68 196.154 118.865 197.547" stroke="black" stroke-width="0.315684"/>
</svg>
