<svg width="955" height="930" viewBox="0 0 955 930" fill="none" xmlns="http://www.w3.org/2000/svg">
<path d="M791.1 327.463C789.706 331.571 788.221 335.691 786.648 339.82C782.441 350.86 777.608 361.961 772.202 373.067C761.475 395.106 748.495 417.167 733.693 438.822C721.514 456.641 708.102 474.186 693.696 491.219C623.094 574.694 528.633 645.874 438.569 676.762C420.441 682.979 403.342 687.272 387.388 689.75C355.56 694.694 328.288 692.415 306.491 683.785C251.074 661.843 231.048 598.842 261.515 509.083C309.972 366.324 467.805 209.938 614.046 159.785C687.663 134.538 744.309 141.024 776.234 171.903C793.134 188.249 803.107 211.431 805.002 240.36C806.638 265.343 802.251 294.61 791.1 327.463Z" fill="black"/>
<path d="M387.388 689.75C355.56 694.694 328.288 692.415 306.491 683.785L418.655 756.418C400.854 740.837 390.035 718.241 387.388 689.75Z" fill="black"/>
<path d="M776.234 171.903C793.134 188.249 803.107 211.431 805.002 240.36C838.481 235.731 866.713 239.301 888.569 250.004L776.234 171.903Z" fill="black"/>
<path fill-rule="evenodd" clip-rule="evenodd" d="M914.334 449.588C905.454 469.813 894.562 490.143 882 510.24L733.693 438.822C721.514 456.641 708.102 474.186 693.696 491.219L840.732 568.14C769.755 656.61 670.752 733.25 576.566 765.551C505.797 789.822 450.824 784.574 418.655 756.418C400.854 740.837 390.035 718.241 387.388 689.75C385.015 664.216 389.205 633.948 400.812 599.752C448.776 458.446 605.228 303.574 750.258 253.836C769.754 247.15 788.05 242.704 805.002 240.36C838.481 235.731 866.713 239.301 888.569 250.004C937.969 274.198 954.794 334.84 926.012 419.635L786.648 339.82C782.441 350.86 777.608 361.961 772.202 373.067L914.334 449.588Z" fill="black"/>
<path d="M866.52 533.684C871.922 525.918 877.088 518.097 882 510.24L733.693 438.822C721.514 456.641 708.102 474.186 693.696 491.219L840.732 568.14C849.809 556.825 858.428 545.317 866.52 533.684Z" fill="white"/>
<path d="M914.334 449.588C918.735 439.564 922.641 429.566 926.012 419.635L786.648 339.82C782.441 350.86 777.608 361.961 772.202 373.067L914.334 449.588Z" fill="white"/>
<ellipse cx="279.932" cy="272.973" rx="279.932" ry="272.973" transform="matrix(0.945919 -0.324402 -0.321419 0.946937 346.807 247.165)" fill="white"/>
<path d="M603.656 182.354C736.05 136.95 807.737 204.929 763.907 334.058C720.076 463.187 577.273 604.725 444.879 650.129C312.486 695.533 240.799 627.554 284.629 498.426C328.459 369.297 471.263 227.758 603.656 182.354Z" fill="white" stroke="black" stroke-width="3.92372"/>
<path d="M280.035 498.841C325.225 369.818 470.26 227.746 603.98 181.515C681.219 154.812 737.788 165.926 763.087 204.943C733.195 182.859 684.565 179.965 622.655 201.369C488.934 247.6 343.899 389.672 298.709 518.695C279.622 573.193 281.401 616.646 299.901 645.177C265.229 619.562 255.768 568.129 280.035 498.841Z" fill="black"/>
<mask id="path-5-outside-1_6_870" maskUnits="userSpaceOnUse" x="317.315" y="231.485" width="418.531" height="379.049" fill="black">
<rect fill="white" x="317.315" y="231.485" width="418.531" height="379.049"/>
<path d="M427.507 581.276L607.556 265.242L630.173 259.639L450.124 575.673L427.507 581.276ZM600.842 359.149C605.08 350.324 604.998 344.301 600.595 341.08C596.33 337.754 587.532 337.742 574.201 341.044C565.375 343.231 557.433 346.082 550.377 349.597C543.321 353.112 537.29 357.045 532.285 361.395C527.326 365.662 523.488 370.112 520.771 374.744C518.43 378.575 517.359 381.703 517.556 384.128C517.846 386.531 519.151 388.399 521.47 389.732C523.929 390.961 527.264 391.761 531.475 392.131C535.686 392.502 540.657 392.507 546.39 392.148L567.849 391.073C580.277 390.327 590.534 390.896 598.62 392.78C606.798 394.642 612.737 397.801 616.437 402.256C620.229 406.689 621.688 412.512 620.816 419.726C619.944 426.94 616.67 435.597 610.995 445.698C601.807 461.687 589.495 476.506 574.059 490.155C558.623 503.804 540.804 515.746 520.601 525.981C500.49 536.194 478.666 544.216 455.13 550.046C431.501 555.9 412.711 557.833 398.761 555.846C384.811 553.859 376.643 547.612 374.259 537.105C371.875 526.598 376.171 511.503 387.148 491.819L452.518 475.626C448.428 483.637 446.996 489.823 448.223 494.184C449.449 498.546 453.035 501.192 458.98 502.122C465.017 503.03 473.046 502.243 483.068 499.76C492.262 497.482 500.71 494.435 508.412 490.619C516.205 486.78 522.974 482.452 528.719 477.636C534.463 472.82 538.835 467.85 541.834 462.724C544.461 457.974 545.127 454.31 543.832 451.733C542.583 449.073 539.306 447.34 534.001 446.534C528.835 445.622 521.713 445.372 512.635 445.783L486.638 446.922C465.042 447.96 450.399 444.625 442.709 436.917C435.066 429.126 436.752 415.632 447.769 396.433C456.586 380.819 469.082 365.954 485.256 351.839C501.431 337.724 519.761 325.302 540.245 314.573C560.729 303.844 581.682 295.826 603.105 290.519C624.986 285.098 642.073 283.728 654.365 286.409C666.795 288.984 674.07 295.134 676.19 304.858C678.31 314.583 674.983 327.282 666.212 342.956L600.842 359.149Z"/>
</mask>
<path d="M427.507 581.276L607.556 265.242L630.173 259.639L450.124 575.673L427.507 581.276ZM600.842 359.149C605.08 350.324 604.998 344.301 600.595 341.08C596.33 337.754 587.532 337.742 574.201 341.044C565.375 343.231 557.433 346.082 550.377 349.597C543.321 353.112 537.29 357.045 532.285 361.395C527.326 365.662 523.488 370.112 520.771 374.744C518.43 378.575 517.359 381.703 517.556 384.128C517.846 386.531 519.151 388.399 521.47 389.732C523.929 390.961 527.264 391.761 531.475 392.131C535.686 392.502 540.657 392.507 546.39 392.148L567.849 391.073C580.277 390.327 590.534 390.896 598.62 392.78C606.798 394.642 612.737 397.801 616.437 402.256C620.229 406.689 621.688 412.512 620.816 419.726C619.944 426.94 616.67 435.597 610.995 445.698C601.807 461.687 589.495 476.506 574.059 490.155C558.623 503.804 540.804 515.746 520.601 525.981C500.49 536.194 478.666 544.216 455.13 550.046C431.501 555.9 412.711 557.833 398.761 555.846C384.811 553.859 376.643 547.612 374.259 537.105C371.875 526.598 376.171 511.503 387.148 491.819L452.518 475.626C448.428 483.637 446.996 489.823 448.223 494.184C449.449 498.546 453.035 501.192 458.98 502.122C465.017 503.03 473.046 502.243 483.068 499.76C492.262 497.482 500.71 494.435 508.412 490.619C516.205 486.78 522.974 482.452 528.719 477.636C534.463 472.82 538.835 467.85 541.834 462.724C544.461 457.974 545.127 454.31 543.832 451.733C542.583 449.073 539.306 447.34 534.001 446.534C528.835 445.622 521.713 445.372 512.635 445.783L486.638 446.922C465.042 447.96 450.399 444.625 442.709 436.917C435.066 429.126 436.752 415.632 447.769 396.433C456.586 380.819 469.082 365.954 485.256 351.839C501.431 337.724 519.761 325.302 540.245 314.573C560.729 303.844 581.682 295.826 603.105 290.519C624.986 285.098 642.073 283.728 654.365 286.409C666.795 288.984 674.07 295.134 676.19 304.858C678.31 314.583 674.983 327.282 666.212 342.956L600.842 359.149Z" fill="black"/>
<path d="M427.507 581.276L425.186 581.851L424.002 583.928L426.323 583.353L427.507 581.276ZM607.556 265.242L608.739 263.164L606.418 263.739L605.235 265.817L607.556 265.242ZM630.173 259.639L632.494 259.064L633.677 256.987L631.357 257.561L630.173 259.639ZM450.124 575.673L448.941 577.75L451.261 577.175L452.445 575.098L450.124 575.673ZM600.842 359.149L598.424 359.91L597.539 361.752L599.658 361.227L600.842 359.149ZM600.595 341.08L598.224 343.064L598.232 343.07L598.239 343.076L600.595 341.08ZM550.377 349.597L550.635 347.871L550.635 347.871L550.377 349.597ZM532.285 361.395L533.44 362.174L533.453 362.163L533.465 362.152L532.285 361.395ZM520.771 374.744L523.038 374.26L523.054 374.233L523.07 374.206L520.771 374.744ZM517.556 384.128L514.954 385.658L514.955 385.674L514.957 385.69L517.556 384.128ZM521.47 389.732L519.176 391.768L519.194 391.778L519.213 391.788L521.47 389.732ZM531.475 392.131L533.37 389.982L531.475 392.131ZM546.39 392.148L548.058 389.994L548.046 389.995L548.033 389.996L546.39 392.148ZM567.849 391.073L566.18 393.226L566.19 393.225L566.2 393.225L567.849 391.073ZM598.62 392.78L596.556 394.904L596.561 394.905L598.62 392.78ZM616.437 402.256L613.975 404.152L613.978 404.155L613.98 404.158L616.437 402.256ZM620.816 419.726L618.219 421.052L618.219 421.052L620.816 419.726ZM610.995 445.698L613.31 445.133L613.317 445.119L613.325 445.106L610.995 445.698ZM574.059 490.155L572.833 489.437L572.833 489.437L574.059 490.155ZM520.601 525.981L520.824 524.273L520.819 524.276L520.601 525.981ZM398.761 555.846L400.727 553.704L398.761 555.846ZM387.148 491.819L388.332 489.742L385.982 490.324L384.813 492.42L387.148 491.819ZM452.518 475.626L454.906 474.926L455.886 473.007L453.702 473.548L452.518 475.626ZM448.223 494.184L445.646 495.858L448.223 494.184ZM458.98 502.122L456.998 504.262L457.005 504.263L458.98 502.122ZM508.412 490.619L508.693 488.882L508.681 488.888L508.412 490.619ZM528.719 477.636L527.634 476.798L528.719 477.636ZM541.834 462.724L544.135 462.183L544.156 462.148L544.175 462.114L541.834 462.724ZM543.832 451.733L541.291 453.504L541.295 453.512L541.298 453.519L543.832 451.733ZM534.001 446.534L531.996 448.669L532.01 448.672L532.024 448.674L534.001 446.534ZM512.635 445.783L510.954 447.937L510.957 447.937L512.635 445.783ZM486.638 446.922L488.319 444.768L488.311 444.768L486.638 446.922ZM442.709 436.917L440.279 438.848L440.282 438.852L442.709 436.917ZM447.769 396.433L450.085 395.867L450.091 395.857L450.096 395.847L447.769 396.433ZM485.256 351.839L484.065 351.091L485.256 351.839ZM540.245 314.573L540.095 316.243L540.095 316.243L540.245 314.573ZM654.365 286.409L652.316 288.536L652.321 288.537L652.327 288.538L654.365 286.409ZM676.19 304.858L678.777 303.225L676.19 304.858ZM666.212 342.956L665.028 345.033L667.374 344.452L668.545 342.359L666.212 342.956ZM427.507 581.276L429.828 580.701L609.876 264.667L607.556 265.242L605.235 265.817L425.186 581.851L427.507 581.276ZM607.556 265.242L606.372 267.319L628.989 261.716L630.173 259.639L631.357 257.561L608.739 263.164L607.556 265.242ZM630.173 259.639L627.852 260.214L447.803 576.248L450.124 575.673L452.445 575.098L632.494 259.064L630.173 259.639ZM450.124 575.673L451.308 573.595L428.69 579.198L427.507 581.276L426.323 583.353L448.941 577.75L450.124 575.673ZM600.842 359.149L603.26 358.389C607.736 349.069 607.698 342.557 602.95 339.084L600.595 341.08L598.239 343.076C602.298 346.044 602.424 351.579 598.424 359.91L600.842 359.149ZM600.595 341.08L602.965 339.096C598.367 335.509 589.009 335.592 575.385 338.967L574.201 341.044L573.017 343.122C586.056 339.892 594.293 339.998 598.224 343.064L600.595 341.08ZM574.201 341.044L575.385 338.967C566.376 341.199 558.115 344.145 550.635 347.871L550.377 349.597L550.119 351.323C556.752 348.019 564.374 345.263 573.017 343.122L574.201 341.044ZM550.377 349.597L550.635 347.871C543.213 351.568 536.656 355.812 531.104 360.638L532.285 361.395L533.465 362.152C537.923 358.277 543.429 354.656 550.119 351.323L550.377 349.597ZM532.285 361.395L531.129 360.616C525.66 365.323 521.433 370.234 518.471 375.281L520.771 374.744L523.07 374.206C525.544 369.99 528.992 366.002 533.44 362.174L532.285 361.395ZM520.771 374.744L518.504 375.228C515.956 379.398 514.73 382.907 514.954 385.658L517.556 384.128L520.159 382.598C519.987 380.499 520.904 377.752 523.038 374.26L520.771 374.744ZM517.556 384.128L514.957 385.69C515.276 388.335 516.709 390.349 519.176 391.768L521.47 389.732L523.765 387.697C521.592 386.448 520.416 384.726 520.155 382.566L517.556 384.128ZM521.47 389.732L519.213 391.788C521.794 393.078 525.262 393.901 529.579 394.281L531.475 392.131L533.37 389.982C529.266 389.62 526.064 388.845 523.728 387.677L521.47 389.732ZM531.475 392.131L529.579 394.281C533.883 394.66 538.942 394.664 544.746 394.299L546.39 392.148L548.033 389.996C542.373 390.351 537.488 390.344 533.37 389.982L531.475 392.131ZM546.39 392.148L544.721 394.301L566.18 393.226L567.849 391.073L569.517 388.919L548.058 389.994L546.39 392.148ZM567.849 391.073L566.2 393.225C578.505 392.486 588.614 393.053 596.556 394.904L598.62 392.78L600.684 390.657C592.453 388.739 582.048 388.167 569.498 388.92L567.849 391.073ZM598.62 392.78L596.561 394.905C604.596 396.734 610.383 399.827 613.975 404.152L616.437 402.256L618.899 400.361C615.091 395.775 609 392.55 600.678 390.656L598.62 392.78ZM616.437 402.256L613.98 404.158C617.654 408.454 619.062 414.084 618.219 421.052L620.816 419.726L623.413 418.4C624.315 410.941 622.803 404.924 618.894 400.354L616.437 402.256ZM620.816 419.726L618.219 421.052C617.377 428.018 614.212 436.417 608.664 446.289L610.995 445.698L613.325 445.106C619.128 434.778 622.511 425.863 623.413 418.4L620.816 419.726ZM610.995 445.698L608.68 446.262C599.698 461.892 587.737 476.258 572.833 489.437L574.059 490.155L575.285 490.872C591.252 476.753 603.915 461.481 613.31 445.133L610.995 445.698ZM574.059 490.155L572.833 489.437C557.909 502.634 540.607 514.251 520.824 524.273L520.601 525.981L520.379 527.689C541.002 517.241 559.338 504.973 575.285 490.872L574.059 490.155ZM520.601 525.981L520.819 524.276C501.131 534.274 479.637 542.191 456.313 547.969L455.13 550.046L453.946 552.124C477.696 546.241 499.85 538.115 520.384 527.687L520.601 525.981ZM455.13 550.046L456.313 547.969C432.911 553.766 414.411 555.653 400.727 553.704L398.761 555.846L396.796 557.988C411.012 560.013 430.091 558.033 453.946 552.124L455.13 550.046ZM398.761 555.846L400.727 553.704C387.086 551.762 379.16 545.67 376.845 535.466L374.259 537.105L371.673 538.744C374.127 549.555 382.535 555.957 396.796 557.988L398.761 555.846ZM374.259 537.105L376.845 535.466C374.537 525.297 378.672 510.606 389.484 491.218L387.148 491.819L384.813 492.42C373.67 512.401 369.212 527.9 371.673 538.744L374.259 537.105ZM387.148 491.819L385.965 493.897L451.335 477.703L452.518 475.626L453.702 473.548L388.332 489.742L387.148 491.819ZM452.518 475.626L450.13 476.325C445.889 484.632 444.333 491.19 445.646 495.858L448.223 494.184L450.8 492.511C449.659 488.456 450.967 482.641 454.906 474.926L452.518 475.626ZM448.223 494.184L445.646 495.858C446.951 500.498 450.767 503.286 456.998 504.261L458.98 502.122L460.962 499.983C455.303 499.097 451.948 496.593 450.8 492.511L448.223 494.184ZM458.98 502.122L457.005 504.263C463.305 505.21 471.624 504.379 481.884 501.838L483.068 499.76L484.251 497.683C474.468 500.106 466.729 500.85 460.955 499.982L458.98 502.122ZM483.068 499.76L481.884 501.838C491.274 499.511 500.035 496.368 508.143 492.35L508.412 490.619L508.681 488.888C501.384 492.503 493.249 495.454 484.251 497.683L483.068 499.76ZM508.412 490.619L508.13 492.356C516.279 488.342 523.541 483.726 529.804 478.475L528.719 477.636L527.634 476.798C522.408 481.178 516.131 485.217 508.693 488.882L508.412 490.619ZM528.719 477.636L529.804 478.475C536.076 473.217 540.872 467.761 544.135 462.183L541.834 462.724L539.532 463.266C536.798 467.939 532.85 472.424 527.634 476.798L528.719 477.636ZM541.834 462.724L544.175 462.114C547.046 456.922 547.813 452.826 546.365 449.947L543.832 451.733L541.298 453.519C542.442 455.794 541.877 459.025 539.493 463.335L541.834 462.724ZM543.832 451.733L546.372 449.961C544.998 447.033 541.445 445.225 535.978 444.394L534.001 446.534L532.024 448.674C537.167 449.456 540.169 451.114 541.291 453.504L543.832 451.733ZM534.001 446.534L536.006 444.398C530.707 443.463 523.46 443.215 514.312 443.63L512.635 445.783L510.957 447.937C519.966 447.529 526.963 447.781 531.996 448.669L534.001 446.534ZM512.635 445.783L514.315 443.63L488.319 444.768L486.638 446.922L484.958 449.076L510.954 447.937L512.635 445.783ZM486.638 446.922L488.311 444.768C466.942 445.796 452.622 442.486 445.135 434.982L442.709 436.917L440.282 438.852C448.176 446.764 463.142 450.124 484.966 449.075L486.638 446.922ZM442.709 436.917L445.139 434.986C437.802 427.507 439.358 414.56 450.085 395.867L447.769 396.433L445.453 396.999C434.146 416.704 432.329 430.745 440.279 438.848L442.709 436.917ZM447.769 396.433L450.096 395.847C458.686 380.635 470.802 366.24 486.448 352.587L485.256 351.839L484.065 351.091C467.361 365.668 454.486 381.002 445.442 397.019L447.769 396.433ZM485.256 351.839L486.448 352.587C502.158 338.877 520.015 326.761 540.095 316.243L540.245 314.573L540.395 312.902C519.507 323.843 500.704 336.571 484.065 351.091L485.256 351.839ZM540.245 314.573L540.095 316.243C560.163 305.733 580.766 297.837 601.921 292.596L603.105 290.519L604.288 288.441C582.599 293.814 561.296 301.955 540.395 312.902L540.245 314.573ZM603.105 290.519L601.921 292.596C623.543 287.24 640.306 285.916 652.316 288.536L654.365 286.409L656.414 284.282C643.841 281.54 626.43 282.956 604.288 288.441L603.105 290.519ZM654.365 286.409L652.327 288.538C664.489 291.058 671.546 297.057 673.603 306.491L676.19 304.858L678.777 303.225C676.594 293.211 669.102 286.911 656.403 284.279L654.365 286.409ZM676.19 304.858L673.603 306.491C675.657 315.916 672.447 328.241 663.879 343.552L666.212 342.956L668.545 342.359C677.52 326.322 680.962 313.249 678.777 303.225L676.19 304.858ZM666.212 342.956L667.395 340.878L602.026 357.072L600.842 359.149L599.658 361.227L665.028 345.033L666.212 342.956Z" fill="black" mask="url(#path-5-outside-1_6_870)"/>
<mask id="path-7-outside-2_6_870" maskUnits="userSpaceOnUse" x="309.85" y="221.845" width="418.531" height="379.049" fill="black">
<rect fill="white" x="309.85" y="221.845" width="418.531" height="379.049"/>
<path d="M420.042 571.636L600.091 255.602L622.708 249.999L442.659 566.033L420.042 571.636ZM593.377 349.51C597.615 340.684 597.533 334.661 593.13 331.44C588.865 328.114 580.068 328.102 566.736 331.405C557.91 333.591 549.969 336.442 542.912 339.957C535.856 343.472 529.825 347.405 524.82 351.755C519.862 356.023 516.024 360.472 513.306 365.104C510.965 368.935 509.894 372.064 510.091 374.489C510.381 376.891 511.686 378.759 514.006 380.093C516.464 381.322 519.799 382.121 524.01 382.492C528.221 382.862 533.192 382.868 538.925 382.508L560.384 381.433C572.812 380.687 583.069 381.256 591.155 383.141C599.333 385.003 605.272 388.161 608.972 392.617C612.764 397.049 614.224 402.873 613.351 410.087C612.479 417.301 609.205 425.958 603.53 436.058C594.342 452.047 582.03 466.866 566.594 480.515C551.159 494.164 533.339 506.106 513.136 516.342C493.026 526.554 471.202 534.576 447.665 540.407C424.036 546.26 405.247 548.193 391.296 546.206C377.346 544.22 369.179 537.973 366.794 527.466C364.41 516.959 368.706 501.863 379.684 482.18L445.053 465.986C440.963 473.997 439.531 480.183 440.758 484.545C441.985 488.906 445.57 491.552 451.515 492.483C457.552 493.39 465.581 492.603 475.603 490.12C484.797 487.843 493.245 484.796 500.947 480.979C508.741 477.14 515.51 472.813 521.254 467.997C526.998 463.181 531.37 458.21 534.369 453.085C536.997 448.334 537.663 444.67 536.367 442.093C535.118 439.434 531.842 437.701 526.536 436.894C521.37 435.983 514.248 435.733 505.17 436.144L479.173 437.282C457.577 438.32 442.934 434.985 435.244 427.277C427.601 419.487 429.287 405.992 440.304 386.793C449.121 371.179 461.617 356.314 477.792 342.2C493.966 328.085 512.296 315.663 532.78 304.933C553.264 294.204 574.218 286.186 595.64 280.879C617.522 275.459 634.608 274.088 646.9 276.769C659.331 279.344 666.606 285.494 668.725 295.219C670.845 304.943 667.519 317.642 658.747 333.316L593.377 349.51Z"/>
</mask>
<path d="M420.042 571.636L600.091 255.602L622.708 249.999L442.659 566.033L420.042 571.636ZM593.377 349.51C597.615 340.684 597.533 334.661 593.13 331.44C588.865 328.114 580.068 328.102 566.736 331.405C557.91 333.591 549.969 336.442 542.912 339.957C535.856 343.472 529.825 347.405 524.82 351.755C519.862 356.023 516.024 360.472 513.306 365.104C510.965 368.935 509.894 372.064 510.091 374.489C510.381 376.891 511.686 378.759 514.006 380.093C516.464 381.322 519.799 382.121 524.01 382.492C528.221 382.862 533.192 382.868 538.925 382.508L560.384 381.433C572.812 380.687 583.069 381.256 591.155 383.141C599.333 385.003 605.272 388.161 608.972 392.617C612.764 397.049 614.224 402.873 613.351 410.087C612.479 417.301 609.205 425.958 603.53 436.058C594.342 452.047 582.03 466.866 566.594 480.515C551.159 494.164 533.339 506.106 513.136 516.342C493.026 526.554 471.202 534.576 447.665 540.407C424.036 546.26 405.247 548.193 391.296 546.206C377.346 544.22 369.179 537.973 366.794 527.466C364.41 516.959 368.706 501.863 379.684 482.18L445.053 465.986C440.963 473.997 439.531 480.183 440.758 484.545C441.985 488.906 445.57 491.552 451.515 492.483C457.552 493.39 465.581 492.603 475.603 490.12C484.797 487.843 493.245 484.796 500.947 480.979C508.741 477.14 515.51 472.813 521.254 467.997C526.998 463.181 531.37 458.21 534.369 453.085C536.997 448.334 537.663 444.67 536.367 442.093C535.118 439.434 531.842 437.701 526.536 436.894C521.37 435.983 514.248 435.733 505.17 436.144L479.173 437.282C457.577 438.32 442.934 434.985 435.244 427.277C427.601 419.487 429.287 405.992 440.304 386.793C449.121 371.179 461.617 356.314 477.792 342.2C493.966 328.085 512.296 315.663 532.78 304.933C553.264 294.204 574.218 286.186 595.64 280.879C617.522 275.459 634.608 274.088 646.9 276.769C659.331 279.344 666.606 285.494 668.725 295.219C670.845 304.943 667.519 317.642 658.747 333.316L593.377 349.51Z" fill="#C7EF6B"/>
<path d="M420.042 571.636L417.721 572.211L416.538 574.288L418.858 573.714L420.042 571.636ZM600.091 255.602L601.274 253.525L598.954 254.1L597.77 256.177L600.091 255.602ZM622.708 249.999L625.029 249.424L626.213 247.347L623.892 247.922L622.708 249.999ZM442.659 566.033L441.476 568.111L443.797 567.536L444.98 565.458L442.659 566.033ZM593.377 349.51L590.959 350.27L590.074 352.112L592.194 351.587L593.377 349.51ZM593.13 331.44L590.759 333.424L590.767 333.43L590.775 333.436L593.13 331.44ZM542.912 339.957L543.17 338.231L543.17 338.231L542.912 339.957ZM524.82 351.755L525.975 352.534L525.988 352.523L526.001 352.512L524.82 351.755ZM513.306 365.104L515.573 364.62L515.59 364.593L515.605 364.566L513.306 365.104ZM510.091 374.489L507.489 376.019L507.49 376.035L507.492 376.051L510.091 374.489ZM514.006 380.093L511.711 382.128L511.729 382.138L511.748 382.148L514.006 380.093ZM524.01 382.492L525.905 380.342L524.01 382.492ZM538.925 382.508L540.593 380.355L540.581 380.355L540.569 380.356L538.925 382.508ZM560.384 381.433L558.715 383.586L558.725 383.586L558.735 383.585L560.384 381.433ZM591.155 383.141L589.091 385.264L589.096 385.265L591.155 383.141ZM608.972 392.617L606.51 394.512L606.513 394.516L606.515 394.519L608.972 392.617ZM613.351 410.087L610.754 411.413L610.754 411.413L613.351 410.087ZM603.53 436.058L605.845 435.494L605.853 435.48L605.86 435.466L603.53 436.058ZM566.594 480.515L565.368 479.798L565.368 479.798L566.594 480.515ZM513.136 516.342L513.359 514.634L513.354 514.636L513.136 516.342ZM391.296 546.206L393.262 544.065L391.296 546.206ZM379.684 482.18L380.867 480.102L378.517 480.684L377.348 482.781L379.684 482.18ZM445.053 465.986L447.442 465.286L448.421 463.367L446.237 463.908L445.053 465.986ZM440.758 484.545L438.181 486.218L440.758 484.545ZM451.515 492.483L449.533 494.622L449.54 494.623L451.515 492.483ZM500.947 480.979L501.228 479.242L501.216 479.248L500.947 480.979ZM521.254 467.997L520.169 467.158L521.254 467.997ZM534.369 453.085L536.67 452.543L536.691 452.509L536.71 452.474L534.369 453.085ZM536.367 442.093L533.826 443.865L533.83 443.872L533.833 443.879L536.367 442.093ZM526.536 436.894L524.532 439.03L524.545 439.032L524.56 439.034L526.536 436.894ZM505.17 436.144L503.489 438.298L503.492 438.297L505.17 436.144ZM479.173 437.282L480.854 435.128L480.846 435.129L479.173 437.282ZM435.244 427.277L432.814 429.208L432.818 429.212L435.244 427.277ZM440.304 386.793L442.62 386.227L442.626 386.217L442.631 386.207L440.304 386.793ZM477.792 342.2L476.6 341.452L477.792 342.2ZM532.78 304.933L532.631 306.604L532.631 306.604L532.78 304.933ZM646.9 276.769L644.851 278.896L644.857 278.897L644.862 278.898L646.9 276.769ZM668.725 295.219L671.312 293.586L668.725 295.219ZM658.747 333.316L657.563 335.393L659.909 334.812L661.08 332.719L658.747 333.316ZM420.042 571.636L422.363 571.061L602.412 255.027L600.091 255.602L597.77 256.177L417.721 572.211L420.042 571.636ZM600.091 255.602L598.907 257.68L621.525 252.077L622.708 249.999L623.892 247.922L601.274 253.525L600.091 255.602ZM622.708 249.999L620.387 250.574L440.338 566.608L442.659 566.033L444.98 565.458L625.029 249.424L622.708 249.999ZM442.659 566.033L443.843 563.956L421.226 569.559L420.042 571.636L418.858 573.714L441.476 568.111L442.659 566.033ZM593.377 349.51L595.796 348.749C600.271 339.429 600.233 332.917 595.485 329.444L593.13 331.44L590.775 333.436C594.833 336.405 594.959 341.94 590.959 350.27L593.377 349.51ZM593.13 331.44L595.5 329.456C590.903 325.87 581.544 325.952 567.92 329.327L566.736 331.405L565.553 333.482C578.591 330.252 586.828 330.358 590.759 333.424L593.13 331.44ZM566.736 331.405L567.92 329.327C558.911 331.559 550.65 334.505 543.17 338.231L542.912 339.957L542.654 341.683C549.287 338.379 556.909 335.624 565.553 333.482L566.736 331.405ZM542.912 339.957L543.17 338.231C535.748 341.929 529.191 346.172 523.639 350.998L524.82 351.755L526.001 352.512C530.459 348.638 535.964 345.016 542.654 341.683L542.912 339.957ZM524.82 351.755L523.665 350.976C518.195 355.683 513.968 360.595 511.007 365.642L513.306 365.104L515.605 364.566C518.079 360.35 521.528 356.362 525.975 352.534L524.82 351.755ZM513.306 365.104L511.039 365.588C508.491 369.758 507.265 373.268 507.489 376.019L510.091 374.489L512.694 372.959C512.523 370.859 513.439 368.113 515.573 364.62L513.306 365.104ZM510.091 374.489L507.492 376.051C507.811 378.695 509.244 380.71 511.711 382.128L514.006 380.093L516.3 378.057C514.127 376.808 512.951 375.086 512.691 372.927L510.091 374.489ZM514.006 380.093L511.748 382.148C514.329 383.438 517.797 384.262 522.115 384.642L524.01 382.492L525.905 380.342C521.801 379.981 518.599 379.205 516.263 378.038L514.006 380.093ZM524.01 382.492L522.115 384.642C526.418 385.02 531.477 385.024 537.281 384.66L538.925 382.508L540.569 380.356C534.908 380.711 530.023 380.704 525.905 380.342L524.01 382.492ZM538.925 382.508L537.256 384.661L558.715 383.586L560.384 381.433L562.053 379.28L540.593 380.355L538.925 382.508ZM560.384 381.433L558.735 383.585C571.04 382.847 581.149 383.413 589.091 385.264L591.155 383.141L593.219 381.017C584.989 379.099 574.584 378.527 562.033 379.281L560.384 381.433ZM591.155 383.141L589.096 385.265C597.131 387.094 602.918 390.187 606.51 394.512L608.972 392.617L611.434 390.721C607.626 386.135 601.535 382.91 593.213 381.016L591.155 383.141ZM608.972 392.617L606.515 394.519C610.19 398.814 611.597 404.444 610.754 411.413L613.351 410.087L615.948 408.761C616.85 401.302 615.338 395.285 611.429 390.715L608.972 392.617ZM613.351 410.087L610.754 411.413C609.912 418.378 606.747 426.777 601.2 436.65L603.53 436.058L605.86 435.466C611.663 425.138 615.046 416.223 615.948 408.761L613.351 410.087ZM603.53 436.058L601.215 436.622C592.233 452.252 580.272 466.619 565.368 479.798L566.594 480.515L567.82 481.232C583.787 467.113 596.45 451.842 605.845 435.494L603.53 436.058ZM566.594 480.515L565.368 479.798C550.444 492.995 533.142 504.611 513.359 514.634L513.136 516.342L512.914 518.05C533.537 507.602 551.873 495.333 567.82 481.232L566.594 480.515ZM513.136 516.342L513.354 514.636C493.666 524.634 472.173 532.551 448.848 538.329L447.665 540.407L446.481 542.484C470.231 536.601 492.385 528.475 512.919 518.047L513.136 516.342ZM447.665 540.407L448.848 538.329C425.446 544.127 406.946 546.014 393.262 544.065L391.296 546.206L389.331 548.348C403.547 550.373 422.626 548.394 446.481 542.484L447.665 540.407ZM391.296 546.206L393.262 544.065C379.621 542.122 371.696 536.03 369.38 525.827L366.794 527.466L364.208 529.105C366.662 539.915 375.071 546.317 389.331 548.348L391.296 546.206ZM366.794 527.466L369.38 525.827C367.072 515.658 371.207 500.966 382.019 481.579L379.684 482.18L377.348 482.781C366.206 502.761 361.748 518.26 364.208 529.105L366.794 527.466ZM379.684 482.18L378.5 484.257L443.87 468.063L445.053 465.986L446.237 463.908L380.867 480.102L379.684 482.18ZM445.053 465.986L442.665 466.686C438.424 474.993 436.868 481.551 438.181 486.218L440.758 484.545L443.335 482.871C442.195 478.816 443.503 473.001 447.442 465.286L445.053 465.986ZM440.758 484.545L438.181 486.218C439.486 490.858 443.303 493.647 449.533 494.622L451.515 492.483L453.498 490.343C447.838 489.457 444.483 486.954 443.335 482.871L440.758 484.545ZM451.515 492.483L449.54 494.623C455.84 495.57 464.159 494.74 474.419 492.198L475.603 490.12L476.787 488.043C467.004 490.466 459.264 491.21 453.49 490.342L451.515 492.483ZM475.603 490.12L474.419 492.198C483.81 489.872 492.57 486.728 500.678 482.711L500.947 480.979L501.216 479.248C493.92 482.863 485.785 485.814 476.787 488.043L475.603 490.12ZM500.947 480.979L500.665 482.717C508.815 478.703 516.076 474.086 522.339 468.835L521.254 467.997L520.169 467.158C514.943 471.539 508.667 475.578 501.228 479.242L500.947 480.979ZM521.254 467.997L522.339 468.835C528.611 463.577 533.407 458.121 536.67 452.543L534.369 453.085L532.067 453.626C529.333 458.299 525.386 462.785 520.169 467.158L521.254 467.997ZM534.369 453.085L536.71 452.474C539.581 447.283 540.348 443.186 538.901 440.307L536.367 442.093L533.833 443.879C534.977 446.154 534.412 449.385 532.028 453.695L534.369 453.085ZM536.367 442.093L538.908 440.321C537.533 437.393 533.98 435.585 528.513 434.754L526.536 436.894L524.56 439.034C529.703 439.816 532.704 441.474 533.826 443.865L536.367 442.093ZM526.536 436.894L528.541 434.759C523.242 433.824 515.995 433.576 506.848 433.99L505.17 436.144L503.492 438.297C512.501 437.889 519.499 438.142 524.532 439.03L526.536 436.894ZM505.17 436.144L506.85 433.99L480.854 435.128L479.173 437.282L477.493 439.436L503.489 438.298L505.17 436.144ZM479.173 437.282L480.846 435.129C459.478 436.156 445.157 432.847 437.671 425.342L435.244 427.277L432.818 429.212C440.711 437.124 455.677 440.485 477.501 439.436L479.173 437.282ZM435.244 427.277L437.674 425.346C430.337 417.868 431.893 404.92 442.62 386.227L440.304 386.793L437.988 387.359C426.681 407.064 424.865 421.106 432.814 429.208L435.244 427.277ZM440.304 386.793L442.631 386.207C451.221 370.996 463.337 356.6 478.983 342.947L477.792 342.2L476.6 341.452C459.896 356.029 447.021 371.362 437.977 387.379L440.304 386.793ZM477.792 342.2L478.983 342.947C494.693 329.238 512.55 317.122 532.631 306.604L532.78 304.933L532.93 303.263C512.042 314.203 493.24 326.931 476.6 341.452L477.792 342.2ZM532.78 304.933L532.631 306.604C552.698 296.093 573.301 288.197 594.456 282.957L595.64 280.879L596.823 278.802C575.134 284.175 553.831 292.315 532.93 303.263L532.78 304.933ZM595.64 280.879L594.456 282.957C616.078 277.6 632.841 276.277 644.851 278.896L646.9 276.769L648.949 274.642C636.376 271.9 618.965 273.317 596.823 278.802L595.64 280.879ZM646.9 276.769L644.862 278.898C657.024 281.418 664.082 287.417 666.138 296.852L668.725 295.219L671.312 293.586C669.13 283.572 661.637 277.271 648.938 274.64L646.9 276.769ZM668.725 295.219L666.138 296.852C668.192 306.277 664.982 318.602 656.414 333.913L658.747 333.316L661.08 332.719C670.055 316.682 673.497 303.609 671.312 293.586L668.725 295.219ZM658.747 333.316L659.931 331.238L594.561 347.432L593.377 349.51L592.194 351.587L657.563 335.393L658.747 333.316Z" fill="black" mask="url(#path-7-outside-2_6_870)"/>
</svg>
