<svg width="697" height="732" viewBox="0 0 697 732" fill="none" xmlns="http://www.w3.org/2000/svg">
<path d="M259.888 111.858C370.083 83.1928 489.945 174.933 527.101 317.765C564.256 460.597 504.293 599.116 394.098 627.782C283.903 656.447 164.041 564.707 126.885 421.875C89.7297 279.043 149.694 140.524 259.888 111.858Z" fill="#134377" stroke="#134377" stroke-width="3.0185"/>
<ellipse cx="369.35" cy="361.651" rx="208.277" ry="268.056" transform="rotate(-14.5851 369.35 361.651)" fill="#2775CA"/>
<ellipse cx="369.002" cy="363.39" rx="190.08" ry="244.637" transform="rotate(-14.5851 369.002 363.39)" fill="#60A1E9"/>
<path d="M421.606 363.191C410.468 334.597 394.054 333.276 367.271 346.157C348.004 355.007 341.86 350.896 337.404 339.456C332.948 328.017 336.083 316.626 348.078 308.548C358.875 301.277 366.783 302.139 374.555 312.374C376.11 314.421 378.545 314.843 380.345 313.631L389.94 307.168C392.34 305.552 393.185 301.889 391.912 298.623L391.594 297.805C382.193 281.447 365.987 274.829 351.556 282.487L343.918 262.879C342.645 259.61 339.89 258.371 336.574 259.573L327.577 265.632C325.177 267.248 324.332 270.911 325.324 275.401L332.643 294.192C315.922 309.579 310.892 333.592 318.848 354.018C329.35 380.978 345.482 383.519 372.265 370.64C390.651 363.413 397.958 364.68 403.05 377.752C408.142 390.825 403.245 405.467 391.849 413.142C376.254 423.645 367.355 418.292 360.782 407.249C358.91 404.386 356.474 403.962 354.674 405.174L344.477 412.042C342.079 413.657 341.234 417.32 342.507 420.588L342.826 421.406C353.18 440.214 368.505 448.457 389.89 439.213L397.528 458.821C398.8 462.087 401.554 463.326 404.871 462.125L413.868 456.066C416.268 454.449 417.112 450.787 416.122 446.298L408.484 426.69C424.886 410.485 430.199 385.25 421.606 363.191Z" fill="white"/>
<path d="M384.348 496.594C328.788 505.026 277.088 449.776 269.822 374.952C265.37 334.469 274.869 294.943 294.581 266.139C296.333 262.889 296.569 259.624 294.972 255.522L290.499 244.041C289.221 240.76 287.068 239.104 284.358 239.896C283.76 240.299 282.565 241.103 282.286 242.325C235.094 305.166 236.282 408.93 284.56 474.766C313.207 513.448 352.643 531.406 391.861 523.629C394.89 523.658 396.643 520.408 395.961 516.725C396.24 515.503 395.921 514.683 395.282 513.043L390.809 501.56C389.851 499.1 386.781 497.028 384.348 496.594ZM348.028 198.05C344.998 198.02 343.246 201.27 343.927 204.953C343.649 206.177 343.968 206.996 344.607 208.637L349.079 220.118C350.357 223.399 353.428 225.471 355.86 225.905C411.421 217.473 463.12 272.723 470.386 347.547C474.839 388.03 465.339 427.556 445.628 456.36C443.875 459.61 443.639 462.875 445.237 466.977L449.709 478.458C450.987 481.739 453.14 483.395 455.85 482.603C456.448 482.2 457.643 481.396 457.922 480.174C505.114 417.333 503.926 313.569 455.649 247.733C426.682 208.231 386.648 190.675 348.028 198.05Z" fill="white"/>
</svg>
