<svg width="788" height="845" viewBox="0 0 788 845" fill="none" xmlns="http://www.w3.org/2000/svg">
<g opacity="0.4">
<path d="M567.529 829.804C590.078 826.708 608.274 809.826 613.048 787.572L780.715 5.93487L407.447 766.713C388.374 805.587 420.45 849.995 463.349 844.106L567.529 829.804Z" fill="#ECEEED"/>
<path d="M703.171 743.563C699.501 778.466 729.536 807.564 764.305 802.791L834.206 793.195C863.794 789.133 884.487 761.855 880.425 732.267L780.715 5.93487L703.171 743.563Z" fill="#ECEEED"/>
<path d="M83.6888 273.586C51.0658 286.525 14.9512 265.443 10.1781 230.674L0.582184 160.773C-3.47962 131.185 17.2134 103.907 46.8013 99.8451L773.133 0.13499L83.6888 273.586Z" fill="#ECEEED"/>
<path d="M37.1913 427.45C34.0958 404.901 45.4504 382.828 65.5945 372.234L773.133 0.13499L144.511 583.336C112.425 613.104 60.1113 594.409 54.1586 551.048L37.1913 427.45Z" fill="#ECEEED"/>
</g>
</svg>
