<svg width="135" height="30" viewBox="0 0 135 30" fill="none" xmlns="http://www.w3.org/2000/svg">
<path d="M12.5313 1C11.7319 1 11.0181 1.50053 10.7456 2.25207L1 29.1378L17.9524 3.96014C18.8019 2.69852 17.8978 1 16.3769 1H12.5313Z" fill="#235538"/>
<path d="M7.34232 3.353C7.63675 2.156 6.73064 1 5.49796 1H2.89934C1.85036 1 1 1.85036 1 2.89934V29.1378L7.34232 3.353Z" fill="#235538"/>
<path d="M27.0271 23.0381C28.224 22.7437 29.38 23.6498 29.38 24.8824V27.4807C29.38 28.5296 28.5296 29.38 27.4807 29.38H1.2403L27.0271 23.0381Z" fill="#235538"/>
<path d="M29.38 17.8493C29.38 18.6488 28.8794 19.3626 28.1279 19.635L1.2403 29.38L26.3903 11.7469C27.649 10.8644 29.38 11.7648 29.38 13.3021V17.8493Z" fill="#235538"/>
<path d="M1 29.1378L7.34232 3.353C7.63675 2.156 6.73064 1 5.49796 1H2.89934C1.85036 1 1 1.85036 1 2.89934V29.1378ZM1 29.1378L10.7456 2.25207C11.0181 1.50053 11.7319 1 12.5313 1H16.3769C17.8978 1 18.8019 2.69852 17.9524 3.96014L1 29.1378ZM1.2403 29.38L27.0271 23.0381C28.224 22.7437 29.38 23.6498 29.38 24.8824V27.4807C29.38 28.5296 28.5296 29.38 27.4807 29.38H1.2403ZM1.2403 29.38L28.1279 19.635C28.8794 19.3626 29.38 18.6488 29.38 17.8493V13.3021C29.38 11.7648 27.649 10.8644 26.3903 11.7469L1.2403 29.38Z" stroke="#235538" stroke-width="0.178963"/>
<path d="M39.5562 27.7941C39.1606 27.7941 38.8398 27.4733 38.8398 27.0777V3.30215C38.8398 2.90649 39.1606 2.58575 39.5562 2.58575H44.3374C44.733 2.58575 45.0538 2.90649 45.0538 3.30215V27.0777C45.0538 27.4733 44.733 27.7941 44.3374 27.7941H39.5562ZM40.6303 27.7941C40.2346 27.7941 39.9139 27.4733 39.9139 27.0777V23.2397C39.9139 22.844 40.2346 22.5232 40.6303 22.5232H53.9652C54.3608 22.5232 54.6816 22.844 54.6816 23.2397V27.0777C54.6816 27.4733 54.3608 27.7941 53.9652 27.7941H40.6303Z" fill="black"/>
<path d="M57.1993 27.7941C56.8036 27.7941 56.4829 27.4733 56.4829 27.0777V3.30215C56.4829 2.90649 56.8036 2.58575 57.1993 2.58575H62.0188C62.4144 2.58575 62.7352 2.90649 62.7352 3.30215V27.0777C62.7352 27.4733 62.4144 27.7941 62.0188 27.7941H57.1993Z" fill="black"/>
<path d="M75.7447 28.3288C73.9547 28.3288 72.382 28.1251 71.0267 27.7177C69.697 27.3103 68.5846 26.7246 67.6896 25.9607C66.7946 25.1969 66.1297 24.2802 65.695 23.2107C65.3436 22.2704 65.162 21.2456 65.1501 20.1363C65.1466 19.81 65.3805 19.5335 65.6992 19.4637L70.0798 18.5041C70.5142 18.4089 70.9259 18.7294 70.9874 19.1698C71.0981 19.9627 71.3158 20.635 71.6404 21.1864C72.1007 21.8994 72.7145 22.4341 73.4816 22.7906C74.2488 23.1216 75.1054 23.2871 76.0516 23.2871C76.8187 23.2871 77.4964 23.198 78.0845 23.0198C78.6727 22.8161 79.133 22.5487 79.4654 22.2177C79.8234 21.8612 80.0024 21.4538 80.0024 20.9955C80.0024 20.3844 79.7723 19.8878 79.312 19.5059C78.8517 19.0985 78.2124 18.7547 77.3941 18.4746C76.6014 18.1945 75.6936 17.9145 74.6707 17.6344C73.5711 17.3288 72.4715 16.9978 71.3719 16.6413C70.2979 16.2594 69.3134 15.7883 68.4184 15.2281C67.5234 14.6679 66.7946 13.9422 66.232 13.051C65.695 12.1598 65.4265 11.0522 65.4265 9.72811C65.4265 8.09848 65.8356 6.71075 66.6539 5.56491C67.4978 4.41908 68.6485 3.55334 70.1061 2.96769C71.5893 2.35658 73.277 2.05103 75.1693 2.05103C77.1639 2.05103 78.9412 2.39478 80.5011 3.08228C82.0609 3.74431 83.2628 4.72464 84.1067 6.02325C84.8668 7.19295 85.2119 8.60023 85.1422 10.2451C85.1283 10.5709 84.8793 10.8338 84.5574 10.8858L80.2864 11.5755C79.8412 11.6473 79.4452 11.2939 79.409 10.8444C79.3753 10.4273 79.3046 10.0424 79.1969 9.68991C79.0179 9.10427 78.7366 8.60774 78.353 8.20033C77.995 7.79292 77.5347 7.48737 76.9722 7.28367C76.4096 7.0545 75.7447 6.93991 74.9776 6.93991C74.1848 6.93991 73.52 7.04177 72.983 7.24547C72.4715 7.44917 72.0752 7.72927 71.7939 8.08575C71.5382 8.44223 71.4103 8.84964 71.4103 9.30797C71.4103 9.84269 71.6149 10.2883 72.024 10.6448C72.4332 11.0013 73.0213 11.3195 73.7885 11.5996C74.5556 11.8543 75.4634 12.1216 76.5119 12.4017C77.6114 12.7073 78.711 13.051 79.8106 13.433C80.9358 13.7895 81.9714 14.2732 82.9176 14.8844C83.8637 15.47 84.6181 16.2339 85.1807 17.176C85.7688 18.1182 86.0629 19.3149 86.0629 20.7663C86.0629 22.4469 85.6154 23.8473 84.7204 24.9677C83.851 26.0881 82.6363 26.9283 81.0764 27.4885C79.5421 28.0487 77.7649 28.3288 75.7447 28.3288Z" fill="black"/>
<path d="M87.2269 27.7941C86.7371 27.7941 86.3917 27.3136 86.5478 26.8493L94.5431 3.0738C94.6411 2.78219 94.9144 2.58575 95.2221 2.58575H102.247C102.555 2.58575 102.828 2.78264 102.926 3.07473L110.885 26.8503C111.04 27.3143 110.695 27.7941 110.206 27.7941H105.031C104.71 27.7941 104.428 27.5805 104.342 27.2715L98.8426 7.70011C98.8242 7.63453 98.7644 7.58922 98.6963 7.58922C98.6283 7.58922 98.5685 7.6344 98.55 7.69985L93.0135 27.2727C92.9262 27.5811 92.6447 27.7941 92.3241 27.7941H87.2269ZM91.7412 23.3253C91.3456 23.3253 91.0248 23.0046 91.0248 22.6089V19.6876C91.0248 19.2919 91.3456 18.9712 91.7412 18.9712H106.457C106.853 18.9712 107.173 19.2919 107.173 19.6876V22.6089C107.173 23.0046 106.853 23.3253 106.457 23.3253H91.7412Z" fill="black"/>
<path d="M113.612 27.7941C113.216 27.7941 112.896 27.4733 112.896 27.0777V3.30215C112.896 2.90649 113.216 2.58575 113.612 2.58575H123.406C124.531 2.58575 125.592 2.6876 126.589 2.8913C127.612 3.06954 128.533 3.34964 129.351 3.73158C130.195 4.11353 130.924 4.59732 131.537 5.18297C132.151 5.76862 132.624 6.46885 132.957 7.28367C133.289 8.07302 133.455 8.97695 133.455 9.99547C133.455 10.7848 133.315 11.536 133.033 12.2489C132.778 12.9364 132.356 13.5603 131.768 14.1205C131.205 14.6807 130.463 15.1517 129.543 15.5337C128.683 15.8762 127.657 16.1247 126.467 16.2792C126.384 16.29 126.321 16.3607 126.321 16.4446C126.321 16.5333 126.391 16.6063 126.479 16.6113C128.039 16.7004 129.252 17.016 130.118 17.558C131.013 18.1182 131.678 18.8311 132.113 19.6969C132.573 20.5371 132.918 21.4538 133.148 22.4469L134.267 26.9032C134.381 27.3556 134.039 27.7941 133.572 27.7941H128.217C127.873 27.7941 127.578 27.55 127.513 27.2125L126.666 22.7906C126.513 21.9249 126.27 21.2246 125.937 20.6899C125.63 20.1552 125.183 19.7605 124.595 19.5059C124.007 19.2513 123.227 19.1239 122.255 19.1239H119.826C119.43 19.1239 119.11 19.4447 119.11 19.8403V27.0777C119.11 27.4733 118.789 27.7941 118.393 27.7941H113.612ZM119.11 13.6332C119.11 14.0289 119.43 14.3496 119.826 14.3496H122.715C124.122 14.3496 125.196 14.0823 125.937 13.5476C126.679 13.0128 127.05 12.198 127.05 11.1031C127.05 9.90635 126.704 9.01515 126.014 8.4295C125.323 7.84385 124.275 7.55102 122.869 7.55102H119.826C119.43 7.55102 119.11 7.87177 119.11 8.26743V13.6332Z" fill="black"/>
</svg>
