<svg width="234" height="52" viewBox="0 0 234 52" fill="none" xmlns="http://www.w3.org/2000/svg">
<path fill-rule="evenodd" clip-rule="evenodd" d="M45.9345 15.4697V46.5733L50.1696 41.3592V3.62959L21.4223 33.8266H27.599L45.9345 15.4697ZM30.2212 33.8266H37.4406V26.5987L30.2212 33.8266ZM39.2959 24.7413V42.9454H2.3833V48.8028H44.0792V19.9523L39.2959 24.7413ZM45.0069 50.658H0.528061V42.0177L42.1617 0.335449H52.0248V42.0177L45.0069 50.658Z" fill="#FDFDFD" style="fill:#FDFDFD;fill:color(display-p3 0.9922 0.9922 0.9922);fill-opacity:1;"/>
<path d="M50.1696 41.3592L45.9345 46.5733V15.4697L27.599 33.8266H21.4223L50.1696 3.62959V41.3592Z" fill="#FDFDFD" style="fill:#FDFDFD;fill:color(display-p3 0.9922 0.9922 0.9922);fill-opacity:1;"/>
<path d="M2.3833 48.8028V42.9454H39.2959V24.7413L44.0792 19.9523V48.8028H2.3833Z" fill="#FDFDFD" style="fill:#FDFDFD;fill:color(display-p3 0.9922 0.9922 0.9922);fill-opacity:1;"/>
<path fill-rule="evenodd" clip-rule="evenodd" d="M45.9345 15.4697V46.5733L50.1696 41.3592V3.62959L21.4223 33.8266H27.599L45.9345 15.4697ZM30.2212 33.8266H37.4406V26.5987L30.2212 33.8266ZM39.2959 24.7413V42.9454H2.3833V48.8028H44.0792V19.9523L39.2959 24.7413ZM45.0069 50.658H0.528061V42.0177L42.1617 0.335449H52.0248V42.0177L45.0069 50.658Z" fill="#151515" style="fill:#151515;fill:color(display-p3 0.0824 0.0824 0.0824);fill-opacity:1;"/>
<path d="M212.45 13.5864H219.425C220.653 13.5864 221.76 13.6971 222.746 13.9186C223.732 14.14 224.578 14.5023 225.282 15.0055C225.987 15.5087 226.53 16.1529 226.913 16.9379C227.295 17.7229 227.486 18.669 227.486 19.7761C227.486 20.9637 227.265 21.9601 226.822 22.7653C226.379 23.5704 225.775 24.2246 225.011 24.7278C224.266 25.2109 223.39 25.5632 222.384 25.7846C221.377 26.006 220.31 26.1167 219.183 26.1167H216.254V34.9635H212.45V13.5864ZM218.911 22.9162C219.535 22.9162 220.129 22.876 220.693 22.7955C221.256 22.6948 221.76 22.5338 222.203 22.3124C222.645 22.0708 222.998 21.7487 223.259 21.3462C223.521 20.9436 223.652 20.4202 223.652 19.7761C223.652 19.1521 223.521 18.6489 223.259 18.2664C222.998 17.8638 222.645 17.5518 222.203 17.3304C221.78 17.109 221.287 16.9681 220.723 16.9077C220.18 16.8272 219.616 16.7869 219.032 16.7869H216.254V22.9162H218.911Z" fill="#151515" style="fill:#151515;fill:color(display-p3 0.0826 0.0826 0.0826);fill-opacity:1;"/>
<path d="M179.843 13.5864H185.791L191.347 28.7738H191.438L196.933 13.5864H202.911V34.9635H199.137V17.7833H199.077L192.585 34.9635H189.928L183.527 17.7833H183.467V34.9635H179.843V13.5864Z" fill="#151515" style="fill:#151515;fill:color(display-p3 0.0826 0.0826 0.0826);fill-opacity:1;"/>
<path fill-rule="evenodd" clip-rule="evenodd" d="M163.688 13.5864H160.397L151.098 34.9635H155.355L161.937 18.1155L168.549 34.9635H172.897L163.688 13.5864Z" fill="#151515" style="fill:#151515;fill:color(display-p3 0.0826 0.0826 0.0826);fill-opacity:1;"/>
<path d="M129.572 13.5864H137C138.007 13.5864 138.983 13.6971 139.929 13.9186C140.875 14.1198 141.71 14.462 142.435 14.9451C143.18 15.4282 143.773 16.0623 144.216 16.8473C144.659 17.6324 144.881 18.5885 144.881 19.7157C144.881 21.2657 144.438 22.5338 143.552 23.5201C142.687 24.4863 141.499 25.1405 139.989 25.4827L145.696 34.9635H141.106L136.155 25.9054H133.377V34.9635H129.572V13.5864ZM136.487 22.7955C137.03 22.7955 137.574 22.7552 138.117 22.6747C138.661 22.5942 139.144 22.4432 139.567 22.2218C140.009 22.0004 140.372 21.6884 140.653 21.2858C140.935 20.8631 141.076 20.3296 141.076 19.6855C141.076 19.1018 140.945 18.6287 140.684 18.2664C140.422 17.884 140.09 17.582 139.687 17.3606C139.285 17.1392 138.822 16.9882 138.298 16.9077C137.795 16.8272 137.302 16.7869 136.819 16.7869H133.377V22.7955H136.487Z" fill="#151515" style="fill:#151515;fill:color(display-p3 0.0826 0.0826 0.0826);fill-opacity:1;"/>
<path d="M101.182 13.5864H106.224L116.158 29.589H116.218V13.5864H120.023V34.9635H115.192L105.047 18.4476H104.986V34.9635H101.182V13.5864Z" fill="#151515" style="fill:#151515;fill:color(display-p3 0.0826 0.0826 0.0826);fill-opacity:1;"/>
<path d="M70.1543 24.2146C70.1543 22.5036 70.4361 20.9637 70.9997 19.595C71.5834 18.2061 72.3785 17.0285 73.385 16.0623C74.4115 15.0961 75.6193 14.3514 77.0082 13.828C78.4172 13.3046 79.947 13.043 81.5976 13.043C83.2683 13.043 84.8082 13.3046 86.2172 13.828C87.6263 14.3514 88.8441 15.0961 89.8706 16.0623C90.8972 17.0285 91.6923 18.2061 92.2559 19.595C92.8397 20.9637 93.1315 22.5036 93.1315 24.2146C93.1315 25.8853 92.8397 27.4151 92.2559 28.804C91.6923 30.1728 90.8972 31.3604 89.8706 32.3668C88.8441 33.3532 87.6263 34.1281 86.2172 34.6917C84.8082 35.2352 83.2683 35.507 81.5976 35.507C79.947 35.507 78.4172 35.2352 77.0082 34.6917C75.6193 34.1281 74.4115 33.3532 73.385 32.3668C72.3785 31.3604 71.5834 30.1728 70.9997 28.804C70.4361 27.4151 70.1543 25.8853 70.1543 24.2146ZM74.2908 24.2146C74.2908 25.3619 74.4619 26.4187 74.8041 27.3849C75.1664 28.331 75.6696 29.1563 76.3137 29.8608C76.978 30.5653 77.753 31.1188 78.6386 31.5214C79.5444 31.9039 80.5408 32.0951 81.6278 32.0951C82.7148 32.0951 83.7112 31.9039 84.617 31.5214C85.5228 31.1188 86.2977 30.5653 86.9419 29.8608C87.6061 29.1563 88.1093 28.331 88.4515 27.3849C88.8139 26.4187 88.995 25.3619 88.995 24.2146C88.995 23.1075 88.8139 22.0809 88.4515 21.1348C88.1093 20.1888 87.6162 19.3635 86.9721 18.659C86.3279 17.9545 85.553 17.4009 84.6472 16.9983C83.7413 16.5957 82.7349 16.3945 81.6278 16.3945C80.5207 16.3945 79.5143 16.5957 78.6084 16.9983C77.7228 17.4009 76.9579 17.9545 76.3137 18.659C75.6696 19.3635 75.1664 20.1888 74.8041 21.1348C74.4619 22.0809 74.2908 23.1075 74.2908 24.2146Z" fill="#151515" style="fill:#151515;fill:color(display-p3 0.0826 0.0826 0.0826);fill-opacity:1;"/>
</svg>
