<svg width="222" height="282" viewBox="0 0 222 282" fill="none" xmlns="http://www.w3.org/2000/svg">
<ellipse cx="123.359" cy="228.923" rx="90.3191" ry="53.0771" fill="black"/>
<path d="M151.231 203.2C150.628 203.798 150.009 204.39 149.374 204.977C147.675 206.544 145.861 208.068 143.946 209.543C140.147 212.469 135.951 215.203 131.47 217.708C127.784 219.768 123.906 221.673 119.898 223.402C100.256 231.875 77.5043 236.116 59.0342 233.68C55.3165 233.189 51.9468 232.452 48.9358 231.496C42.9289 229.589 38.3495 226.813 35.2827 223.402C27.4855 214.73 29.4663 201.947 42.6247 188.877C63.5527 168.088 104.83 154.441 134.821 158.396C149.918 160.388 159.277 166.459 162.18 174.651C163.717 178.987 163.444 183.918 161.255 189.151C159.365 193.67 156.047 198.416 151.231 203.2Z" fill="black"/>
<path d="M48.9358 231.496C42.9289 229.589 38.3495 226.813 35.2827 223.402L48.605 245.9C46.8437 241.619 46.9172 236.718 48.9358 231.496Z" fill="black"/>
<path d="M162.18 174.651C163.717 178.987 163.444 183.918 161.255 189.151C167.524 191.257 172.159 194.342 175.056 198.122L162.18 174.651Z" fill="black"/>
<path fill-rule="evenodd" clip-rule="evenodd" d="M162.18 235.333C158.862 238.102 155.183 240.715 151.231 243.142L131.47 217.708C127.784 219.768 123.906 221.673 119.898 223.402L138.956 249.69C118.813 259.005 94.79 263.806 75.4747 261.259C60.9615 259.345 51.7877 253.636 48.605 245.9C46.8437 241.619 46.9172 236.718 48.9358 231.496C50.7449 226.816 54.1162 221.878 59.1292 216.898C79.8442 196.321 120.748 182.82 150.49 186.742C154.488 187.269 158.081 188.085 161.255 189.151C167.524 191.257 172.159 194.342 175.056 198.122C181.603 206.665 179.267 218.755 166.836 231.103L149.374 204.977C147.675 206.544 145.861 208.068 143.946 209.543L162.18 235.333Z" fill="black"/>
<path d="M146.476 245.9C148.099 245.01 149.686 244.09 151.231 243.142L131.47 217.708C127.784 219.768 123.906 221.673 119.898 223.402L138.956 249.69C141.532 248.499 144.045 247.233 146.476 245.9Z" fill="white"/>
<path d="M162.18 235.333C163.824 233.96 165.38 232.549 166.836 231.103L149.374 204.977C147.675 206.544 145.861 208.068 143.946 209.543L162.18 235.333Z" fill="white"/>
<ellipse cx="54.7732" cy="53.4117" rx="54.7732" ry="53.4117" transform="matrix(0.991415 0.13075 -0.70946 0.704745 80.3872 150.421)" fill="white"/>
<path d="M131.034 161.445C158.185 165.026 164.822 183.182 145.892 201.986C126.962 220.79 89.6106 233.145 62.4597 229.564C35.3089 225.983 28.6728 207.827 47.6026 189.023C66.5325 170.219 103.883 157.865 131.034 161.445Z" fill="white" stroke="black" stroke-width="0.76774"/>
<path d="M46.7622 188.695C65.9211 170.028 103.709 157.775 131.165 161.326C147.025 163.378 155.967 170.255 156.999 179.297C153.687 172.822 145.419 168.076 132.706 166.432C105.25 162.88 67.4621 175.134 48.3032 193.801C40.2122 201.684 36.7371 209.451 37.4907 216.061C33.6508 208.552 36.4752 198.718 46.7622 188.695Z" fill="black"/>
<mask id="path-6-outside-1_152_42366" maskUnits="userSpaceOnUse" x="43.3265" y="170.834" width="107.457" height="51.1143" fill="black">
<rect fill="white" x="43.3265" y="170.834" width="107.457" height="51.1143"/>
<path d="M65.636 215.838L124.716 176.158L129.166 177.147L70.0867 216.827L65.636 215.838ZM115.357 192.025C116.869 190.848 117.379 189.786 116.889 188.838C116.431 187.884 114.891 187.115 112.268 186.532C110.531 186.146 108.891 185.954 107.348 185.955C105.806 185.956 104.407 186.119 103.151 186.445C101.91 186.761 100.85 187.206 99.9706 187.781C99.2266 188.248 98.7664 188.703 98.5897 189.145C98.4312 189.591 98.497 190.032 98.7872 190.468C99.1108 190.897 99.6254 191.328 100.331 191.76C101.036 192.191 101.907 192.626 102.943 193.062L106.796 194.743C109.038 195.695 110.785 196.689 112.038 197.724C113.308 198.762 114.074 199.833 114.334 200.936C114.612 202.043 114.36 203.191 113.579 204.378C112.797 205.566 111.47 206.798 109.595 208.073C106.592 210.073 103.144 211.597 99.2508 212.643C95.3573 213.69 91.1949 214.229 86.7636 214.262C82.3504 214.299 77.828 213.803 73.1964 212.774C68.5468 211.741 65.0865 210.442 62.8155 208.879C60.5446 207.315 59.658 205.509 60.1558 203.46C60.6535 201.412 62.7215 199.142 66.3597 196.649L79.2232 199.508C77.8086 200.555 77.0187 201.514 76.8536 202.385C76.6885 203.256 77.0862 204.032 78.0467 204.713C79.0252 205.398 80.5005 205.96 82.4725 206.398C84.2817 206.8 86.0273 207.002 87.7091 207.005C89.4091 207.011 90.972 206.843 92.398 206.5C93.824 206.156 95.023 205.666 95.995 205.03C96.8693 204.426 97.3052 203.843 97.3028 203.278C97.3157 202.703 96.8926 202.114 96.0335 201.511C95.2078 200.901 93.9818 200.237 92.3555 199.518L87.7018 197.452C83.8278 195.752 81.553 193.892 80.8773 191.872C80.217 189.841 81.6883 187.624 85.2911 185.22C88.1963 183.253 91.6806 181.737 95.7442 180.674C99.8078 179.61 104.101 179.031 108.625 178.936C113.149 178.841 117.518 179.262 121.734 180.199C126.04 181.155 129.152 182.404 131.072 183.945C133.026 185.479 133.764 187.19 133.289 189.079C132.813 190.967 131.123 192.902 128.221 194.884L115.357 192.025Z"/>
</mask>
<path d="M65.636 215.838L124.716 176.158L129.166 177.147L70.0867 216.827L65.636 215.838ZM115.357 192.025C116.869 190.848 117.379 189.786 116.889 188.838C116.431 187.884 114.891 187.115 112.268 186.532C110.531 186.146 108.891 185.954 107.348 185.955C105.806 185.956 104.407 186.119 103.151 186.445C101.91 186.761 100.85 187.206 99.9706 187.781C99.2266 188.248 98.7664 188.703 98.5897 189.145C98.4312 189.591 98.497 190.032 98.7872 190.468C99.1108 190.897 99.6254 191.328 100.331 191.76C101.036 192.191 101.907 192.626 102.943 193.062L106.796 194.743C109.038 195.695 110.785 196.689 112.038 197.724C113.308 198.762 114.074 199.833 114.334 200.936C114.612 202.043 114.36 203.191 113.579 204.378C112.797 205.566 111.47 206.798 109.595 208.073C106.592 210.073 103.144 211.597 99.2508 212.643C95.3573 213.69 91.1949 214.229 86.7636 214.262C82.3504 214.299 77.828 213.803 73.1964 212.774C68.5468 211.741 65.0865 210.442 62.8155 208.879C60.5446 207.315 59.658 205.509 60.1558 203.46C60.6535 201.412 62.7215 199.142 66.3597 196.649L79.2232 199.508C77.8086 200.555 77.0187 201.514 76.8536 202.385C76.6885 203.256 77.0862 204.032 78.0467 204.713C79.0252 205.398 80.5005 205.96 82.4725 206.398C84.2817 206.8 86.0273 207.002 87.7091 207.005C89.4091 207.011 90.972 206.843 92.398 206.5C93.824 206.156 95.023 205.666 95.995 205.03C96.8693 204.426 97.3052 203.843 97.3028 203.278C97.3157 202.703 96.8926 202.114 96.0335 201.511C95.2078 200.901 93.9818 200.237 92.3555 199.518L87.7018 197.452C83.8278 195.752 81.553 193.892 80.8773 191.872C80.217 189.841 81.6883 187.624 85.2911 185.22C88.1963 183.253 91.6806 181.737 95.7442 180.674C99.8078 179.61 104.101 179.031 108.625 178.936C113.149 178.841 117.518 179.262 121.734 180.199C126.04 181.155 129.152 182.404 131.072 183.945C133.026 185.479 133.764 187.19 133.289 189.079C132.813 190.967 131.123 192.902 128.221 194.884L115.357 192.025Z" fill="black"/>
<path d="M65.636 215.838L65.1793 215.737L64.791 215.998L65.2477 216.099L65.636 215.838ZM124.716 176.158L125.104 175.897L124.647 175.796L124.259 176.056L124.716 176.158ZM129.166 177.147L129.623 177.248L130.012 176.988L129.555 176.886L129.166 177.147ZM70.0867 216.827L69.6983 217.088L70.155 217.19L70.5434 216.929L70.0867 216.827ZM115.357 192.025L114.868 191.948L114.552 192.193L114.969 192.286L115.357 192.025ZM116.889 188.838L116.3 188.979L116.302 188.982L116.889 188.838ZM107.348 185.955L107.544 185.675L107.544 185.675L107.348 185.955ZM103.151 186.445L103.285 186.682L103.292 186.681L103.151 186.445ZM99.9706 187.781L100.41 187.893L100.42 187.887L99.9706 187.781ZM98.5897 189.145L98.0004 189.186L97.9983 189.192L98.5897 189.145ZM98.7872 190.468L98.2077 190.624L98.2127 190.631L98.7872 190.468ZM100.331 191.76L100.85 191.548L100.331 191.76ZM102.943 193.062L103.423 192.83L103.418 192.828L102.943 193.062ZM106.796 194.743L106.316 194.975L106.319 194.977L106.796 194.743ZM112.038 197.724L111.491 197.916L111.492 197.917L112.038 197.724ZM114.334 200.936L113.737 201.054L113.738 201.055L114.334 200.936ZM113.579 204.378L113.008 204.384L113.008 204.384L113.579 204.378ZM109.595 208.073L110.05 208.176L110.055 208.172L109.595 208.073ZM99.2508 212.643L99.0985 212.411L99.2508 212.643ZM86.7636 214.262L86.9514 213.982L86.9503 213.982L86.7636 214.262ZM62.8155 208.879L63.3465 208.675L62.8155 208.879ZM66.3597 196.649L66.7481 196.389L66.2856 196.286L65.8982 196.551L66.3597 196.649ZM79.2232 199.508L79.7025 199.594L80.0414 199.343L79.6116 199.247L79.2232 199.508ZM76.8536 202.385L76.2563 202.454L76.2563 202.454L76.8536 202.385ZM78.0467 204.713L77.513 204.915L77.5141 204.916L78.0467 204.713ZM87.7091 207.005L87.9098 206.725L87.9071 206.725L87.7091 207.005ZM92.398 206.5L92.281 206.258L92.398 206.5ZM95.995 205.03L96.4454 205.136L96.452 205.131L96.4583 205.127L95.995 205.03ZM97.3028 203.278L96.7033 203.367L96.7033 203.37L97.3028 203.278ZM96.0335 201.511L95.4961 201.71L95.5006 201.714L96.0335 201.511ZM92.3555 199.518L91.8734 199.749L91.8739 199.749L92.3555 199.518ZM87.7018 197.452L88.1839 197.221L88.1824 197.221L87.7018 197.452ZM80.8773 191.872L80.2833 191.998L80.2836 191.999L80.8773 191.872ZM85.2911 185.22L85.7462 185.323L85.7499 185.32L85.2911 185.22ZM95.7442 180.674L95.6006 180.439L95.7442 180.674ZM108.625 178.936L108.453 179.215L108.625 178.936ZM131.072 183.945L130.528 184.139L130.53 184.14L131.072 183.945ZM133.289 189.079L133.884 189.018L133.289 189.079ZM128.221 194.884L127.833 195.145L128.294 195.247L128.682 194.982L128.221 194.884ZM65.636 215.838L66.0927 215.94L125.172 176.259L124.716 176.158L124.259 176.056L65.1793 215.737L65.636 215.838ZM124.716 176.158L124.327 176.419L128.778 177.408L129.166 177.147L129.555 176.886L125.104 175.897L124.716 176.158ZM129.166 177.147L128.71 177.045L69.63 216.726L70.0867 216.827L70.5434 216.929L129.623 177.248L129.166 177.147ZM70.0867 216.827L70.4751 216.567L66.0244 215.577L65.636 215.838L65.2477 216.099L69.6983 217.088L70.0867 216.827ZM115.357 192.025L115.847 192.103C117.444 190.86 118.004 189.716 117.475 188.693L116.889 188.838L116.302 188.982C116.754 189.856 116.294 190.837 114.868 191.948L115.357 192.025ZM116.889 188.838L117.477 188.697C116.984 187.668 115.337 186.867 112.656 186.271L112.268 186.532L111.879 186.793C114.445 187.363 115.879 188.099 116.3 188.979L116.889 188.838ZM112.268 186.532L112.656 186.271C110.883 185.877 109.179 185.674 107.544 185.675L107.348 185.955L107.153 186.235C108.603 186.234 110.178 186.415 111.879 186.793L112.268 186.532ZM107.348 185.955L107.544 185.675C105.922 185.676 104.403 185.848 103.01 186.21L103.151 186.445L103.292 186.681C104.41 186.39 105.69 186.236 107.153 186.235L107.348 185.955ZM103.151 186.445L103.016 186.208C101.648 186.556 100.479 187.048 99.5209 187.675L99.9706 187.781L100.42 187.887C101.221 187.364 102.173 186.966 103.285 186.682L103.151 186.445ZM99.9706 187.781L99.5312 187.668C98.7215 188.177 98.2009 188.685 98.0005 189.186L98.5897 189.145L99.1789 189.103C99.3319 188.721 99.7318 188.319 100.41 187.893L99.9706 187.781ZM98.5897 189.145L97.9983 189.192C97.8237 189.683 97.8993 190.161 98.2079 190.624L98.7872 190.468L99.3665 190.311C99.0947 189.903 99.0386 189.499 99.1812 189.098L98.5897 189.145ZM98.7872 190.468L98.2127 190.631C98.5524 191.082 99.0882 191.528 99.8115 191.971L100.331 191.76L100.85 191.548C100.163 191.127 99.6692 190.712 99.3617 190.304L98.7872 190.468ZM100.331 191.76L99.8115 191.971C100.532 192.412 101.418 192.854 102.467 193.296L102.943 193.062L103.418 192.828C102.395 192.397 101.54 191.97 100.85 191.548L100.331 191.76ZM102.943 193.062L102.463 193.294L106.316 194.975L106.796 194.743L107.276 194.512L103.422 192.83L102.943 193.062ZM106.796 194.743L106.319 194.977C108.539 195.919 110.261 196.9 111.491 197.916L112.038 197.724L112.584 197.531C111.31 196.478 109.537 195.472 107.272 194.51L106.796 194.743ZM112.038 197.724L111.492 197.917C112.74 198.937 113.485 199.983 113.737 201.054L114.334 200.936L114.93 200.819C114.663 199.683 113.877 198.588 112.584 197.531L112.038 197.724ZM114.334 200.936L113.738 201.055C114.007 202.128 113.763 203.237 113.008 204.384L113.579 204.378L114.149 204.372C114.957 203.144 115.217 201.958 114.93 200.817L114.334 200.936ZM113.579 204.378L113.008 204.384C112.254 205.531 110.968 206.727 109.135 207.973L109.595 208.073L110.055 208.172C111.972 206.868 113.341 205.601 114.149 204.372L113.579 204.378ZM109.595 208.073L109.141 207.97C106.205 209.926 102.858 211.4 99.0985 212.411L99.2508 212.643L99.4031 212.876C103.431 211.793 106.98 210.221 110.05 208.176L109.595 208.073ZM99.2508 212.643L99.0985 212.411C95.3339 213.423 91.2906 213.95 86.9514 213.982L86.7636 214.262L86.5759 214.542C91.0992 214.508 95.3806 213.957 99.4031 212.876L99.2508 212.643ZM86.7636 214.262L86.9503 213.982C82.63 214.019 78.1746 213.533 73.5848 212.513L73.1964 212.774L72.8081 213.035C77.4815 214.073 82.0708 214.58 86.5769 214.542L86.7636 214.262ZM73.1964 212.774L73.5848 212.513C68.9797 211.49 65.5741 210.208 63.3465 208.675L62.8155 208.879L62.2846 209.083C64.5988 210.676 68.1139 211.992 72.8081 213.035L73.1964 212.774ZM62.8155 208.879L63.3465 208.675C61.126 207.146 60.2682 205.388 60.7516 203.399L60.1558 203.46L59.5599 203.522C59.0478 205.63 59.9632 207.484 62.2846 209.083L62.8155 208.879ZM60.1558 203.46L60.7516 203.399C61.2333 201.416 63.2378 199.202 66.8212 196.748L66.3597 196.649L65.8982 196.551C62.2051 199.081 60.0737 201.408 59.5599 203.522L60.1558 203.46ZM66.3597 196.649L65.9713 196.91L78.8348 199.769L79.2232 199.508L79.6116 199.247L66.7481 196.389L66.3597 196.649ZM79.2232 199.508L78.7438 199.423C77.2769 200.508 76.433 201.522 76.2563 202.454L76.8536 202.385L77.4509 202.317C77.6044 201.507 78.3402 200.602 79.7025 199.594L79.2232 199.508ZM76.8536 202.385L76.2563 202.454C76.0807 203.381 76.5064 204.202 77.513 204.915L78.0467 204.713L78.5803 204.511C77.666 203.863 77.2964 203.132 77.4509 202.317L76.8536 202.385ZM78.0467 204.713L77.5141 204.916C78.5353 205.631 80.0652 206.21 82.0842 206.659L82.4725 206.398L82.8609 206.137C80.9358 205.709 79.5151 205.165 78.5792 204.51L78.0467 204.713ZM82.4725 206.398L82.0842 206.659C83.932 207.07 85.7407 207.282 87.5111 207.285L87.7091 207.005L87.9071 206.725C86.3138 206.723 84.6315 206.531 82.8609 206.137L82.4725 206.398ZM87.7091 207.005L87.5085 207.285C89.2859 207.291 90.9603 207.115 92.5151 206.741L92.398 206.5L92.281 206.258C90.9838 206.57 89.5322 206.731 87.9098 206.725L87.7091 207.005ZM92.398 206.5L92.5151 206.741C94.0721 206.366 95.3877 205.828 96.4454 205.136L95.995 205.03L95.5446 204.924C94.6584 205.505 93.576 205.946 92.281 206.258L92.398 206.5ZM95.995 205.03L96.4583 205.127C97.4137 204.467 97.905 203.817 97.9023 203.186L97.3028 203.278L96.7033 203.37C96.7054 203.869 96.3249 204.385 95.5317 204.933L95.995 205.03ZM97.3028 203.278L97.9022 203.189C97.9165 202.556 97.4517 201.93 96.5663 201.308L96.0335 201.511L95.5006 201.714C96.3336 202.299 96.7149 202.851 96.7033 203.367L97.3028 203.278ZM96.0335 201.511L96.5708 201.311C95.7238 200.686 94.4758 200.011 92.8371 199.287L92.3555 199.518L91.8739 199.749C93.4878 200.462 94.6917 201.116 95.4961 201.71L96.0335 201.511ZM92.3555 199.518L92.8376 199.287L88.1839 197.221L87.7018 197.452L87.2197 197.683L91.8734 199.749L92.3555 199.518ZM87.7018 197.452L88.1824 197.221C84.3493 195.539 82.1288 193.711 81.471 191.744L80.8773 191.872L80.2836 191.999C80.9772 194.073 83.3063 195.966 87.2212 197.684L87.7018 197.452ZM80.8773 191.872L81.4713 191.745C80.8374 189.796 82.2382 187.663 85.7462 185.323L85.2911 185.22L84.8361 185.117C81.1383 187.584 79.5965 189.886 80.2833 191.998L80.8773 191.872ZM85.2911 185.22L85.7499 185.32C88.5801 183.403 91.9572 181.937 95.8878 180.908L95.7442 180.674L95.6006 180.439C91.4041 181.537 87.8124 183.102 84.8324 185.12L85.2911 185.22ZM95.7442 180.674L95.8878 180.908C99.8347 179.875 104.019 179.309 108.453 179.215L108.625 178.936L108.797 178.656C104.184 178.753 99.781 179.345 95.6006 180.439L95.7442 180.674ZM108.625 178.936L108.453 179.215C112.885 179.122 117.182 179.534 121.345 180.459L121.734 180.199L122.122 179.938C117.854 178.989 113.412 178.559 108.797 178.656L108.625 178.936ZM121.734 180.199L121.345 180.459C125.6 181.405 128.652 182.633 130.528 184.139L131.072 183.945L131.617 183.751C129.653 182.175 126.479 180.906 122.122 179.938L121.734 180.199ZM131.072 183.945L130.53 184.14C132.441 185.641 133.155 187.307 132.693 189.139L133.289 189.079L133.884 189.018C134.374 187.073 133.61 185.317 131.615 183.749L131.072 183.945ZM133.289 189.079L132.693 189.139C132.232 190.97 130.595 192.849 127.76 194.785L128.221 194.884L128.682 194.982C131.651 192.955 133.393 190.964 133.884 189.018L133.289 189.079ZM128.221 194.884L128.609 194.623L115.746 191.764L115.357 192.025L114.969 192.286L127.833 195.145L128.221 194.884Z" fill="black" mask="url(#path-6-outside-1_152_42366)"/>
<mask id="path-8-outside-2_152_42366" maskUnits="userSpaceOnUse" x="42.8592" y="168.495" width="107.457" height="51.1143" fill="black">
<rect fill="white" x="42.8592" y="168.495" width="107.457" height="51.1143"/>
<path d="M65.1687 213.499L124.249 173.819L128.699 174.808L69.6194 214.488L65.1687 213.499ZM114.89 189.686C116.402 188.509 116.912 187.447 116.421 186.499C115.964 185.545 114.424 184.776 111.8 184.193C110.063 183.807 108.424 183.615 106.881 183.616C105.339 183.617 103.939 183.78 102.684 184.106C101.443 184.422 100.383 184.867 99.5033 185.442C98.7594 185.909 98.2991 186.364 98.1224 186.806C97.9639 187.252 98.0297 187.693 98.3199 188.129C98.6436 188.558 99.1581 188.989 99.8636 189.42C100.569 189.852 101.44 190.286 102.475 190.723L106.328 192.404C108.571 193.356 110.318 194.35 111.571 195.385C112.841 196.423 113.606 197.494 113.866 198.597C114.145 199.704 113.893 200.851 113.112 202.039C112.33 203.227 111.002 204.459 109.128 205.734C106.125 207.734 102.677 209.258 98.7835 210.304C94.89 211.351 90.7276 211.89 86.2963 211.923C81.8831 211.96 77.3607 211.464 72.7292 210.435C68.0795 209.401 64.6192 208.103 62.3483 206.539C60.0773 204.976 59.1907 203.17 59.6885 201.121C60.1862 199.073 62.2542 196.802 65.8924 194.31L78.7559 197.169C77.3413 198.216 76.5514 199.175 76.3863 200.046C76.2212 200.917 76.6189 201.693 77.5794 202.374C78.5579 203.059 80.0332 203.621 82.0052 204.059C83.8145 204.461 85.56 204.663 87.2418 204.666C88.9418 204.672 90.5048 204.504 91.9308 204.161C93.3568 203.817 94.5558 203.327 95.5277 202.691C96.402 202.087 96.8379 201.503 96.8355 200.939C96.8484 200.364 96.4253 199.775 95.5662 199.172C94.7405 198.562 93.5145 197.898 91.8882 197.179L87.2345 195.113C83.3605 193.413 81.0857 191.553 80.41 189.533C79.7497 187.502 81.221 185.285 84.8239 182.881C87.729 180.914 91.2134 179.398 95.2769 178.334C99.3405 177.271 103.634 176.692 108.158 176.597C112.681 176.502 117.051 176.923 121.266 177.859C125.572 178.816 128.685 180.065 130.605 181.606C132.558 183.14 133.297 184.851 132.821 186.74C132.345 188.628 130.656 190.563 127.754 192.545L114.89 189.686Z"/>
</mask>
<path d="M65.1687 213.499L124.249 173.819L128.699 174.808L69.6194 214.488L65.1687 213.499ZM114.89 189.686C116.402 188.509 116.912 187.447 116.421 186.499C115.964 185.545 114.424 184.776 111.8 184.193C110.063 183.807 108.424 183.615 106.881 183.616C105.339 183.617 103.939 183.78 102.684 184.106C101.443 184.422 100.383 184.867 99.5033 185.442C98.7594 185.909 98.2991 186.364 98.1224 186.806C97.9639 187.252 98.0297 187.693 98.3199 188.129C98.6436 188.558 99.1581 188.989 99.8636 189.42C100.569 189.852 101.44 190.286 102.475 190.723L106.328 192.404C108.571 193.356 110.318 194.35 111.571 195.385C112.841 196.423 113.606 197.494 113.866 198.597C114.145 199.704 113.893 200.851 113.112 202.039C112.33 203.227 111.002 204.459 109.128 205.734C106.125 207.734 102.677 209.258 98.7835 210.304C94.89 211.351 90.7276 211.89 86.2963 211.923C81.8831 211.96 77.3607 211.464 72.7292 210.435C68.0795 209.401 64.6192 208.103 62.3483 206.539C60.0773 204.976 59.1907 203.17 59.6885 201.121C60.1862 199.073 62.2542 196.802 65.8924 194.31L78.7559 197.169C77.3413 198.216 76.5514 199.175 76.3863 200.046C76.2212 200.917 76.6189 201.693 77.5794 202.374C78.5579 203.059 80.0332 203.621 82.0052 204.059C83.8145 204.461 85.56 204.663 87.2418 204.666C88.9418 204.672 90.5048 204.504 91.9308 204.161C93.3568 203.817 94.5558 203.327 95.5277 202.691C96.402 202.087 96.8379 201.503 96.8355 200.939C96.8484 200.364 96.4253 199.775 95.5662 199.172C94.7405 198.562 93.5145 197.898 91.8882 197.179L87.2345 195.113C83.3605 193.413 81.0857 191.553 80.41 189.533C79.7497 187.502 81.221 185.285 84.8239 182.881C87.729 180.914 91.2134 179.398 95.2769 178.334C99.3405 177.271 103.634 176.692 108.158 176.597C112.681 176.502 117.051 176.923 121.266 177.859C125.572 178.816 128.685 180.065 130.605 181.606C132.558 183.14 133.297 184.851 132.821 186.74C132.345 188.628 130.656 190.563 127.754 192.545L114.89 189.686Z" fill="#C7EF6B"/>
<path d="M65.1687 213.499L64.712 213.398L64.3237 213.659L64.7804 213.76L65.1687 213.499ZM124.249 173.819L124.637 173.558L124.18 173.456L123.792 173.717L124.249 173.819ZM128.699 174.808L129.156 174.909L129.544 174.648L129.088 174.547L128.699 174.808ZM69.6194 214.488L69.231 214.749L69.6877 214.851L70.0761 214.59L69.6194 214.488ZM114.89 189.686L114.4 189.609L114.085 189.854L114.502 189.947L114.89 189.686ZM116.421 186.499L115.833 186.64L115.835 186.643L116.421 186.499ZM106.881 183.616L107.077 183.336L107.077 183.336L106.881 183.616ZM102.684 184.106L102.818 184.343L102.824 184.342L102.684 184.106ZM99.5033 185.442L99.9428 185.554L99.953 185.548L99.5033 185.442ZM98.1224 186.806L97.5331 186.847L97.531 186.853L98.1224 186.806ZM98.3199 188.129L97.7404 188.285L97.7454 188.292L98.3199 188.129ZM99.8636 189.42L100.383 189.209L99.8636 189.42ZM102.475 190.723L102.955 190.491L102.951 190.489L102.475 190.723ZM106.328 192.404L105.848 192.636L105.852 192.638L106.328 192.404ZM111.571 195.385L111.024 195.577L111.025 195.577L111.571 195.385ZM113.866 198.597L113.27 198.715L113.27 198.716L113.866 198.597ZM113.112 202.039L112.541 202.045L112.541 202.045L113.112 202.039ZM109.128 205.734L109.583 205.836L109.588 205.833L109.128 205.734ZM98.7835 210.304L98.6312 210.072L98.7835 210.304ZM86.2963 211.923L86.4841 211.643L86.483 211.643L86.2963 211.923ZM62.3483 206.539L62.8792 206.335L62.3483 206.539ZM65.8924 194.31L66.2808 194.05L65.8183 193.947L65.4309 194.212L65.8924 194.31ZM78.7559 197.169L79.2353 197.254L79.5741 197.004L79.1443 196.908L78.7559 197.169ZM76.3863 200.046L75.789 200.115L75.789 200.115L76.3863 200.046ZM77.5794 202.374L77.0457 202.576L77.0469 202.577L77.5794 202.374ZM87.2418 204.666L87.4425 204.386L87.4398 204.386L87.2418 204.666ZM91.9308 204.161L91.8138 203.919L91.9308 204.161ZM95.5277 202.691L95.9781 202.796L95.9847 202.792L95.9911 202.788L95.5277 202.691ZM96.8355 200.939L96.236 201.028L96.236 201.031L96.8355 200.939ZM95.5662 199.172L95.0288 199.371L95.0334 199.374L95.5662 199.172ZM91.8882 197.179L91.4061 197.41L91.4066 197.41L91.8882 197.179ZM87.2345 195.113L87.7166 194.882L87.7152 194.881L87.2345 195.113ZM80.41 189.533L79.816 189.659L79.8163 189.66L80.41 189.533ZM84.8239 182.881L85.2789 182.983L85.2826 182.981L84.8239 182.881ZM95.2769 178.334L95.1334 178.1L95.2769 178.334ZM108.158 176.597L107.986 176.876L108.158 176.597ZM130.605 181.606L130.061 181.8L130.063 181.801L130.605 181.606ZM132.821 186.74L133.417 186.679L132.821 186.74ZM127.754 192.545L127.365 192.805L127.827 192.908L128.214 192.643L127.754 192.545ZM65.1687 213.499L65.6254 213.601L124.705 173.92L124.249 173.819L123.792 173.717L64.712 213.398L65.1687 213.499ZM124.249 173.819L123.86 174.08L128.311 175.069L128.699 174.808L129.088 174.547L124.637 173.558L124.249 173.819ZM128.699 174.808L128.242 174.706L69.1627 214.387L69.6194 214.488L70.0761 214.59L129.156 174.909L128.699 174.808ZM69.6194 214.488L70.0078 214.227L65.5571 213.238L65.1687 213.499L64.7804 213.76L69.231 214.749L69.6194 214.488ZM114.89 189.686L115.38 189.764C116.976 188.521 117.537 187.377 117.008 186.354L116.421 186.499L115.835 186.643C116.287 187.517 115.827 188.498 114.4 189.609L114.89 189.686ZM116.421 186.499L117.009 186.358C116.516 185.329 114.87 184.528 112.189 183.932L111.8 184.193L111.412 184.454C113.978 185.024 115.412 185.76 115.833 186.64L116.421 186.499ZM111.8 184.193L112.189 183.932C110.416 183.538 108.712 183.335 107.077 183.336L106.881 183.616L106.686 183.895C108.136 183.894 109.711 184.076 111.412 184.454L111.8 184.193ZM106.881 183.616L107.077 183.336C105.454 183.337 103.936 183.509 102.543 183.871L102.684 184.106L102.824 184.342C103.943 184.051 105.223 183.896 106.686 183.895L106.881 183.616ZM102.684 184.106L102.549 183.869C101.181 184.217 100.012 184.709 99.0536 185.335L99.5033 185.442L99.953 185.548C100.754 185.025 101.705 184.626 102.818 184.343L102.684 184.106ZM99.5033 185.442L99.0639 185.329C98.2542 185.837 97.7336 186.346 97.5332 186.847L98.1224 186.806L98.7117 186.764C98.8646 186.382 99.2645 185.98 99.9427 185.554L99.5033 185.442ZM98.1224 186.806L97.531 186.853C97.3564 187.344 97.432 187.822 97.7406 188.285L98.3199 188.129L98.8992 187.972C98.6274 187.564 98.5713 187.16 98.7139 186.758L98.1224 186.806ZM98.3199 188.129L97.7454 188.292C98.0852 188.743 98.6209 189.189 99.3442 189.632L99.8636 189.42L100.383 189.209C99.6953 188.788 99.202 188.373 98.8944 187.965L98.3199 188.129ZM99.8636 189.42L99.3442 189.632C100.065 190.073 100.951 190.515 102 190.957L102.475 190.723L102.951 190.489C101.928 190.058 101.073 189.631 100.383 189.209L99.8636 189.42ZM102.475 190.723L101.995 190.955L105.849 192.636L106.328 192.404L106.808 192.172L102.955 190.491L102.475 190.723ZM106.328 192.404L105.852 192.638C108.072 193.58 109.794 194.56 111.024 195.577L111.571 195.385L112.117 195.192C110.842 194.139 109.069 193.132 106.805 192.171L106.328 192.404ZM111.571 195.385L111.025 195.577C112.273 196.598 113.018 197.644 113.27 198.715L113.866 198.597L114.463 198.479C114.195 197.344 113.409 196.249 112.116 195.192L111.571 195.385ZM113.866 198.597L113.27 198.716C113.54 199.789 113.296 200.898 112.541 202.045L113.112 202.039L113.682 202.033C114.49 200.805 114.749 199.619 114.463 198.478L113.866 198.597ZM113.112 202.039L112.541 202.045C111.787 203.192 110.5 204.388 108.668 205.634L109.128 205.734L109.588 205.833C111.504 204.529 112.874 203.262 113.682 202.033L113.112 202.039ZM109.128 205.734L108.673 205.631C105.738 207.587 102.391 209.061 98.6312 210.072L98.7835 210.304L98.9358 210.537C102.963 209.454 106.512 207.882 109.583 205.836L109.128 205.734ZM98.7835 210.304L98.6312 210.072C94.8666 211.083 90.8233 211.611 86.4841 211.643L86.2963 211.923L86.1086 212.203C90.6319 212.169 94.9134 211.618 98.9358 210.537L98.7835 210.304ZM86.2963 211.923L86.483 211.643C82.1627 211.679 77.7073 211.194 73.1175 210.174L72.7292 210.435L72.3408 210.696C77.0142 211.734 81.6035 212.241 86.1097 212.203L86.2963 211.923ZM72.7292 210.435L73.1175 210.174C68.5124 209.151 65.1068 207.869 62.8792 206.335L62.3483 206.539L61.8173 206.743C64.1315 208.337 67.6466 209.652 72.3408 210.696L72.7292 210.435ZM62.3483 206.539L62.8792 206.335C60.6587 204.807 59.8009 203.049 60.2843 201.059L59.6885 201.121L59.0927 201.183C58.5805 203.291 59.4959 205.145 61.8173 206.743L62.3483 206.539ZM59.6885 201.121L60.2843 201.059C60.766 199.077 62.7705 196.863 66.3539 194.409L65.8924 194.31L65.4309 194.212C61.7378 196.742 59.6064 199.069 59.0927 201.183L59.6885 201.121ZM65.8924 194.31L65.504 194.571L78.3675 197.43L78.7559 197.169L79.1443 196.908L66.2808 194.05L65.8924 194.31ZM78.7559 197.169L78.2765 197.083C76.8096 198.169 75.9657 199.183 75.789 200.115L76.3863 200.046L76.9836 199.977C77.1372 199.168 77.873 198.263 79.2353 197.254L78.7559 197.169ZM76.3863 200.046L75.789 200.115C75.6134 201.041 76.0391 201.862 77.0457 202.576L77.5794 202.374L78.113 202.172C77.1987 201.524 76.8291 200.793 76.9836 199.977L76.3863 200.046ZM77.5794 202.374L77.0469 202.577C78.068 203.292 79.5979 203.871 81.6169 204.32L82.0052 204.059L82.3936 203.798C80.4685 203.37 79.0478 202.826 78.1119 202.171L77.5794 202.374ZM82.0052 204.059L81.6169 204.32C83.4647 204.73 85.2734 204.943 87.0438 204.946L87.2418 204.666L87.4398 204.386C85.8466 204.384 84.1643 204.192 82.3936 203.798L82.0052 204.059ZM87.2418 204.666L87.0412 204.946C88.8186 204.952 90.493 204.776 92.0478 204.402L91.9308 204.161L91.8138 203.919C90.5166 204.231 89.065 204.392 87.4425 204.386L87.2418 204.666ZM91.9308 204.161L92.0478 204.402C93.6048 204.027 94.9204 203.489 95.9781 202.796L95.5277 202.691L95.0774 202.585C94.1911 203.166 93.1087 203.607 91.8138 203.919L91.9308 204.161ZM95.5277 202.691L95.9911 202.788C96.9464 202.128 97.4377 201.477 97.435 200.847L96.8355 200.939L96.236 201.031C96.2381 201.529 95.8576 202.046 95.0644 202.594L95.5277 202.691ZM96.8355 200.939L97.435 200.85C97.4492 200.217 96.9844 199.591 96.099 198.969L95.5662 199.172L95.0334 199.374C95.8663 199.96 96.2477 200.512 96.236 201.028L96.8355 200.939ZM95.5662 199.172L96.1035 198.972C95.2565 198.347 94.0085 197.672 92.3698 196.947L91.8882 197.179L91.4066 197.41C93.0205 198.123 94.2245 198.777 95.0289 199.371L95.5662 199.172ZM91.8882 197.179L92.3703 196.948L87.7166 194.882L87.2345 195.113L86.7524 195.344L91.4061 197.41L91.8882 197.179ZM87.2345 195.113L87.7152 194.881C83.882 193.2 81.6615 191.372 81.0037 189.405L80.41 189.533L79.8163 189.66C80.5099 191.734 82.839 193.627 86.7539 195.345L87.2345 195.113ZM80.41 189.533L81.004 189.406C80.3701 187.457 81.7709 185.324 85.2789 182.983L84.8239 182.881L84.3688 182.778C80.671 185.245 79.1293 187.547 79.816 189.659L80.41 189.533ZM84.8239 182.881L85.2826 182.981C88.1128 181.064 91.4899 179.598 95.4205 178.569L95.2769 178.334L95.1334 178.1C90.9368 179.198 87.3452 180.763 84.3651 182.781L84.8239 182.881ZM95.2769 178.334L95.4205 178.569C99.3674 177.536 103.551 176.969 107.986 176.876L108.158 176.597L108.329 176.317C103.717 176.414 99.3137 177.006 95.1334 178.1L95.2769 178.334ZM108.158 176.597L107.986 176.876C112.417 176.783 116.715 177.195 120.878 178.12L121.266 177.859L121.655 177.599C117.387 176.65 112.945 176.22 108.329 176.317L108.158 176.597ZM121.266 177.859L120.878 178.12C125.133 179.066 128.185 180.294 130.061 181.8L130.605 181.606L131.149 181.412C129.185 179.836 126.012 178.567 121.655 177.599L121.266 177.859ZM130.605 181.606L130.063 181.801C131.974 183.302 132.687 184.968 132.226 186.8L132.821 186.74L133.417 186.679C133.907 184.734 133.143 182.978 131.148 181.41L130.605 181.606ZM132.821 186.74L132.226 186.8C131.764 188.63 130.128 190.51 127.293 192.446L127.754 192.545L128.214 192.643C131.184 190.616 132.926 188.625 133.417 186.679L132.821 186.74ZM127.754 192.545L128.142 192.284L115.279 189.425L114.89 189.686L114.502 189.947L127.365 192.805L127.754 192.545Z" fill="black" mask="url(#path-8-outside-2_152_42366)"/>
<path d="M157.619 170.198C156.867 170.59 156.099 170.972 155.318 171.343C153.23 172.334 151.045 173.25 148.779 174.088C144.281 175.753 139.461 177.116 134.439 178.175C130.307 179.046 126.038 179.712 121.697 180.171C100.424 182.421 77.4406 179.705 60.53 171.888C57.1262 170.315 54.1282 168.608 51.5376 166.8C46.3693 163.194 42.8221 159.182 40.9082 155.014C36.0422 144.415 41.7338 132.8 58.1833 124.232C84.3459 110.605 127.814 109.849 155.273 122.542C169.095 128.932 176.226 137.512 176.562 146.196C176.74 150.793 175.013 155.419 171.368 159.765C168.22 163.518 163.64 167.062 157.619 170.198Z" fill="black"/>
<path d="M51.5376 166.8C46.3693 163.194 42.8221 159.182 40.9082 155.014L46.9391 180.455C46.5302 175.844 48.0576 171.186 51.5376 166.8Z" fill="black"/>
<path d="M176.562 146.196C176.74 150.793 175.013 155.419 171.368 159.765C176.727 163.64 180.235 167.963 181.877 172.433L176.562 146.196Z" fill="black"/>
<path fill-rule="evenodd" clip-rule="evenodd" d="M158.52 204.133C154.529 205.791 150.239 207.192 145.744 208.334L134.439 178.175C130.307 179.046 126.038 179.712 121.697 180.171L132.077 210.936C110.075 213.841 85.7117 211.283 68.0272 203.108C54.7394 196.966 47.6779 188.787 46.9391 180.455C46.5302 175.844 48.0576 171.186 51.5376 166.8C54.6563 162.87 59.3432 159.158 65.6101 155.894C91.5064 142.406 134.575 141.676 161.806 154.264C165.466 155.957 168.654 157.803 171.368 159.765C176.727 163.64 180.235 167.963 181.877 172.433C185.588 182.536 179.763 193.385 164.223 201.479L155.318 171.343C153.23 172.334 151.045 173.25 148.779 174.088L158.52 204.133Z" fill="black"/>
<path d="M140.384 209.554C142.198 209.187 143.987 208.78 145.744 208.334L134.439 178.175C130.307 179.046 126.038 179.712 121.697 180.171L132.077 210.936C134.891 210.565 137.667 210.104 140.384 209.554Z" fill="white"/>
<path d="M158.52 204.133C160.498 203.312 162.403 202.427 164.223 201.479L155.318 171.343C153.23 172.334 151.045 173.25 148.779 174.088L158.52 204.133Z" fill="white"/>
<ellipse cx="54.7732" cy="53.4117" rx="54.7732" ry="53.4117" transform="matrix(0.907708 0.419603 -0.886911 0.46194 105.673 98.743)" fill="white"/>
<path d="M150.752 124.327C175.611 135.818 176.549 155.126 152.885 167.452C129.22 179.777 89.8845 180.468 65.026 168.977C40.1676 157.486 39.2297 138.178 62.8943 125.852C86.5588 113.527 125.894 112.836 150.752 124.327Z" fill="white" stroke="black" stroke-width="0.76774"/>
<path d="M62.1876 125.29C86.0302 113.163 125.753 112.699 150.911 124.252C165.444 130.927 171.937 140.152 170.233 149.091C168.996 141.925 162.513 134.935 150.864 129.585C125.706 118.031 85.9834 118.496 62.141 130.622C52.0722 135.744 46.4451 142.126 45.1993 148.661C43.7653 140.35 49.3858 131.801 62.1876 125.29Z" fill="black"/>
<mask id="path-14-outside-3_152_42366" maskUnits="userSpaceOnUse" x="52.1176" y="125.232" width="111.603" height="44.7167" fill="black">
<rect fill="white" x="52.1176" y="125.232" width="111.603" height="44.7167"/>
<path d="M72.1392 156.817L140.345 136.496L144.3 138.764L76.0945 159.084L72.1392 156.817ZM126.692 148.864C128.485 148.189 129.288 147.327 129.102 146.276C128.949 145.229 127.707 144.037 125.375 142.7C123.832 141.815 122.323 141.144 120.85 140.686C119.377 140.229 117.993 139.969 116.697 139.907C115.418 139.839 114.274 139.949 113.263 140.236C112.414 140.461 111.839 140.758 111.539 141.128C111.255 141.507 111.187 141.947 111.334 142.45C111.516 142.956 111.879 143.52 112.424 144.142C112.969 144.764 113.671 145.438 114.53 146.162L117.709 148.913C119.567 150.489 120.94 151.957 121.829 153.317C122.733 154.687 123.145 155.937 123.065 157.067C123.002 158.207 122.42 159.227 121.321 160.129C120.222 161.031 118.588 161.812 116.419 162.472C112.958 163.49 109.212 163.919 105.184 163.76C101.155 163.602 97.0206 162.88 92.7799 161.594C88.5553 160.317 84.3849 158.498 80.2688 156.139C76.1366 153.77 73.2188 151.501 71.5155 149.333C69.8121 147.165 69.5026 145.177 70.5869 143.369C71.6712 141.561 74.3206 140.008 78.5353 138.711L89.9672 145.265C88.3052 145.844 87.2659 146.525 86.8493 147.307C86.4327 148.09 86.5817 148.949 87.2963 149.885C88.0269 150.83 89.2685 151.804 91.021 152.809C92.6289 153.731 94.2354 154.443 95.8405 154.945C97.4616 155.457 99.004 155.761 100.468 155.857C101.931 155.953 103.222 155.842 104.339 155.523C105.353 155.207 105.943 154.779 106.108 154.24C106.291 153.695 106.063 153.007 105.422 152.175C104.815 151.347 103.842 150.348 102.503 149.178L98.6736 145.823C95.4802 143.048 93.8613 140.595 93.8169 138.465C93.7902 136.33 95.8542 134.651 100.009 133.427C103.368 132.412 107.145 132.001 111.341 132.194C115.537 132.387 119.809 133.11 124.156 134.364C128.503 135.619 132.55 137.32 136.296 139.467C140.123 141.661 142.724 143.779 144.099 145.821C145.508 147.866 145.704 149.72 144.688 151.381C143.673 153.043 141.484 154.388 138.124 155.417L126.692 148.864Z"/>
</mask>
<path d="M72.1392 156.817L140.345 136.496L144.3 138.764L76.0945 159.084L72.1392 156.817ZM126.692 148.864C128.485 148.189 129.288 147.327 129.102 146.276C128.949 145.229 127.707 144.037 125.375 142.7C123.832 141.815 122.323 141.144 120.85 140.686C119.377 140.229 117.993 139.969 116.697 139.907C115.418 139.839 114.274 139.949 113.263 140.236C112.414 140.461 111.839 140.758 111.539 141.128C111.255 141.507 111.187 141.947 111.334 142.45C111.516 142.956 111.879 143.52 112.424 144.142C112.969 144.764 113.671 145.438 114.53 146.162L117.709 148.913C119.567 150.489 120.94 151.957 121.829 153.317C122.733 154.687 123.145 155.937 123.065 157.067C123.002 158.207 122.42 159.227 121.321 160.129C120.222 161.031 118.588 161.812 116.419 162.472C112.958 163.49 109.212 163.919 105.184 163.76C101.155 163.602 97.0206 162.88 92.7799 161.594C88.5553 160.317 84.3849 158.498 80.2688 156.139C76.1366 153.77 73.2188 151.501 71.5155 149.333C69.8121 147.165 69.5026 145.177 70.5869 143.369C71.6712 141.561 74.3206 140.008 78.5353 138.711L89.9672 145.265C88.3052 145.844 87.2659 146.525 86.8493 147.307C86.4327 148.09 86.5817 148.949 87.2963 149.885C88.0269 150.83 89.2685 151.804 91.021 152.809C92.6289 153.731 94.2354 154.443 95.8405 154.945C97.4616 155.457 99.004 155.761 100.468 155.857C101.931 155.953 103.222 155.842 104.339 155.523C105.353 155.207 105.943 154.779 106.108 154.24C106.291 153.695 106.063 153.007 105.422 152.175C104.815 151.347 103.842 150.348 102.503 149.178L98.6736 145.823C95.4802 143.048 93.8613 140.595 93.8169 138.465C93.7902 136.33 95.8542 134.651 100.009 133.427C103.368 132.412 107.145 132.001 111.341 132.194C115.537 132.387 119.809 133.11 124.156 134.364C128.503 135.619 132.55 137.32 136.296 139.467C140.123 141.661 142.724 143.779 144.099 145.821C145.508 147.866 145.704 149.72 144.688 151.381C143.673 153.043 141.484 154.388 138.124 155.417L126.692 148.864Z" fill="black"/>
<path d="M72.1392 156.817L71.7333 156.584L71.2849 156.718L71.6908 156.95L72.1392 156.817ZM140.345 136.496L140.793 136.363L140.387 136.13L139.939 136.263L140.345 136.496ZM144.3 138.764L144.706 138.996L145.155 138.863L144.749 138.63L144.3 138.764ZM76.0945 159.084L75.6461 159.218L76.052 159.451L76.5004 159.317L76.0945 159.084ZM126.692 148.864L126.247 148.644L125.873 148.785L126.244 148.997L126.692 148.864ZM129.102 146.276L128.498 146.235L128.499 146.239L129.102 146.276ZM120.85 140.686L121.12 140.477L121.12 140.477L120.85 140.686ZM116.697 139.907L116.755 140.173L116.761 140.173L116.697 139.907ZM113.263 140.236L113.649 140.475L113.661 140.471L113.263 140.236ZM111.539 141.128L110.964 140.992L110.96 140.997L111.539 141.128ZM111.334 142.45L110.734 142.427L110.737 142.435L111.334 142.45ZM112.424 144.142L112.983 144.095L112.424 144.142ZM114.53 146.162L115.058 146.084L115.054 146.08L114.53 146.162ZM117.709 148.913L117.182 148.992L117.185 148.994L117.709 148.913ZM121.829 153.317L121.249 153.338L121.25 153.339L121.829 153.317ZM123.065 157.067L122.461 157.002L122.461 157.004L123.065 157.067ZM121.321 160.129L120.775 159.965L120.775 159.965L121.321 160.129ZM116.419 162.472L116.823 162.706L116.829 162.704L116.419 162.472ZM105.184 163.76L105.108 163.493L105.184 163.76ZM92.7799 161.594L93.0424 161.382L93.0413 161.382L92.7799 161.594ZM71.5155 149.333L72.0831 149.296L71.5155 149.333ZM78.5353 138.711L78.9836 138.577L78.5727 138.342L78.1238 138.48L78.5353 138.711ZM89.9672 145.265L90.3994 145.489L90.7976 145.35L90.4155 145.131L89.9672 145.265ZM86.8493 147.307L86.2586 147.195L86.2586 147.195L86.8493 147.307ZM87.2963 149.885L86.7266 149.919L86.7275 149.92L87.2963 149.885ZM95.8405 154.945L96.1153 154.738L96.1127 154.737L95.8405 154.945ZM100.468 155.857L100.428 155.592L100.468 155.857ZM104.339 155.523L104.737 155.758L104.745 155.756L104.752 155.754L104.339 155.523ZM106.108 154.24L105.509 154.146L105.508 154.149L106.108 154.24ZM105.422 152.175L104.849 152.206L104.853 152.21L105.422 152.175ZM102.503 149.178L101.974 149.255L101.974 149.256L102.503 149.178ZM98.6736 145.823L99.2026 145.745L99.2014 145.744L98.6736 145.823ZM93.8169 138.465L93.2121 138.41L93.2121 138.411L93.8169 138.465ZM100.009 133.427L100.413 133.66L100.417 133.659L100.009 133.427ZM111.341 132.194L111.274 131.927L111.341 132.194ZM124.156 134.364L123.909 134.58L124.156 134.364ZM144.099 145.821L143.522 145.844L143.523 145.846L144.099 145.821ZM144.688 151.381L145.275 151.501L144.688 151.381ZM138.124 155.417L137.676 155.551L138.086 155.786L138.535 155.649L138.124 155.417ZM72.1392 156.817L72.545 157.049L140.751 136.729L140.345 136.496L139.939 136.263L71.7333 156.584L72.1392 156.817ZM140.345 136.496L139.897 136.63L143.852 138.897L144.3 138.764L144.749 138.63L140.793 136.363L140.345 136.496ZM144.3 138.764L143.894 138.531L75.6886 158.852L76.0945 159.084L76.5004 159.317L144.706 138.996L144.3 138.764ZM76.0945 159.084L76.5429 158.951L72.5875 156.683L72.1392 156.817L71.6908 156.95L75.6461 159.218L76.0945 159.084ZM126.692 148.864L127.137 149.083C129.031 148.371 129.906 147.445 129.705 146.312L129.102 146.276L128.499 146.239C128.671 147.208 127.94 148.007 126.247 148.644L126.692 148.864ZM129.102 146.276L129.705 146.316C129.54 145.187 128.206 143.932 125.824 142.567L125.375 142.7L124.927 142.834C127.207 144.141 128.357 145.27 128.498 146.235L129.102 146.276ZM125.375 142.7L125.824 142.567C124.248 141.663 122.682 140.962 121.12 140.477L120.85 140.686L120.58 140.895C121.965 141.326 123.415 141.967 124.927 142.834L125.375 142.7ZM120.85 140.686L121.12 140.477C119.571 139.996 118.07 139.709 116.632 139.64L116.697 139.907L116.761 140.173C117.915 140.229 119.184 140.461 120.58 140.895L120.85 140.686ZM116.697 139.907L116.639 139.64C115.229 139.566 113.967 139.688 112.865 140.001L113.263 140.236L113.661 140.471C114.581 140.21 115.608 140.113 116.755 140.173L116.697 139.907ZM113.263 140.236L112.877 139.998C111.953 140.243 111.305 140.573 110.964 140.992L111.539 141.128L112.114 141.264C112.374 140.944 112.875 140.68 113.649 140.474L113.263 140.236ZM111.539 141.128L110.96 140.997C110.648 141.414 110.578 141.893 110.735 142.427L111.334 142.45L111.934 142.472C111.796 142.002 111.863 141.599 112.118 141.259L111.539 141.128ZM111.334 142.45L110.737 142.435C110.928 142.966 111.306 143.552 111.865 144.19L112.424 144.142L112.983 144.095C112.451 143.488 112.104 142.946 111.931 142.465L111.334 142.45ZM112.424 144.142L111.865 144.19C112.422 144.825 113.137 145.51 114.007 146.244L114.53 146.162L115.054 146.08C114.206 145.365 113.516 144.703 112.983 144.095L112.424 144.142ZM114.53 146.162L114.003 146.241L117.182 148.992L117.709 148.913L118.237 148.835L115.058 146.084L114.53 146.162ZM117.709 148.913L117.185 148.994C119.025 150.555 120.377 152.002 121.249 153.338L121.829 153.317L122.408 153.296C121.504 151.912 120.11 150.423 118.234 148.832L117.709 148.913ZM121.829 153.317L121.25 153.339C122.138 154.685 122.538 155.905 122.461 157.002L123.065 157.067L123.67 157.132C123.752 155.969 123.327 154.689 122.407 153.295L121.829 153.317ZM123.065 157.067L122.461 157.004C122.399 158.108 121.836 159.094 120.775 159.965L121.321 160.129L121.868 160.293C123.004 159.361 123.604 158.306 123.67 157.131L123.065 157.067ZM121.321 160.129L120.775 159.965C119.713 160.836 118.13 161.595 116.01 162.241L116.419 162.472L116.829 162.704C119.046 162.029 120.731 161.226 121.868 160.293L121.321 160.129ZM116.419 162.472L116.016 162.239C112.632 163.233 108.997 163.646 105.108 163.493L105.184 163.76L105.26 164.028C109.427 164.192 113.283 163.746 116.823 162.706L116.419 162.472ZM105.184 163.76L105.108 163.493C101.212 163.34 97.195 162.641 93.0424 161.382L92.7799 161.594L92.5175 161.805C96.8462 163.118 101.098 163.864 105.26 164.028L105.184 163.76ZM92.7799 161.594L93.0413 161.382C88.9057 160.132 84.7961 158.344 80.7172 156.005L80.2688 156.139L79.8205 156.272C83.9738 158.653 88.2049 160.502 92.5185 161.805L92.7799 161.594ZM80.2688 156.139L80.7172 156.005C76.6245 153.659 73.754 151.423 72.0831 149.296L71.5155 149.333L70.9479 149.37C72.6837 151.579 75.6487 153.881 79.8205 156.272L80.2688 156.139ZM71.5155 149.333L72.0831 149.296C70.4176 147.176 70.1212 145.243 71.1742 143.487L70.5869 143.369L69.9996 143.251C68.884 145.111 69.2067 147.154 70.9479 149.37L71.5155 149.333ZM70.5869 143.369L71.1742 143.487C72.2236 141.737 74.7956 140.22 78.9467 138.942L78.5353 138.711L78.1238 138.48C73.8457 139.797 71.1188 141.385 69.9996 143.251L70.5869 143.369ZM78.5353 138.711L78.0869 138.844L89.5188 145.398L89.9672 145.265L90.4155 145.131L78.9836 138.577L78.5353 138.711ZM89.9672 145.265L89.5349 145.04C87.8115 145.641 86.7045 146.358 86.2586 147.195L86.8493 147.307L87.44 147.419C87.8274 146.692 88.7989 146.047 90.3994 145.489L89.9672 145.265ZM86.8493 147.307L86.2586 147.195C85.8154 148.028 85.9778 148.938 86.7266 149.919L87.2963 149.885L87.8659 149.85C87.1857 148.959 87.0501 148.152 87.44 147.419L86.8493 147.307ZM87.2963 149.885L86.7275 149.92C87.4899 150.906 88.7784 151.914 90.5727 152.943L91.021 152.809L91.4694 152.676C89.7586 151.695 88.5638 150.753 87.865 149.849L87.2963 149.885ZM91.021 152.809L90.5727 152.943C92.2148 153.884 93.8786 154.625 95.5682 155.154L95.8405 154.945L96.1127 154.737C94.5922 154.261 93.043 153.578 91.4694 152.676L91.021 152.809ZM95.8405 154.945L95.5656 155.153C97.2607 155.688 98.9117 156.018 100.507 156.123L100.468 155.857L100.428 155.592C99.0962 155.504 97.6625 155.226 96.1153 154.738L95.8405 154.945ZM100.468 155.857L100.507 156.123C102.105 156.228 103.522 156.105 104.737 155.758L104.339 155.523L103.94 155.288C102.922 155.579 101.757 155.679 100.428 155.592L100.468 155.857ZM104.339 155.523L104.752 155.754C105.861 155.408 106.523 154.933 106.708 154.33L106.108 154.24L105.508 154.149C105.362 154.626 104.845 155.006 103.925 155.293L104.339 155.523ZM106.108 154.24L106.707 154.333C106.909 153.733 106.651 152.997 105.991 152.14L105.422 152.175L104.853 152.21C105.474 153.016 105.674 153.657 105.509 154.146L106.108 154.24ZM105.422 152.175L105.994 152.144C105.371 151.295 104.38 150.28 103.031 149.101L102.503 149.178L101.974 149.256C103.303 150.417 104.258 151.399 104.849 152.206L105.422 152.175ZM102.503 149.178L103.032 149.101L99.2026 145.745L98.6736 145.823L98.1447 145.9L101.974 149.255L102.503 149.178ZM98.6736 145.823L99.2014 145.744C96.0417 142.999 94.4649 140.594 94.4216 138.52L93.8169 138.465L93.2121 138.411C93.2577 140.597 94.9188 143.097 98.1459 145.901L98.6736 145.823ZM93.8169 138.465L94.4217 138.521C94.3961 136.471 96.3676 134.852 100.413 133.66L100.009 133.427L99.6049 133.194C95.3408 134.45 93.1844 136.189 93.2121 138.41L93.8169 138.465ZM100.009 133.427L100.417 133.659C103.689 132.67 107.349 132.274 111.408 132.461L111.341 132.194L111.274 131.927C106.94 131.728 103.046 132.154 99.6006 133.195L100.009 133.427ZM111.341 132.194L111.408 132.461C115.484 132.648 119.647 133.351 123.909 134.58L124.156 134.364L124.403 134.148C119.97 132.869 115.59 132.125 111.274 131.927L111.341 132.194ZM124.156 134.364L123.909 134.58C128.168 135.809 132.148 137.48 135.848 139.601L136.296 139.467L136.745 139.334C132.952 137.159 128.839 135.428 124.403 134.148L124.156 134.364ZM136.296 139.467L135.848 139.601C139.629 141.769 142.178 143.849 143.522 145.844L144.099 145.821L144.676 145.797C143.27 143.709 140.617 141.554 136.745 139.334L136.296 139.467ZM144.099 145.821L143.523 145.846C144.901 147.848 145.087 149.65 144.102 151.262L144.688 151.381L145.275 151.501C146.321 149.79 146.114 147.885 144.675 145.795L144.099 145.821ZM144.688 151.381L144.102 151.262C143.117 152.873 140.996 154.181 137.714 155.186L138.124 155.417L138.535 155.649C141.973 154.596 144.228 153.213 145.275 151.501L144.688 151.381ZM138.124 155.417L138.572 155.284L127.141 148.73L126.692 148.864L126.244 148.997L137.676 155.551L138.124 155.417Z" fill="black" mask="url(#path-14-outside-3_152_42366)"/>
<mask id="path-16-outside-4_152_42366" maskUnits="userSpaceOnUse" x="52.3662" y="122.86" width="111.603" height="44.7167" fill="black">
<rect fill="white" x="52.3662" y="122.86" width="111.603" height="44.7167"/>
<path d="M72.3877 154.444L140.593 134.124L144.549 136.391L76.343 156.712L72.3877 154.444ZM126.941 146.491C128.734 145.817 129.537 144.954 129.35 143.903C129.197 142.856 127.955 141.664 125.624 140.328C124.08 139.443 122.572 138.771 121.099 138.314C119.626 137.856 118.241 137.596 116.945 137.534C115.667 137.467 114.522 137.576 113.512 137.864C112.662 138.089 112.088 138.386 111.788 138.755C111.504 139.134 111.435 139.575 111.583 140.077C111.764 140.583 112.127 141.148 112.673 141.77C113.218 142.392 113.92 143.065 114.779 143.79L117.958 146.541C119.816 148.116 121.189 149.584 122.077 150.945C122.981 152.314 123.394 153.564 123.314 154.695C123.25 155.834 122.669 156.855 121.57 157.757C120.47 158.659 118.837 159.44 116.668 160.1C113.206 161.117 109.461 161.546 105.432 161.388C101.404 161.229 97.2691 160.507 93.0285 159.221C88.8038 157.944 84.6335 156.126 80.5174 153.766C76.3851 151.397 73.4674 149.129 71.764 146.961C70.0607 144.792 69.7511 142.805 70.8354 140.997C71.9197 139.189 74.5692 137.636 78.7838 136.338L90.2157 142.892C88.5537 143.471 87.5145 144.152 87.0979 144.935C86.6813 145.717 86.8303 146.576 87.5448 147.512C88.2754 148.457 89.517 149.432 91.2696 150.437C92.8774 151.358 94.4839 152.07 96.089 152.573C97.7101 153.084 99.2525 153.388 100.716 153.485C102.18 153.581 103.47 153.47 104.587 153.151C105.601 152.835 106.191 152.407 106.357 151.867C106.54 151.322 106.311 150.634 105.67 149.802C105.063 148.975 104.09 147.976 102.751 146.806L98.9222 143.45C95.7287 140.675 94.1098 138.223 94.0654 136.093C94.0388 133.958 96.1028 132.278 100.257 131.054C103.616 130.04 107.393 129.629 111.589 129.821C115.786 130.014 120.057 130.738 124.404 131.992C128.752 133.246 132.799 134.947 136.545 137.095C140.372 139.289 142.972 141.406 144.347 143.448C145.756 145.494 145.953 147.347 144.937 149.009C143.921 150.67 141.733 152.016 138.373 153.045L126.941 146.491Z"/>
</mask>
<path d="M72.3877 154.444L140.593 134.124L144.549 136.391L76.343 156.712L72.3877 154.444ZM126.941 146.491C128.734 145.817 129.537 144.954 129.35 143.903C129.197 142.856 127.955 141.664 125.624 140.328C124.08 139.443 122.572 138.771 121.099 138.314C119.626 137.856 118.241 137.596 116.945 137.534C115.667 137.467 114.522 137.576 113.512 137.864C112.662 138.089 112.088 138.386 111.788 138.755C111.504 139.134 111.435 139.575 111.583 140.077C111.764 140.583 112.127 141.148 112.673 141.77C113.218 142.392 113.92 143.065 114.779 143.79L117.958 146.541C119.816 148.116 121.189 149.584 122.077 150.945C122.981 152.314 123.394 153.564 123.314 154.695C123.25 155.834 122.669 156.855 121.57 157.757C120.47 158.659 118.837 159.44 116.668 160.1C113.206 161.117 109.461 161.546 105.432 161.388C101.404 161.229 97.2691 160.507 93.0285 159.221C88.8038 157.944 84.6335 156.126 80.5174 153.766C76.3851 151.397 73.4674 149.129 71.764 146.961C70.0607 144.792 69.7511 142.805 70.8354 140.997C71.9197 139.189 74.5692 137.636 78.7838 136.338L90.2157 142.892C88.5537 143.471 87.5145 144.152 87.0979 144.935C86.6813 145.717 86.8303 146.576 87.5448 147.512C88.2754 148.457 89.517 149.432 91.2696 150.437C92.8774 151.358 94.4839 152.07 96.089 152.573C97.7101 153.084 99.2525 153.388 100.716 153.485C102.18 153.581 103.47 153.47 104.587 153.151C105.601 152.835 106.191 152.407 106.357 151.867C106.54 151.322 106.311 150.634 105.67 149.802C105.063 148.975 104.09 147.976 102.751 146.806L98.9222 143.45C95.7287 140.675 94.1098 138.223 94.0654 136.093C94.0388 133.958 96.1028 132.278 100.257 131.054C103.616 130.04 107.393 129.629 111.589 129.821C115.786 130.014 120.057 130.738 124.404 131.992C128.752 133.246 132.799 134.947 136.545 137.095C140.372 139.289 142.972 141.406 144.347 143.448C145.756 145.494 145.953 147.347 144.937 149.009C143.921 150.67 141.733 152.016 138.373 153.045L126.941 146.491Z" fill="#C7EF6B"/>
<path d="M72.3877 154.444L71.9818 154.211L71.5335 154.345L71.9393 154.578L72.3877 154.444ZM140.593 134.124L141.042 133.99L140.636 133.757L140.188 133.891L140.593 134.124ZM144.549 136.391L144.955 136.624L145.403 136.49L144.997 136.258L144.549 136.391ZM76.343 156.712L75.8947 156.845L76.3005 157.078L76.7489 156.944L76.343 156.712ZM126.941 146.491L126.496 146.271L126.122 146.412L126.492 146.625L126.941 146.491ZM129.35 143.903L128.747 143.863L128.747 143.867L129.35 143.903ZM121.099 138.314L121.369 138.105L121.369 138.105L121.099 138.314ZM116.945 137.534L117.003 137.8L117.01 137.801L116.945 137.534ZM113.512 137.864L113.898 138.102L113.909 138.099L113.512 137.864ZM111.788 138.755L111.213 138.62L111.209 138.625L111.788 138.755ZM111.583 140.077L110.983 140.055L110.986 140.062L111.583 140.077ZM112.673 141.77L113.231 141.722L112.673 141.77ZM114.779 143.79L115.306 143.711L115.302 143.708L114.779 143.79ZM117.958 146.541L117.431 146.619L117.434 146.622L117.958 146.541ZM122.077 150.945L121.498 150.966L121.499 150.967L122.077 150.945ZM123.314 154.695L122.709 154.63L122.709 154.631L123.314 154.695ZM121.57 157.757L121.023 157.593L121.023 157.593L121.57 157.757ZM116.668 160.1L117.072 160.333L117.077 160.331L116.668 160.1ZM105.432 161.388L105.356 161.121L105.432 161.388ZM93.0285 159.221L93.2909 159.01L93.2899 159.009L93.0285 159.221ZM71.764 146.961L72.3316 146.924L71.764 146.961ZM78.7838 136.338L79.2322 136.205L78.8212 135.969L78.3724 136.107L78.7838 136.338ZM90.2157 142.892L90.648 143.116L91.0461 142.977L90.6641 142.758L90.2157 142.892ZM87.0979 144.935L86.5072 144.823L86.5072 144.823L87.0979 144.935ZM87.5448 147.512L86.9752 147.546L86.976 147.547L87.5448 147.512ZM96.089 152.573L96.3638 152.365L96.3613 152.364L96.089 152.573ZM100.716 153.485L100.676 153.219L100.716 153.485ZM104.587 153.151L104.986 153.386L104.994 153.383L105.001 153.381L104.587 153.151ZM106.357 151.867L105.758 151.774L105.757 151.777L106.357 151.867ZM105.67 149.802L105.098 149.833L105.101 149.837L105.67 149.802ZM102.751 146.806L102.222 146.883L102.223 146.883L102.751 146.806ZM98.9222 143.45L99.4511 143.373L99.4499 143.372L98.9222 143.45ZM94.0654 136.093L93.4606 136.037L93.4607 136.038L94.0654 136.093ZM100.257 131.054L100.661 131.288L100.666 131.286L100.257 131.054ZM111.589 129.821L111.522 129.554L111.589 129.821ZM124.404 131.992L124.157 132.208L124.404 131.992ZM144.347 143.448L143.77 143.472L143.771 143.474L144.347 143.448ZM144.937 149.009L145.524 149.128L144.937 149.009ZM138.373 153.045L137.924 153.178L138.334 153.413L138.783 153.276L138.373 153.045ZM72.3877 154.444L72.7936 154.677L140.999 134.356L140.593 134.124L140.188 133.891L71.9818 154.211L72.3877 154.444ZM140.593 134.124L140.145 134.257L144.1 136.525L144.549 136.391L144.997 136.258L141.042 133.99L140.593 134.124ZM144.549 136.391L144.143 136.158L75.9372 156.479L76.343 156.712L76.7489 156.944L144.955 136.624L144.549 136.391ZM76.343 156.712L76.7914 156.578L72.8361 154.311L72.3877 154.444L71.9393 154.578L75.8947 156.845L76.343 156.712ZM126.941 146.491L127.386 146.711C129.279 145.999 130.154 145.073 129.953 143.939L129.35 143.903L128.747 143.867C128.919 144.835 128.189 145.635 126.496 146.271L126.941 146.491ZM129.35 143.903L129.954 143.943C129.789 142.814 128.455 141.56 126.072 140.194L125.624 140.328L125.175 140.461C127.456 141.768 128.606 142.898 128.747 143.863L129.35 143.903ZM125.624 140.328L126.072 140.194C124.497 139.291 122.93 138.59 121.369 138.105L121.099 138.314L120.829 138.523C122.214 138.953 123.664 139.595 125.175 140.461L125.624 140.328ZM121.099 138.314L121.369 138.105C119.819 137.623 118.318 137.336 116.881 137.267L116.945 137.534L117.01 137.801C118.164 137.856 119.432 138.089 120.829 138.523L121.099 138.314ZM116.945 137.534L116.887 137.268C115.477 137.193 114.215 137.316 113.114 137.629L113.512 137.864L113.909 138.099C114.83 137.837 115.856 137.74 117.003 137.8L116.945 137.534ZM113.512 137.864L113.126 137.625C112.201 137.87 111.553 138.2 111.213 138.62L111.788 138.755L112.362 138.891C112.622 138.571 113.123 138.307 113.898 138.102L113.512 137.864ZM111.788 138.755L111.209 138.625C110.896 139.042 110.826 139.52 110.983 140.055L111.583 140.077L112.183 140.1C112.044 139.629 112.111 139.227 112.366 138.886L111.788 138.755ZM111.583 140.077L110.986 140.062C111.176 140.594 111.555 141.179 112.114 141.817L112.673 141.77L113.231 141.722C112.7 141.116 112.352 140.573 112.18 140.092L111.583 140.077ZM112.673 141.77L112.114 141.817C112.671 142.453 113.386 143.138 114.256 143.872L114.779 143.79L115.302 143.708C114.454 142.992 113.765 142.331 113.231 141.722L112.673 141.77ZM114.779 143.79L114.252 143.868L117.431 146.619L117.958 146.541L118.485 146.462L115.306 143.711L114.779 143.79ZM117.958 146.541L117.434 146.622C119.273 148.182 120.626 149.63 121.498 150.966L122.077 150.945L122.656 150.924C121.752 149.539 120.358 148.051 118.482 146.459L117.958 146.541ZM122.077 150.945L121.499 150.967C122.387 152.312 122.787 153.532 122.709 154.63L123.314 154.695L123.918 154.76C124 153.596 123.576 152.316 122.655 150.923L122.077 150.945ZM123.314 154.695L122.709 154.631C122.648 155.735 122.085 156.722 121.023 157.593L121.57 157.757L122.116 157.921C123.253 156.988 123.853 155.933 123.919 154.758L123.314 154.695ZM121.57 157.757L121.023 157.593C119.962 158.464 118.378 159.223 116.258 159.868L116.668 160.1L117.077 160.331C119.295 159.656 120.979 158.853 122.116 157.921L121.57 157.757ZM116.668 160.1L116.264 159.866C112.88 160.861 109.246 161.274 105.356 161.121L105.432 161.388L105.509 161.655C109.676 161.819 113.532 161.373 117.071 160.333L116.668 160.1ZM105.432 161.388L105.356 161.121C101.461 160.967 97.4435 160.269 93.2909 159.01L93.0285 159.221L92.766 159.432C97.0948 160.745 101.347 161.491 105.509 161.655L105.432 161.388ZM93.0285 159.221L93.2899 159.009C89.1542 157.759 85.0446 155.971 80.9657 153.633L80.5173 153.766L80.069 153.9C84.2223 156.281 88.4535 158.129 92.767 159.433L93.0285 159.221ZM80.5173 153.766L80.9657 153.633C76.8731 151.286 74.0025 149.05 72.3316 146.924L71.764 146.961L71.1964 146.997C72.9323 149.207 75.8972 151.508 80.069 153.9L80.5173 153.766ZM71.764 146.961L72.3316 146.924C70.6661 144.804 70.3697 142.87 71.4227 141.115L70.8354 140.997L70.2482 140.879C69.1325 142.739 69.4552 144.781 71.1964 146.997L71.764 146.961ZM70.8354 140.997L71.4227 141.115C72.4721 139.365 75.0441 137.847 79.1953 136.569L78.7838 136.338L78.3724 136.107C74.0942 137.424 71.3673 139.012 70.2482 140.879L70.8354 140.997ZM78.7838 136.338L78.3354 136.472L89.7673 143.026L90.2157 142.892L90.6641 142.758L79.2322 136.205L78.7838 136.338ZM90.2157 142.892L89.7834 142.668C88.06 143.268 86.953 143.985 86.5072 144.823L87.0979 144.935L87.6886 145.047C88.0759 144.319 89.0474 143.674 90.648 143.116L90.2157 142.892ZM87.0979 144.935L86.5072 144.823C86.064 145.655 86.2263 146.566 86.9752 147.546L87.5448 147.512L88.1144 147.478C87.4342 146.587 87.2986 145.779 87.6886 145.047L87.0979 144.935ZM87.5448 147.512L86.976 147.547C87.7385 148.534 89.0269 149.542 90.8212 150.57L91.2696 150.437L91.718 150.303C90.0071 149.322 88.8124 148.38 88.1136 147.477L87.5448 147.512ZM91.2696 150.437L90.8212 150.57C92.4634 151.512 94.1271 152.252 95.8167 152.781L96.089 152.573L96.3613 152.364C94.8407 151.889 93.2915 151.205 91.718 150.303L91.2696 150.437ZM96.089 152.573L95.8142 152.78C97.5092 153.315 99.1602 153.645 100.756 153.75L100.716 153.485L100.676 153.219C99.3448 153.132 97.911 152.854 96.3638 152.365L96.089 152.573ZM100.716 153.485L100.756 153.75C102.354 153.855 103.77 153.733 104.986 153.386L104.587 153.151L104.189 152.916C103.17 153.207 102.005 153.307 100.676 153.219L100.716 153.485ZM104.587 153.151L105.001 153.381C106.109 153.036 106.772 152.56 106.957 151.957L106.357 151.867L105.757 151.777C105.611 152.253 105.094 152.634 104.174 152.92L104.587 153.151ZM106.357 151.867L106.956 151.96C107.157 151.36 106.9 150.624 106.239 149.767L105.67 149.802L105.101 149.837C105.723 150.644 105.923 151.284 105.758 151.774L106.357 151.867ZM105.67 149.802L106.243 149.772C105.62 148.923 104.629 147.907 103.28 146.728L102.751 146.806L102.223 146.883C103.552 148.044 104.507 149.027 105.098 149.833L105.67 149.802ZM102.751 146.806L103.28 146.729L99.4511 143.373L98.9222 143.45L98.3932 143.527L102.222 146.883L102.751 146.806ZM98.9222 143.45L99.4499 143.372C96.2902 140.626 94.7134 138.221 94.6702 136.148L94.0654 136.093L93.4607 136.038C93.5062 138.224 95.1673 140.724 98.3944 143.528L98.9222 143.45ZM94.0654 136.093L94.6702 136.149C94.6446 134.099 96.6162 132.479 100.661 131.288L100.257 131.054L99.8534 130.821C95.5894 132.077 93.4329 133.816 93.4606 136.037L94.0654 136.093ZM100.257 131.054L100.666 131.286C103.938 130.298 107.598 129.902 111.657 130.088L111.589 129.821L111.522 129.554C107.189 129.355 103.294 129.781 99.8491 130.822L100.257 131.054ZM111.589 129.821L111.657 130.088C115.732 130.275 119.896 130.978 124.157 132.208L124.404 131.992L124.652 131.776C120.219 130.497 115.839 129.753 111.522 129.554L111.589 129.821ZM124.404 131.992L124.157 132.208C128.416 133.436 132.397 135.107 136.096 137.228L136.545 137.095L136.993 136.961C133.2 134.787 129.087 133.056 124.652 131.776L124.404 131.992ZM136.545 137.095L136.096 137.228C139.878 139.396 142.427 141.477 143.77 143.472L144.347 143.448L144.925 143.425C143.518 141.336 140.865 139.181 136.993 136.961L136.545 137.095ZM144.347 143.448L143.771 143.474C145.15 145.475 145.336 147.278 144.35 148.89L144.937 149.009L145.524 149.128C146.57 147.417 146.363 145.513 144.924 143.423L144.347 143.448ZM144.937 149.009L144.35 148.89C143.366 150.5 141.245 151.808 137.962 152.814L138.373 153.045L138.783 153.276C142.221 152.223 144.477 150.841 145.524 149.128L144.937 149.009ZM138.373 153.045L138.821 152.911L127.389 146.357L126.941 146.491L126.492 146.625L137.924 153.178L138.373 153.045Z" fill="black" mask="url(#path-16-outside-4_152_42366)"/>
<path d="M160.653 126.696C159.818 126.847 158.972 126.983 158.116 127.105C155.827 127.431 153.469 127.655 151.055 127.782C146.266 128.034 141.26 127.902 136.15 127.42C131.945 127.024 127.671 126.39 123.39 125.538C102.41 121.361 81.2735 111.935 67.4517 99.4434C64.6697 96.9291 62.3146 94.4086 60.3786 91.9122C56.5164 86.932 54.3223 82.0473 53.7343 77.4982C52.2395 65.932 61.1273 56.5341 79.3802 53.2447C108.411 48.013 150.139 60.2145 172.582 80.4975C183.879 90.7079 188.136 101.02 185.875 109.411C184.678 113.853 181.655 117.757 176.882 120.823C172.76 123.47 167.334 125.492 160.653 126.696Z" fill="black"/>
<path d="M60.3786 91.9122C56.5164 86.932 54.3223 82.0473 53.7343 77.4982L51.9283 103.582C52.9088 99.0583 55.752 95.0651 60.3786 91.9122Z" fill="black"/>
<path d="M185.875 109.411C184.678 113.853 181.655 117.757 176.882 120.823C180.847 126.115 182.911 131.287 183.149 136.042L185.875 109.411Z" fill="black"/>
<path fill-rule="evenodd" clip-rule="evenodd" d="M151.423 159.365C147.12 159.761 142.607 159.823 137.976 159.577L136.15 127.42C131.945 127.024 127.671 126.39 123.39 125.538L124.154 157.998C102.283 154.23 79.7818 144.544 65.3277 131.481C54.467 121.665 50.1564 111.757 51.9283 103.582C52.9088 99.0583 55.752 95.0651 60.3786 91.9122C64.5249 89.0866 70.1036 86.9359 77.0576 85.6827C105.793 80.5042 147.13 92.6127 169.387 112.728C172.379 115.432 174.874 118.143 176.882 120.823C180.847 126.115 182.911 131.287 183.149 136.042C183.688 146.792 174.901 155.418 157.658 158.526L158.116 127.105C155.827 127.431 153.469 127.655 151.055 127.782L151.423 159.365Z" fill="black"/>
<path d="M132.496 159.148C134.337 159.337 136.166 159.48 137.976 159.577L136.15 127.42C131.945 127.024 127.671 126.39 123.39 125.538L124.154 157.998C126.951 158.48 129.738 158.865 132.496 159.148Z" fill="white"/>
<path d="M151.423 159.365C153.556 159.168 155.638 158.89 157.658 158.526L158.116 127.105C155.827 127.431 153.469 127.655 151.055 127.782L151.423 159.365Z" fill="white"/>
<ellipse cx="54.7732" cy="53.4117" rx="54.7732" ry="53.4117" transform="matrix(0.741904 0.670506 -0.984147 0.177356 132.3 43.0276)" fill="white"/>
<path d="M167.733 80.8572C188.051 99.2196 183.206 117.933 156.948 122.666C130.689 127.398 92.9262 116.362 72.6084 98C52.2906 79.6376 57.1359 60.9236 83.3949 56.1914C109.654 51.4593 147.416 62.4949 167.733 80.8572Z" fill="white" stroke="black" stroke-width="0.76774"/>
<path d="M82.889 55.4443C109.259 50.955 147.323 62.3217 167.908 80.833C179.799 91.5258 183.256 102.264 178.973 110.292C179.922 103.082 175.81 94.4821 166.279 85.9113C145.694 67.4001 107.63 56.0334 81.2598 60.5226C70.1225 62.4188 62.8518 66.84 59.7199 72.7098C60.8206 64.348 68.729 57.8551 82.889 55.4443Z" fill="black"/>
<mask id="path-22-outside-5_152_42366" maskUnits="userSpaceOnUse" x="67.0942" y="72.297" width="105.656" height="36.0743" fill="black">
<rect fill="white" x="67.0942" y="72.297" width="105.656" height="36.0743"/>
<path d="M83.0169 88.5049L154.18 89.3821L157.282 92.7231L86.1191 91.8459L83.0169 88.5049ZM137.468 97.131C139.38 97.0203 140.403 96.4354 140.538 95.3764C140.703 94.3312 139.871 92.824 138.043 90.8547C136.832 89.5509 135.591 88.4615 134.321 87.5866C133.051 86.7117 131.806 86.0519 130.587 85.6072C129.387 85.1628 128.261 84.9274 127.211 84.901C126.333 84.8634 125.696 84.9764 125.3 85.24C124.916 85.5172 124.72 85.9176 124.711 86.4411C124.734 86.9784 124.913 87.625 125.248 88.381C125.584 89.137 126.054 89.9886 126.659 90.9359L128.876 94.5077C130.182 96.5645 131.056 98.3744 131.5 99.9373C131.956 101.514 131.978 102.83 131.566 103.885C131.166 104.954 130.308 105.756 128.99 106.29C127.672 106.825 125.88 107.084 123.613 107.07C120.005 107.012 116.302 106.309 112.503 104.959C108.703 103.61 104.971 101.691 101.304 99.2026C97.65 96.7274 94.2089 93.7515 90.9805 90.2746C87.7395 86.7842 85.6281 83.7508 84.6464 81.1743C83.6647 78.5978 83.9602 76.6077 85.533 75.204C87.1058 73.8002 90.0971 73.1054 94.5069 73.1194L103.473 82.7758C101.714 82.8347 100.52 83.1757 99.8892 83.799C99.2588 84.4222 99.1456 85.2868 99.5496 86.3927C99.9662 87.5122 100.862 88.8122 102.236 90.2925C103.497 91.6507 104.82 92.8082 106.203 93.765C107.598 94.7355 108.981 95.4842 110.349 96.0113C111.718 96.5383 112.983 96.8157 114.145 96.8435C115.207 96.8432 115.898 96.61 116.216 96.144C116.553 95.6783 116.539 94.9531 116.175 93.9685C115.841 92.9977 115.209 91.7547 114.278 90.2396L111.62 85.8971C109.396 82.2984 108.58 79.4755 109.17 77.4287C109.78 75.382 112.25 74.3921 116.58 74.4589C120.089 74.4887 123.818 75.2194 127.767 76.6509C131.716 78.0825 135.579 80.0433 139.357 82.5334C143.135 85.0235 146.493 87.8507 149.431 91.0152C152.432 94.2476 154.286 97.0429 154.992 99.4011C155.729 101.773 155.365 103.601 153.901 104.886C152.437 106.17 149.948 106.804 146.434 106.787L137.468 97.131Z"/>
</mask>
<path d="M83.0169 88.5049L154.18 89.3821L157.282 92.7231L86.1191 91.8459L83.0169 88.5049ZM137.468 97.131C139.38 97.0203 140.403 96.4354 140.538 95.3764C140.703 94.3312 139.871 92.824 138.043 90.8547C136.832 89.5509 135.591 88.4615 134.321 87.5866C133.051 86.7117 131.806 86.0519 130.587 85.6072C129.387 85.1628 128.261 84.9274 127.211 84.901C126.333 84.8634 125.696 84.9764 125.3 85.24C124.916 85.5172 124.72 85.9176 124.711 86.4411C124.734 86.9784 124.913 87.625 125.248 88.381C125.584 89.137 126.054 89.9886 126.659 90.9359L128.876 94.5077C130.182 96.5645 131.056 98.3744 131.5 99.9373C131.956 101.514 131.978 102.83 131.566 103.885C131.166 104.954 130.308 105.756 128.99 106.29C127.672 106.825 125.88 107.084 123.613 107.07C120.005 107.012 116.302 106.309 112.503 104.959C108.703 103.61 104.971 101.691 101.304 99.2026C97.65 96.7274 94.2089 93.7515 90.9805 90.2746C87.7395 86.7842 85.6281 83.7508 84.6464 81.1743C83.6647 78.5978 83.9602 76.6077 85.533 75.204C87.1058 73.8002 90.0971 73.1054 94.5069 73.1194L103.473 82.7758C101.714 82.8347 100.52 83.1757 99.8892 83.799C99.2588 84.4222 99.1456 85.2868 99.5496 86.3927C99.9662 87.5122 100.862 88.8122 102.236 90.2925C103.497 91.6507 104.82 92.8082 106.203 93.765C107.598 94.7355 108.981 95.4842 110.349 96.0113C111.718 96.5383 112.983 96.8157 114.145 96.8435C115.207 96.8432 115.898 96.61 116.216 96.144C116.553 95.6783 116.539 94.9531 116.175 93.9685C115.841 92.9977 115.209 91.7547 114.278 90.2396L111.62 85.8971C109.396 82.2984 108.58 79.4755 109.17 77.4287C109.78 75.382 112.25 74.3921 116.58 74.4589C120.089 74.4887 123.818 75.2194 127.767 76.6509C131.716 78.0825 135.579 80.0433 139.357 82.5334C143.135 85.0235 146.493 87.8507 149.431 91.0152C152.432 94.2476 154.286 97.0429 154.992 99.4011C155.729 101.773 155.365 103.601 153.901 104.886C152.437 106.17 149.948 106.804 146.434 106.787L137.468 97.131Z" fill="black"/>
<path d="M83.0169 88.5049L82.6985 88.1621L82.2307 88.1563L82.5491 88.4992L83.0169 88.5049ZM154.18 89.3821L154.648 89.3878L154.329 89.045L153.862 89.0392L154.18 89.3821ZM157.282 92.7231L157.601 93.0659L158.068 93.0717L157.75 92.7289L157.282 92.7231ZM86.1191 91.8459L85.6513 91.8402L85.9697 92.183L86.4375 92.1888L86.1191 91.8459ZM137.468 97.131L137.108 96.789L136.709 96.8121L137 97.1252L137.468 97.131ZM140.538 95.3764L139.973 95.1586L139.973 95.1623L140.538 95.3764ZM134.321 87.5866L134.641 87.4672L134.641 87.4672L134.321 87.5866ZM130.587 85.6072L130.563 85.8788L130.569 85.8811L130.587 85.6072ZM127.211 84.901L127.509 85.2434L127.521 85.2437L127.211 84.901ZM125.3 85.24L124.791 84.9394L124.786 84.943L125.3 85.24ZM124.711 86.4411L124.145 86.2411L124.145 86.2494L124.711 86.4411ZM125.248 88.381L125.796 88.5018L125.248 88.381ZM126.659 90.9359L127.186 91.0175L127.183 91.0134L126.659 90.9359ZM128.876 94.5077L128.35 94.4261L128.352 94.4293L128.876 94.5077ZM131.5 99.9373L130.941 99.7852L130.941 99.7862L131.5 99.9373ZM131.566 103.885L131.008 103.643L131.007 103.645L131.566 103.885ZM128.99 106.29L128.517 105.971L128.517 105.971L128.99 106.29ZM123.613 107.07L123.929 107.413L123.935 107.413L123.613 107.07ZM112.503 104.959L112.509 104.682L112.503 104.959ZM101.304 99.2026L101.617 99.0788L101.617 99.0782L101.304 99.2026ZM84.6464 81.1743L85.1993 81.3078L84.6464 81.1743ZM94.5069 73.1194L94.9748 73.1252L94.6524 72.7781L94.1828 72.7766L94.5069 73.1194ZM103.473 82.7758L103.819 83.1184L104.241 83.1043L103.941 82.7816L103.473 82.7758ZM99.8892 83.799L99.3585 83.5164L99.3585 83.5164L99.8892 83.799ZM99.5496 86.3927L98.9955 86.2561L98.996 86.2574L99.5496 86.3927ZM106.203 93.765L106.527 93.6486L106.525 93.647L106.203 93.765ZM110.349 96.0113L110.39 95.7461L110.349 96.0113ZM114.145 96.8435L114.456 97.1862L114.464 97.1864L114.471 97.1864L114.145 96.8435ZM116.216 96.144L115.672 95.8769L115.67 95.8795L116.216 96.144ZM116.175 93.9685L115.619 93.8276L115.621 93.8328L116.175 93.9685ZM114.278 90.2396L113.75 90.1559L113.751 90.1564L114.278 90.2396ZM111.62 85.8971L112.148 85.9807L112.147 85.9793L111.62 85.8971ZM109.17 77.4287L108.61 77.1957L108.609 77.1966L109.17 77.4287ZM116.58 74.4589L116.897 74.8017L116.901 74.8017L116.58 74.4589ZM127.767 76.6509L127.782 76.3761L127.767 76.6509ZM139.357 82.5334L139.057 82.6661L139.357 82.5334ZM154.992 99.4011L154.434 99.2519L154.434 99.254L154.992 99.4011ZM153.901 104.886L154.426 105.174L153.901 104.886ZM146.434 106.787L145.966 106.782L146.288 107.128L146.757 107.13L146.434 106.787ZM83.0169 88.5049L83.3352 88.8478L154.498 89.7249L154.18 89.3821L153.862 89.0392L82.6985 88.1621L83.0169 88.5049ZM154.18 89.3821L153.712 89.3763L156.814 92.7173L157.282 92.7231L157.75 92.7289L154.648 89.3878L154.18 89.3821ZM157.282 92.7231L156.964 92.3803L85.8008 91.5031L86.1191 91.8459L86.4375 92.1888L157.601 93.0659L157.282 92.7231ZM86.1191 91.8459L86.5869 91.8517L83.4847 88.5107L83.0169 88.5049L82.5491 88.4992L85.6513 91.8402L86.1191 91.8459ZM137.468 97.131L137.827 97.4729C139.847 97.356 140.958 96.7324 141.102 95.5905L140.538 95.3764L139.973 95.1623C139.849 96.1385 138.913 96.6845 137.108 96.789L137.468 97.131ZM140.538 95.3764L141.102 95.5943C141.28 94.4673 140.379 92.8731 138.51 90.8605L138.043 90.8547L137.575 90.8489C139.363 92.7749 140.126 94.1952 139.973 95.1586L140.538 95.3764ZM138.043 90.8547L138.51 90.8605C137.275 89.5297 135.988 88.3946 134.641 87.4672L134.321 87.5866L134.001 87.706C135.195 88.5284 136.389 89.5721 137.575 90.8489L138.043 90.8547ZM134.321 87.5866L134.641 87.4672C133.305 86.5469 131.957 85.8266 130.605 85.3334L130.587 85.6072L130.569 85.8811C131.655 86.2772 132.797 86.8764 134.001 87.706L134.321 87.5866ZM130.587 85.6072L130.611 85.3356C129.287 84.8454 128.045 84.5871 126.901 84.5584L127.211 84.901L127.521 85.2437C128.477 85.2677 129.486 85.4802 130.563 85.8788L130.587 85.6072ZM127.211 84.901L126.913 84.5588C125.958 84.5178 125.241 84.6404 124.791 84.9395L125.3 85.24L125.808 85.5405C126.151 85.3123 126.708 85.209 127.508 85.2433L127.211 84.901ZM125.3 85.24L124.786 84.943C124.363 85.2483 124.154 85.6844 124.145 86.2412L124.711 86.4411L125.277 86.641C125.285 86.1507 125.468 85.7861 125.813 85.5369L125.3 85.24ZM124.711 86.4411L124.145 86.2494C124.169 86.8135 124.357 87.4851 124.701 88.2603L125.248 88.381L125.796 88.5018C125.469 87.7649 125.298 87.1433 125.277 86.6327L124.711 86.4411ZM125.248 88.381L124.701 88.2603C125.044 89.0329 125.522 89.8993 126.135 90.8584L126.659 90.9359L127.183 91.0134C126.586 90.078 126.124 89.2411 125.796 88.5018L125.248 88.381ZM126.659 90.9359L126.132 90.8543L128.35 94.4261L128.876 94.5077L129.403 94.5893L127.186 91.0175L126.659 90.9359ZM128.876 94.5077L128.352 94.4293C129.644 96.4658 130.505 98.2501 130.941 99.7852L131.5 99.9373L132.059 100.089C131.607 98.4987 130.719 96.6632 129.401 94.5861L128.876 94.5077ZM131.5 99.9373L130.941 99.7862C131.389 101.335 131.408 102.619 131.008 103.643L131.566 103.885L132.124 104.127C132.548 103.041 132.523 101.693 132.058 100.088L131.5 99.9373ZM131.566 103.885L131.007 103.645C130.62 104.681 129.79 105.455 128.517 105.971L128.99 106.29L129.463 106.609C130.825 106.057 131.712 105.228 132.124 104.126L131.566 103.885ZM128.99 106.29L128.517 105.971C127.245 106.487 125.507 106.741 123.291 106.727L123.613 107.07L123.935 107.413C126.253 107.428 128.1 107.162 129.463 106.609L128.99 106.29ZM123.613 107.07L123.297 106.727C119.77 106.671 116.178 105.984 112.509 104.682L112.503 104.959L112.496 105.237C116.426 106.633 120.24 107.354 123.929 107.413L123.613 107.07ZM112.503 104.959L112.509 104.682C108.836 103.377 105.208 101.516 101.617 99.0788L101.304 99.2026L100.991 99.3264C104.733 101.867 108.571 103.843 112.496 105.237L112.503 104.959ZM101.304 99.2026L101.617 99.0782C98.0395 96.6552 94.6475 93.7258 91.4483 90.2804L90.9805 90.2746L90.5127 90.2688C93.7702 93.7771 97.2606 96.7997 100.991 99.327L101.304 99.2026ZM90.9805 90.2746L91.4483 90.2804C88.2383 86.8234 86.1623 83.8352 85.1993 81.3078L84.6464 81.1743L84.0935 81.0408C85.0939 83.6664 87.2406 86.745 90.5127 90.2688L90.9805 90.2746ZM84.6464 81.1743L85.1993 81.3078C84.2394 78.7886 84.5313 76.8545 86.0586 75.4913L85.533 75.204L85.0074 74.9166C83.3892 76.3609 83.09 78.4071 84.0935 81.0408L84.6464 81.1743ZM85.533 75.204L86.0586 75.4913C87.5808 74.1327 90.4877 73.4485 94.8311 73.4623L94.5069 73.1194L94.1828 72.7766C89.7065 72.7623 86.6307 73.4677 85.0074 74.9166L85.533 75.204ZM94.5069 73.1194L94.0391 73.1137L103.005 82.77L103.473 82.7758L103.941 82.7816L94.9748 73.1252L94.5069 73.1194ZM103.473 82.7758L103.127 82.4333C101.303 82.4943 100.033 82.8494 99.3585 83.5164L99.8892 83.799L100.42 84.0816C101.006 83.5021 102.125 83.1751 103.819 83.1184L103.473 82.7758ZM99.8892 83.799L99.3585 83.5164C98.6878 84.1795 98.5721 85.0971 98.9955 86.2561L99.5496 86.3927L100.104 86.5294C99.7191 85.4766 99.8298 84.665 100.42 84.0816L99.8892 83.799ZM99.5496 86.3927L98.996 86.2574C99.4308 87.4257 100.361 88.7712 101.769 90.2868L102.236 90.2925L102.704 90.2983C101.362 88.8531 100.502 87.5988 100.103 86.528L99.5496 86.3927ZM102.236 90.2925L101.769 90.2868C103.057 91.6739 104.425 92.8758 105.881 93.883L106.203 93.765L106.525 93.647C105.214 92.7406 103.938 91.6275 102.704 90.2983L102.236 90.2925ZM106.203 93.765L105.879 93.8815C107.338 94.8962 108.816 95.7018 110.309 96.2765L110.349 96.0113L110.39 95.7461C109.145 95.2666 107.859 94.5748 106.527 93.6486L106.203 93.765ZM110.349 96.0113L110.309 96.2765C111.803 96.852 113.192 97.156 114.456 97.1862L114.145 96.8435L113.834 96.5008C112.775 96.4755 111.633 96.2247 110.39 95.7461L110.349 96.0113ZM114.145 96.8435L114.471 97.1864C115.632 97.186 116.406 96.9291 116.762 96.4085L116.216 96.144L115.67 95.8795C115.389 96.2909 114.782 96.5003 113.819 96.5006L114.145 96.8435ZM116.216 96.144L116.76 96.4111C117.131 95.8982 117.104 95.1188 116.728 94.1041L116.175 93.9685L115.621 93.8328C115.974 94.7874 115.975 95.4583 115.672 95.8769L116.216 96.144ZM116.175 93.9685L116.73 94.1094C116.388 93.1136 115.744 91.8494 114.806 90.3227L114.278 90.2396L113.751 90.1564C114.674 91.66 115.294 92.8819 115.619 93.8276L116.175 93.9685ZM114.278 90.2396L114.806 90.3232L112.148 85.9807L111.62 85.8971L111.092 85.8135L113.75 90.1559L114.278 90.2396ZM111.62 85.8971L112.147 85.9793C109.947 82.4186 109.156 79.6535 109.732 77.6607L109.17 77.4287L108.609 77.1966C108.003 79.2976 108.846 82.1781 111.093 85.8148L111.62 85.8971ZM109.17 77.4287L109.731 77.6617C110.316 75.697 112.68 74.7366 116.897 74.8017L116.58 74.4589L116.264 74.1161C111.819 74.0475 109.243 75.067 108.61 77.1957L109.17 77.4287ZM116.58 74.4589L116.901 74.8017C120.319 74.8308 123.932 75.541 127.752 76.9257L127.767 76.6509L127.782 76.3761C123.704 74.8977 119.859 74.1466 116.26 74.116L116.58 74.4589ZM127.767 76.6509L127.752 76.9257C131.587 78.3162 135.353 80.225 139.057 82.6661L139.357 82.5334L139.657 82.4007C135.805 79.8616 131.844 77.8488 127.782 76.3761L127.767 76.6509ZM139.357 82.5334L139.057 82.6661C142.758 85.1055 146.061 87.8844 148.963 91.0094L149.431 91.0152L149.899 91.021C146.924 87.8171 143.512 84.9415 139.657 82.4007L139.357 82.5334ZM149.431 91.0152L148.963 91.0094C151.929 94.2035 153.744 96.9477 154.434 99.2519L154.992 99.4011L155.55 99.5504C154.828 97.1381 152.936 94.2917 149.899 91.021L149.431 91.0152ZM154.992 99.4011L154.434 99.254C155.155 101.575 154.797 103.351 153.377 104.597L153.901 104.886L154.426 105.174C155.934 103.851 156.302 101.971 155.549 99.5482L154.992 99.4011ZM153.901 104.886L153.377 104.597C151.958 105.842 149.544 106.461 146.111 106.444L146.434 106.787L146.757 107.13C150.353 107.147 152.917 106.498 154.426 105.174L153.901 104.886ZM146.434 106.787L146.902 106.793L137.935 97.1367L137.468 97.131L137 97.1252L145.966 106.782L146.434 106.787Z" fill="black" mask="url(#path-22-outside-5_152_42366)"/>
<mask id="path-24-outside-6_152_42366" maskUnits="userSpaceOnUse" x="68.0366" y="70.1057" width="105.656" height="36.0743" fill="black">
<rect fill="white" x="68.0366" y="70.1057" width="105.656" height="36.0743"/>
<path d="M83.9592 86.3136L155.122 87.1907L158.225 90.5318L87.0615 89.6546L83.9592 86.3136ZM138.41 94.9396C140.322 94.8289 141.346 94.2441 141.48 93.1851C141.645 92.1399 140.814 90.6327 138.985 88.6634C137.774 87.3595 136.534 86.2702 135.263 85.3953C133.993 84.5203 132.748 83.8605 131.529 83.4159C130.329 82.9715 129.204 82.7361 128.153 82.7097C127.275 82.672 126.638 82.785 126.242 83.0486C125.858 83.3259 125.662 83.7262 125.654 84.2497C125.676 84.787 125.855 85.4337 126.191 86.1897C126.526 86.9457 126.997 87.7973 127.601 88.7446L129.819 92.3164C131.124 94.3732 131.998 96.183 132.442 97.7459C132.898 99.3224 132.92 100.638 132.508 101.694C132.109 102.763 131.25 103.565 129.932 104.099C128.615 104.633 126.822 104.893 124.556 104.879C120.948 104.821 117.244 104.117 113.445 102.768C109.646 101.419 105.913 99.4999 102.246 97.0112C98.5924 94.5361 95.1513 91.5601 91.9229 88.0833C88.6819 84.5929 86.5705 81.5594 85.5888 78.983C84.6071 76.4065 84.9026 74.4164 86.4754 73.0126C88.0481 71.6089 91.0395 70.914 95.4493 70.9281L104.416 80.5845C102.657 80.6433 101.462 80.9844 100.832 81.6077C100.201 82.2309 100.088 83.0955 100.492 84.2014C100.909 85.3209 101.804 86.6208 103.179 88.1012C104.44 89.4593 105.762 90.6168 107.145 91.5737C108.541 92.5441 109.923 93.2929 111.292 93.8199C112.661 94.347 113.926 94.6244 115.087 94.6521C116.15 94.6518 116.84 94.4186 117.158 93.9527C117.495 93.4869 117.482 92.7617 117.117 91.7772C116.783 90.8064 116.151 89.5634 115.221 88.0482L112.563 83.7057C110.339 80.107 109.522 77.2842 110.113 75.2373C110.722 73.1907 113.192 72.2007 117.523 72.2675C121.031 72.2974 124.76 73.028 128.709 74.4596C132.658 75.8911 136.521 77.852 140.299 80.342C144.077 82.8321 147.435 85.6594 150.373 88.8239C153.375 92.0562 155.228 94.8515 155.934 97.2098C156.671 99.5818 156.308 101.41 154.844 102.694C153.38 103.979 150.891 104.612 147.376 104.596L138.41 94.9396Z"/>
</mask>
<path d="M83.9592 86.3136L155.122 87.1907L158.225 90.5318L87.0615 89.6546L83.9592 86.3136ZM138.41 94.9396C140.322 94.8289 141.346 94.2441 141.48 93.1851C141.645 92.1399 140.814 90.6327 138.985 88.6634C137.774 87.3595 136.534 86.2702 135.263 85.3953C133.993 84.5203 132.748 83.8605 131.529 83.4159C130.329 82.9715 129.204 82.7361 128.153 82.7097C127.275 82.672 126.638 82.785 126.242 83.0486C125.858 83.3259 125.662 83.7262 125.654 84.2497C125.676 84.787 125.855 85.4337 126.191 86.1897C126.526 86.9457 126.997 87.7973 127.601 88.7446L129.819 92.3164C131.124 94.3732 131.998 96.183 132.442 97.7459C132.898 99.3224 132.92 100.638 132.508 101.694C132.109 102.763 131.25 103.565 129.932 104.099C128.615 104.633 126.822 104.893 124.556 104.879C120.948 104.821 117.244 104.117 113.445 102.768C109.646 101.419 105.913 99.4999 102.246 97.0112C98.5924 94.5361 95.1513 91.5601 91.9229 88.0833C88.6819 84.5929 86.5705 81.5594 85.5888 78.983C84.6071 76.4065 84.9026 74.4164 86.4754 73.0126C88.0481 71.6089 91.0395 70.914 95.4493 70.9281L104.416 80.5845C102.657 80.6433 101.462 80.9844 100.832 81.6077C100.201 82.2309 100.088 83.0955 100.492 84.2014C100.909 85.3209 101.804 86.6208 103.179 88.1012C104.44 89.4593 105.762 90.6168 107.145 91.5737C108.541 92.5441 109.923 93.2929 111.292 93.8199C112.661 94.347 113.926 94.6244 115.087 94.6521C116.15 94.6518 116.84 94.4186 117.158 93.9527C117.495 93.4869 117.482 92.7617 117.117 91.7772C116.783 90.8064 116.151 89.5634 115.221 88.0482L112.563 83.7057C110.339 80.107 109.522 77.2842 110.113 75.2373C110.722 73.1907 113.192 72.2007 117.523 72.2675C121.031 72.2974 124.76 73.028 128.709 74.4596C132.658 75.8911 136.521 77.852 140.299 80.342C144.077 82.8321 147.435 85.6594 150.373 88.8239C153.375 92.0562 155.228 94.8515 155.934 97.2098C156.671 99.5818 156.308 101.41 154.844 102.694C153.38 103.979 150.891 104.612 147.376 104.596L138.41 94.9396Z" fill="#C7EF6B"/>
<path d="M83.9592 86.3136L83.6409 85.9707L83.1731 85.965L83.4914 86.3078L83.9592 86.3136ZM155.122 87.1907L155.59 87.1965L155.272 86.8537L154.804 86.8479L155.122 87.1907ZM158.225 90.5318L158.543 90.8746L159.011 90.8804L158.692 90.5375L158.225 90.5318ZM87.0615 89.6546L86.5937 89.6488L86.9121 89.9917L87.3799 89.9974L87.0615 89.6546ZM138.41 94.9396L138.051 94.5977L137.651 94.6208L137.942 94.9338L138.41 94.9396ZM141.48 93.1851L140.916 92.9672L140.915 92.971L141.48 93.1851ZM135.263 85.3953L135.583 85.2759L135.583 85.2759L135.263 85.3953ZM131.529 83.4159L131.506 83.6875L131.512 83.6898L131.529 83.4159ZM128.153 82.7097L128.451 83.0521L128.463 83.0524L128.153 82.7097ZM126.242 83.0486L125.733 82.748L125.728 82.7517L126.242 83.0486ZM125.654 84.2497L125.087 84.0497L125.088 84.058L125.654 84.2497ZM126.191 86.1897L126.738 86.3104L126.191 86.1897ZM127.601 88.7446L128.128 88.8262L128.125 88.822L127.601 88.7446ZM129.819 92.3164L129.292 92.2347L129.294 92.238L129.819 92.3164ZM132.442 97.7459L131.883 97.5938L131.883 97.5949L132.442 97.7459ZM132.508 101.694L131.95 101.452L131.95 101.454L132.508 101.694ZM129.932 104.099L129.459 103.78L129.459 103.78L129.932 104.099ZM124.556 104.879L124.872 105.221L124.878 105.221L124.556 104.879ZM113.445 102.768L113.452 102.49L113.445 102.768ZM102.246 97.0112L102.56 96.8874L102.559 96.8868L102.246 97.0112ZM85.5888 78.983L86.1417 79.1165L85.5888 78.983ZM95.4493 70.9281L95.9171 70.9339L95.5948 70.5867L95.1252 70.5852L95.4493 70.9281ZM104.416 80.5845L104.762 80.927L105.183 80.9129L104.883 80.5902L104.416 80.5845ZM100.832 81.6077L100.301 81.325L100.301 81.325L100.832 81.6077ZM100.492 84.2014L99.9379 84.0647L99.9384 84.0661L100.492 84.2014ZM107.145 91.5737L107.469 91.4572L107.467 91.4557L107.145 91.5737ZM111.292 93.8199L111.333 93.5547L111.292 93.8199ZM115.087 94.6521L115.398 94.9948L115.406 94.995L115.414 94.995L115.087 94.6521ZM117.158 93.9527L116.614 93.6856L116.613 93.6882L117.158 93.9527ZM117.117 91.7772L116.561 91.6363L116.563 91.6415L117.117 91.7772ZM115.221 88.0482L114.693 87.9646L114.693 87.9651L115.221 88.0482ZM112.563 83.7057L113.091 83.7893L113.09 83.788L112.563 83.7057ZM110.113 75.2373L109.552 75.0043L109.552 75.0052L110.113 75.2373ZM117.523 72.2675L117.839 72.6104L117.844 72.6104L117.523 72.2675ZM128.709 74.4596L128.724 74.1848L128.709 74.4596ZM140.299 80.342L139.999 80.4747L140.299 80.342ZM155.934 97.2098L155.376 97.0605L155.377 97.0627L155.934 97.2098ZM154.844 102.694L155.368 102.982L154.844 102.694ZM147.376 104.596L146.909 104.59L147.23 104.937L147.7 104.939L147.376 104.596ZM83.9592 86.3136L84.2776 86.6564L155.441 87.5336L155.122 87.1907L154.804 86.8479L83.6409 85.9707L83.9592 86.3136ZM155.122 87.1907L154.655 87.185L157.757 90.526L158.225 90.5318L158.692 90.5375L155.59 87.1965L155.122 87.1907ZM158.225 90.5318L157.906 90.1889L86.7432 89.3118L87.0615 89.6546L87.3799 89.9974L158.543 90.8746L158.225 90.5318ZM87.0615 89.6546L87.5293 89.6604L84.427 86.3193L83.9592 86.3136L83.4914 86.3078L86.5937 89.6488L87.0615 89.6546ZM138.41 94.9396L138.769 95.2816C140.789 95.1647 141.9 94.5411 142.045 93.3992L141.48 93.1851L140.915 92.971C140.791 93.9471 139.856 94.4932 138.051 94.5977L138.41 94.9396ZM141.48 93.1851L142.044 93.4029C142.222 92.276 141.322 90.6817 139.453 88.6691L138.985 88.6634L138.517 88.6576C140.306 90.5836 141.068 92.0038 140.916 92.9672L141.48 93.1851ZM138.985 88.6634L139.453 88.6691C138.217 87.3383 136.93 86.2033 135.583 85.2759L135.263 85.3953L134.944 85.5146C136.138 86.3371 137.332 87.3807 138.517 88.6576L138.985 88.6634ZM135.263 85.3953L135.583 85.2759C134.247 84.3556 132.899 83.6353 131.547 83.142L131.529 83.4159L131.512 83.6898C132.597 84.0858 133.739 84.6851 134.944 85.5146L135.263 85.3953ZM131.529 83.4159L131.553 83.1443C130.229 82.6541 128.988 82.3958 127.843 82.367L128.153 82.7097L128.463 83.0524C129.419 83.0764 130.429 83.2888 131.506 83.6875L131.529 83.4159ZM128.153 82.7097L127.855 82.3674C126.9 82.3264 126.183 82.4491 125.734 82.7481L126.242 83.0486L126.75 83.3492C127.094 83.1209 127.651 83.0176 128.451 83.052L128.153 82.7097ZM126.242 83.0486L125.728 82.7517C125.306 83.0569 125.097 83.4931 125.088 84.0498L125.654 84.2497L126.219 84.4496C126.227 83.9593 126.411 83.5948 126.756 83.3456L126.242 83.0486ZM125.654 84.2497L125.088 84.058C125.112 84.6221 125.299 85.2938 125.643 86.0689L126.191 86.1897L126.738 86.3104C126.411 85.5736 126.241 84.9519 126.219 84.4414L125.654 84.2497ZM126.191 86.1897L125.643 86.0689C125.986 86.8415 126.465 87.708 127.077 88.6671L127.601 88.7446L128.125 88.822C127.528 87.8866 127.067 87.0498 126.738 86.3104L126.191 86.1897ZM127.601 88.7446L127.075 88.663L129.292 92.2347L129.819 92.3164L130.345 92.398L128.128 88.8262L127.601 88.7446ZM129.819 92.3164L129.294 92.238C130.586 94.2745 131.447 96.0588 131.883 97.5938L132.442 97.7459L133.001 97.898C132.55 96.3073 131.662 94.4719 130.343 92.3947L129.819 92.3164ZM132.442 97.7459L131.883 97.5949C132.331 99.1436 132.35 100.427 131.95 101.452L132.508 101.694L133.066 101.936C133.49 100.849 133.465 99.5012 133.001 97.897L132.442 97.7459ZM132.508 101.694L131.95 101.454C131.562 102.49 130.732 103.264 129.459 103.78L129.932 104.099L130.405 104.418C131.768 103.866 132.655 103.037 133.066 101.934L132.508 101.694ZM129.932 104.099L129.459 103.78C128.187 104.296 126.449 104.55 124.233 104.536L124.556 104.879L124.878 105.221C127.196 105.236 129.042 104.971 130.405 104.418L129.932 104.099ZM124.556 104.879L124.24 104.536C120.713 104.479 117.12 103.793 113.452 102.49L113.445 102.768L113.438 103.046C117.368 104.441 121.183 105.162 124.872 105.221L124.556 104.879ZM113.445 102.768L113.452 102.49C109.778 101.186 106.15 99.3245 102.56 96.8874L102.246 97.0112L101.933 97.135C105.676 99.6754 109.513 101.652 113.438 103.046L113.445 102.768ZM102.246 97.0112L102.559 96.8868C98.9819 94.4638 95.5899 91.5345 92.3907 88.089L91.9229 88.0833L91.4551 88.0775C94.7126 91.5858 98.2029 94.6084 101.934 97.1356L102.246 97.0112ZM91.9229 88.0833L92.3907 88.089C89.1807 84.632 87.1047 81.6438 86.1417 79.1165L85.5888 78.983L85.0359 78.8494C86.0363 81.475 88.183 84.5537 91.4551 88.0775L91.9229 88.0833ZM85.5888 78.983L86.1417 79.1165C85.1818 76.5973 85.4736 74.6632 87.001 73.3L86.4754 73.0126L85.9498 72.7253C84.3316 74.1696 84.0324 76.2157 85.0359 78.8494L85.5888 78.983ZM86.4754 73.0126L87.001 73.3C88.5232 71.9414 91.4301 71.2571 95.7735 71.271L95.4493 70.9281L95.1252 70.5852C90.6489 70.5709 87.5731 71.2764 85.9498 72.7253L86.4754 73.0126ZM95.4493 70.9281L94.9815 70.9223L103.948 80.5787L104.416 80.5845L104.883 80.5902L95.9171 70.9339L95.4493 70.9281ZM104.416 80.5845L104.07 80.2419C102.246 80.303 100.976 80.658 100.301 81.325L100.832 81.6077L101.362 81.8903C101.948 81.3108 103.068 80.9837 104.762 80.927L104.416 80.5845ZM100.832 81.6077L100.301 81.325C99.6302 81.9882 99.5145 82.9057 99.9379 84.0647L100.492 84.2014L101.046 84.338C100.661 83.2853 100.772 82.4736 101.362 81.8903L100.832 81.6077ZM100.492 84.2014L99.9384 84.0661C100.373 85.2343 101.304 86.5798 102.711 88.0954L103.179 88.1012L103.647 88.1069C102.305 86.6618 101.444 85.4074 101.046 84.3367L100.492 84.2014ZM103.179 88.1012L102.711 88.0954C103.999 89.4825 105.367 90.6844 106.823 91.6917L107.145 91.5737L107.467 91.4557C106.157 90.5492 104.881 89.4361 103.647 88.1069L103.179 88.1012ZM107.145 91.5737L106.821 91.6902C108.28 92.7049 109.759 93.5105 111.251 94.0852L111.292 93.8199L111.333 93.5547C110.088 93.0753 108.801 92.3834 107.469 91.4572L107.145 91.5737ZM111.292 93.8199L111.251 94.0852C112.746 94.6606 114.134 94.9646 115.398 94.9948L115.087 94.6521L114.777 94.3094C113.718 94.2841 112.576 94.0333 111.333 93.5547L111.292 93.8199ZM115.087 94.6521L115.414 94.995C116.574 94.9947 117.348 94.7378 117.704 94.2172L117.158 93.9527L116.613 93.6882C116.331 94.0995 115.725 94.309 114.761 94.3093L115.087 94.6521ZM117.158 93.9527L117.702 94.2197C118.073 93.7069 118.046 92.9275 117.671 91.9128L117.117 91.7772L116.563 91.6415C116.917 92.596 116.917 93.2669 116.614 93.6856L117.158 93.9527ZM117.117 91.7772L117.672 91.918C117.33 90.9222 116.686 89.6581 115.748 88.1314L115.221 88.0482L114.693 87.9651C115.617 89.4687 116.236 90.6905 116.561 91.6363L117.117 91.7772ZM115.221 88.0482L115.749 88.1318L113.091 83.7893L112.563 83.7057L112.035 83.6221L114.693 87.9646L115.221 88.0482ZM112.563 83.7057L113.09 83.788C110.889 80.2272 110.099 77.4621 110.674 75.4694L110.113 75.2373L109.552 75.0052C108.945 77.1063 109.788 79.9868 112.035 83.6235L112.563 83.7057ZM110.113 75.2373L110.674 75.4703C111.259 73.5057 113.623 72.5453 117.839 72.6103L117.523 72.2675L117.207 71.9247C112.762 71.8562 110.186 72.8757 109.552 75.0043L110.113 75.2373ZM117.523 72.2675L117.844 72.6104C121.262 72.6394 124.874 73.3497 128.694 74.7344L128.709 74.4596L128.724 74.1848C124.646 72.7064 120.801 71.9553 117.202 71.9247L117.523 72.2675ZM128.709 74.4596L128.694 74.7344C132.53 76.1248 136.296 78.0337 139.999 80.4747L140.299 80.342L140.599 80.2094C136.747 77.6702 132.787 75.6574 128.724 74.1848L128.709 74.4596ZM140.299 80.342L139.999 80.4747C143.7 82.9141 147.004 85.6931 149.906 88.8181L150.373 88.8239L150.841 88.8296C147.866 85.6258 144.454 82.7501 140.599 80.2094L140.299 80.342ZM150.373 88.8239L149.906 88.8181C152.871 92.0121 154.686 94.7563 155.376 97.0605L155.934 97.2098L156.492 97.359C155.77 94.9468 153.878 92.1004 150.841 88.8296L150.373 88.8239ZM155.934 97.2098L155.377 97.0627C156.098 99.3835 155.739 101.16 154.319 102.406L154.844 102.694L155.368 102.982C156.876 101.66 157.245 99.7801 156.492 97.3569L155.934 97.2098ZM154.844 102.694L154.319 102.406C152.9 103.651 150.486 104.269 147.053 104.253L147.376 104.596L147.7 104.939C151.295 104.956 153.86 104.306 155.368 102.982L154.844 102.694ZM147.376 104.596L147.844 104.602L138.878 94.9454L138.41 94.9396L137.942 94.9338L146.909 104.59L147.376 104.596Z" fill="black" mask="url(#path-24-outside-6_152_42366)"/>
</svg>
